<?xml version="1.0" encoding="UTF-8" standalone="no"?>
<!DOCTYPE svg PUBLIC "-//W3C//DTD SVG 1.1//EN"
 "http://www.w3.org/Graphics/SVG/1.1/DTD/svg11.dtd">
<!-- Generated by graphviz version 2.43.0 (0)
 -->
<!-- Title: G Pages: 1 -->
<svg width="572pt" height="391pt"
 viewBox="0.00 0.00 571.60 390.60" xmlns="http://www.w3.org/2000/svg" xmlns:xlink="http://www.w3.org/1999/xlink">
<g id="graph0" class="graph" transform="scale(1 1) rotate(0) translate(28.8 361.8)">
<title>G</title>
<polygon fill="#0d0e15" stroke="transparent" points="-28.8,28.8 -28.8,-361.8 542.8,-361.8 542.8,28.8 -28.8,28.8"/>
<text text-anchor="middle" x="257" y="-7.8" font-family="Courier New" font-size="14.00" fill="#00ffcc">05. POLICY EXECUTION MODELS: TIMER VS WATCH</text>
<g id="clust1" class="cluster">
<title>cluster_timer</title>
<polygon fill="#0d0e15" stroke="#00ff88" points="8,-31 8,-325 230,-325 230,-31 8,-31"/>
<text text-anchor="middle" x="119" y="-309.8" font-family="Courier New" font-size="14.00" fill="#00ff88">Timer Mode (mTimer)</text>
</g>
<g id="clust2" class="cluster">
<title>cluster_watch</title>
<polygon fill="#0d0e15" stroke="#ff00cc" points="238,-31 238,-325 506,-325 506,-31 238,-31"/>
<text text-anchor="middle" x="372" y="-309.8" font-family="Courier New" font-size="14.00" fill="#ff00cc">Watch Mode (mWatch)</text>
</g>
<!-- t_boot -->
<g id="node1" class="node">
<title>t_boot</title>
<polygon fill="#11241a" stroke="#00d2ff" stroke-width="2" points="164,-294 74,-294 74,-258 164,-258 164,-294"/>
<text text-anchor="middle" x="119" y="-273.8" font-family="Courier New" font-size="9.00" fill="#ffffff">Daemon Startup</text>
</g>
<!-- t_exec -->
<g id="node2" class="node">
<title>t_exec</title>
<polygon fill="#11241a" stroke="#00d2ff" stroke-width="2" points="211.5,-221 26.5,-221 26.5,-185 211.5,-185 211.5,-221"/>
<text text-anchor="middle" x="119" y="-200.8" font-family="Courier New" font-size="9.00" fill="#ffffff">Execute: hdparm &#45;S &lt;value&gt; &lt;dev&gt;</text>
</g>
<!-- t_boot&#45;&gt;t_exec -->
<g id="edge1" class="edge">
<title>t_boot&#45;&gt;t_exec</title>
<path fill="none" stroke="#ff00cc" stroke-width="1.5" d="M119,-257.81C119,-249.79 119,-240.05 119,-231.07"/>
<polygon fill="#ff00cc" stroke="#ff00cc" stroke-width="1.5" points="122.5,-231.03 119,-221.03 115.5,-231.03 122.5,-231.03"/>
</g>
<!-- t_kernel -->
<g id="node3" class="node">
<title>t_kernel</title>
<polygon fill="#11241a" stroke="#00d2ff" stroke-width="2" points="216.5,-148 21.5,-148 21.5,-112 216.5,-112 216.5,-148"/>
<text text-anchor="middle" x="119" y="-127.8" font-family="Courier New" font-size="9.00" fill="#ffffff">Kernel SATA Driver Arms Controller</text>
</g>
<!-- t_exec&#45;&gt;t_kernel -->
<g id="edge2" class="edge">
<title>t_exec&#45;&gt;t_kernel</title>
<path fill="none" stroke="#ff00cc" stroke-width="1.5" d="M119,-184.81C119,-176.79 119,-167.05 119,-158.07"/>
<polygon fill="#ff00cc" stroke="#ff00cc" stroke-width="1.5" points="122.5,-158.03 119,-148.03 115.5,-158.03 122.5,-158.03"/>
</g>
<!-- t_idle -->
<g id="node4" class="node">
<title>t_idle</title>
<polygon fill="#11241a" stroke="#00ff88" stroke-width="2" points="222,-75 16,-75 16,-39 222,-39 222,-75"/>
<text text-anchor="middle" x="119" y="-59.8" font-family="Courier New" font-size="9.00" fill="#ffffff">Drive Controller Spindown</text>
<text text-anchor="middle" x="119" y="-49.8" font-family="Courier New" font-size="9.00" fill="#ffffff">(Zero daemon interaction afterwards)</text>
</g>
<!-- t_kernel&#45;&gt;t_idle -->
<g id="edge3" class="edge">
<title>t_kernel&#45;&gt;t_idle</title>
<path fill="none" stroke="#ff00cc" stroke-width="1.5" d="M119,-111.81C119,-103.79 119,-94.05 119,-85.07"/>
<polygon fill="#ff00cc" stroke="#ff00cc" stroke-width="1.5" points="122.5,-85.03 119,-75.03 115.5,-85.03 122.5,-85.03"/>
</g>
<!-- w_boot -->
<g id="node5" class="node">
<title>w_boot</title>
<polygon fill="#2b1426" stroke="#00d2ff" stroke-width="2" points="425,-294 319,-294 319,-258 425,-258 425,-294"/>
<text text-anchor="middle" x="372" y="-273.8" font-family="Courier New" font-size="9.00" fill="#ffffff">Daemon Watch Loop</text>
</g>
<!-- w_poll -->
<g id="node6" class="node">
<title>w_poll</title>
<polygon fill="#2b1426" stroke="#00d2ff" stroke-width="2" points="448.5,-221 295.5,-221 295.5,-185 448.5,-185 448.5,-221"/>
<text text-anchor="middle" x="372" y="-200.8" font-family="Courier New" font-size="9.00" fill="#ffffff">Poll stats every N seconds</text>
</g>
<!-- w_boot&#45;&gt;w_poll -->
<g id="edge4" class="edge">
<title>w_boot&#45;&gt;w_poll</title>
<path fill="none" stroke="#ff00cc" stroke-width="1.5" d="M372,-257.81C372,-249.79 372,-240.05 372,-231.07"/>
<polygon fill="#ff00cc" stroke="#ff00cc" stroke-width="1.5" points="375.5,-231.03 372,-221.03 368.5,-231.03 375.5,-231.03"/>
</g>
<!-- w_check -->
<g id="node7" class="node">
<title>w_check</title>
<polygon fill="#2b1426" stroke="#00d2ff" stroke-width="2" points="394,-148 246,-148 246,-112 394,-112 394,-148"/>
<text text-anchor="middle" x="320" y="-127.8" font-family="Courier New" font-size="9.00" fill="#ffffff">Check block I/O idle time</text>
</g>
<!-- w_poll&#45;&gt;w_check -->
<g id="edge5" class="edge">
<title>w_poll&#45;&gt;w_check</title>
<path fill="none" stroke="#ff00cc" stroke-width="1.5" d="M359.41,-184.81C353.15,-176.27 345.46,-165.77 338.55,-156.32"/>
<polygon fill="#ff00cc" stroke="#ff00cc" stroke-width="1.5" points="341.2,-154.03 332.47,-148.03 335.56,-158.16 341.2,-154.03"/>
</g>
<!-- w_park -->
<g id="node8" class="node">
<title>w_park</title>
<polygon fill="#2b1426" stroke="#ff00cc" stroke-width="2" points="444.5,-75 301.5,-75 301.5,-39 444.5,-39 444.5,-75"/>
<text text-anchor="middle" x="373" y="-59.8" font-family="Courier New" font-size="9.00" fill="#ffffff">Execute: hdparm &#45;y &lt;dev&gt;</text>
<text text-anchor="middle" x="373" y="-49.8" font-family="Courier New" font-size="9.00" fill="#ffffff">(Forced spindown)</text>
</g>
<!-- w_check&#45;&gt;w_park -->
<g id="edge6" class="edge">
<title>w_check&#45;&gt;w_park</title>
<path fill="none" stroke="#ff00cc" stroke-width="1.5" d="M332.83,-111.81C339.21,-103.27 347.05,-92.77 354.1,-83.32"/>
<polygon fill="#ff00cc" stroke="#ff00cc" stroke-width="1.5" points="357.11,-85.14 360.29,-75.03 351.5,-80.95 357.11,-85.14"/>
</g>
<!-- w_park&#45;&gt;w_poll -->
<g id="edge7" class="edge">
<title>w_park&#45;&gt;w_poll</title>
<path fill="none" stroke="#ff00cc" stroke-width="1.5" d="M385.42,-75.03C392.06,-85.21 399.56,-98.71 403,-112 407.01,-127.49 407.12,-132.54 403,-148 400.42,-157.66 395.66,-167.4 390.63,-175.89"/>
<polygon fill="#ff00cc" stroke="#ff00cc" stroke-width="1.5" points="387.53,-174.23 385.15,-184.55 393.45,-177.97 387.53,-174.23"/>
<text text-anchor="middle" x="440" y="-128.1" font-family="Courier New" font-size="8.00" fill="#ff00cc">Loop continuous</text>
</g>
</g>
</svg>
