<?xml version="1.0" encoding="UTF-8" standalone="no"?>
<!DOCTYPE svg PUBLIC "-//W3C//DTD SVG 1.1//EN"
 "http://www.w3.org/Graphics/SVG/1.1/DTD/svg11.dtd">
<!-- Generated by graphviz version 2.43.0 (0)
 -->
<!-- Title: G Pages: 1 -->
<svg width="797pt" height="271pt"
 viewBox="0.00 0.00 796.60 270.60" xmlns="http://www.w3.org/2000/svg" xmlns:xlink="http://www.w3.org/1999/xlink">
<g id="graph0" class="graph" transform="scale(1 1) rotate(0) translate(28.8 241.8)">
<title>G</title>
<polygon fill="#0d0e15" stroke="transparent" points="-28.8,28.8 -28.8,-241.8 767.8,-241.8 767.8,28.8 -28.8,28.8"/>
<text text-anchor="middle" x="369.5" y="-7.8" font-family="Courier New" font-size="14.00" fill="#00ffcc">09. SMART ATTRIBUTES EXTRACTION MAP</text>
<!-- smart_out -->
<g id="node1" class="node">
<title>smart_out</title>
<polygon fill="#242411" stroke="#ffff00" stroke-width="2" points="424.5,-213 292.5,-213 292.5,-177 424.5,-177 424.5,-213"/>
<text text-anchor="middle" x="358.5" y="-192.8" font-family="Courier New" font-size="9.00" fill="#ffffff">Raw smartctl &#45;a Output</text>
</g>
<!-- parse_loop -->
<g id="node2" class="node">
<title>parse_loop</title>
<polygon fill="#161925" stroke="#00d2ff" stroke-width="2" points="414,-140 303,-140 303,-104 414,-104 414,-140"/>
<text text-anchor="middle" x="358.5" y="-119.8" font-family="Courier New" font-size="9.00" fill="#ffffff">Parse line&#45;by&#45;line</text>
</g>
<!-- smart_out&#45;&gt;parse_loop -->
<g id="edge1" class="edge">
<title>smart_out&#45;&gt;parse_loop</title>
<path fill="none" stroke="#ff00cc" stroke-width="1.5" d="M358.5,-176.81C358.5,-168.79 358.5,-159.05 358.5,-150.07"/>
<polygon fill="#ff00cc" stroke="#ff00cc" stroke-width="1.5" points="362,-150.03 358.5,-140.03 355,-150.03 362,-150.03"/>
</g>
<!-- attr_4 -->
<g id="node3" class="node">
<title>attr_4</title>
<polygon fill="#161925" stroke="#00d2ff" stroke-width="2" points="169,-59 0,-59 0,-23 169,-23 169,-59"/>
<text text-anchor="middle" x="84.5" y="-43.8" font-family="Courier New" font-size="9.00" fill="#ffffff">Attribute 4: Start_Stop_Count</text>
<text text-anchor="middle" x="84.5" y="-33.8" font-family="Courier New" font-size="9.00" fill="#ffffff">(Cumulative platter spin&#45;ups)</text>
</g>
<!-- parse_loop&#45;&gt;attr_4 -->
<g id="edge2" class="edge">
<title>parse_loop&#45;&gt;attr_4</title>
<path fill="none" stroke="#ff00cc" stroke-width="1.5" d="M302.72,-104.92C259.48,-92.45 199.35,-75.11 153.15,-61.79"/>
<polygon fill="#ff00cc" stroke="#ff00cc" stroke-width="1.5" points="154.09,-58.42 143.52,-59.02 152.16,-65.15 154.09,-58.42"/>
<text text-anchor="middle" x="240" y="-79.6" font-family="Courier New" font-size="8.00" fill="#ff00cc">ID 4</text>
</g>
<!-- attr_9 -->
<g id="node4" class="node">
<title>attr_9</title>
<polygon fill="#161925" stroke="#00d2ff" stroke-width="2" points="344.5,-59 186.5,-59 186.5,-23 344.5,-23 344.5,-59"/>
<text text-anchor="middle" x="265.5" y="-43.8" font-family="Courier New" font-size="9.00" fill="#ffffff">Attribute 9: Power_On_Hours</text>
<text text-anchor="middle" x="265.5" y="-33.8" font-family="Courier New" font-size="9.00" fill="#ffffff">(Total runtime)</text>
</g>
<!-- parse_loop&#45;&gt;attr_9 -->
<g id="edge3" class="edge">
<title>parse_loop&#45;&gt;attr_9</title>
<path fill="none" stroke="#ff00cc" stroke-width="1.5" d="M338.32,-103.86C325.16,-92.68 307.8,-77.93 293.34,-65.64"/>
<polygon fill="#ff00cc" stroke="#ff00cc" stroke-width="1.5" points="295.53,-62.92 285.64,-59.11 291,-68.25 295.53,-62.92"/>
<text text-anchor="middle" x="325" y="-79.6" font-family="Courier New" font-size="8.00" fill="#ff00cc">ID 9</text>
</g>
<!-- attr_12 -->
<g id="node5" class="node">
<title>attr_12</title>
<polygon fill="#161925" stroke="#00d2ff" stroke-width="2" points="542,-59 363,-59 363,-23 542,-23 542,-59"/>
<text text-anchor="middle" x="452.5" y="-43.8" font-family="Courier New" font-size="9.00" fill="#ffffff">Attribute 12: Power_Cycle_Count</text>
<text text-anchor="middle" x="452.5" y="-33.8" font-family="Courier New" font-size="9.00" fill="#ffffff">(Full system boots)</text>
</g>
<!-- parse_loop&#45;&gt;attr_12 -->
<g id="edge4" class="edge">
<title>parse_loop&#45;&gt;attr_12</title>
<path fill="none" stroke="#ff00cc" stroke-width="1.5" d="M378.9,-103.86C392.2,-92.68 409.74,-77.93 424.37,-65.64"/>
<polygon fill="#ff00cc" stroke="#ff00cc" stroke-width="1.5" points="426.74,-68.22 432.14,-59.11 422.24,-62.86 426.74,-68.22"/>
<text text-anchor="middle" x="420" y="-79.6" font-family="Courier New" font-size="8.00" fill="#ff00cc">ID 12</text>
</g>
<!-- attr_193 -->
<g id="node6" class="node">
<title>attr_193</title>
<polygon fill="#161925" stroke="#00d2ff" stroke-width="2" points="739,-59 560,-59 560,-23 739,-23 739,-59"/>
<text text-anchor="middle" x="649.5" y="-43.8" font-family="Courier New" font-size="9.00" fill="#ffffff">Attribute 193: Load_Cycle_Count</text>
<text text-anchor="middle" x="649.5" y="-33.8" font-family="Courier New" font-size="9.00" fill="#ffffff">(Head park operations)</text>
</g>
<!-- parse_loop&#45;&gt;attr_193 -->
<g id="edge5" class="edge">
<title>parse_loop&#45;&gt;attr_193</title>
<path fill="none" stroke="#ff00cc" stroke-width="1.5" d="M414.26,-105.86C460.52,-93.3 526.64,-75.35 577.01,-61.68"/>
<polygon fill="#ff00cc" stroke="#ff00cc" stroke-width="1.5" points="578.12,-65 586.86,-59.01 576.29,-58.25 578.12,-65"/>
<text text-anchor="middle" x="527.5" y="-79.6" font-family="Courier New" font-size="8.00" fill="#ff00cc">ID 193</text>
</g>
</g>
</svg>
