<?xml version="1.0" encoding="UTF-8" standalone="no"?>
<!DOCTYPE svg PUBLIC "-//W3C//DTD SVG 1.1//EN"
 "http://www.w3.org/Graphics/SVG/1.1/DTD/svg11.dtd">
<!-- Generated by graphviz version 2.43.0 (0)
 -->
<!-- Title: G Pages: 1 -->
<svg width="524pt" height="211pt"
 viewBox="0.00 0.00 524.38 210.60" xmlns="http://www.w3.org/2000/svg" xmlns:xlink="http://www.w3.org/1999/xlink">
<g id="graph0" class="graph" transform="scale(1 1) rotate(0) translate(28.8 181.8)">
<title>G</title>
<polygon fill="#0d0e15" stroke="transparent" points="-28.8,28.8 -28.8,-181.8 495.58,-181.8 495.58,28.8 -28.8,28.8"/>
<text text-anchor="middle" x="233.39" y="-7.8" font-family="Courier New" font-size="14.00" fill="#00ffcc">11. HARD DRIVE POWER STATE TRANSITIONS</text>
<!-- ps_active -->
<g id="node1" class="node">
<title>ps_active</title>
<polygon fill="#11241a" stroke="#00ff88" stroke-width="2" points="275.78,-153 117.78,-153 117.78,-115 275.78,-115 275.78,-153"/>
<text text-anchor="middle" x="196.78" y="-141.8" font-family="Courier New" font-size="9.00" fill="#ffffff">ACTIVE/IDLE</text>
<text text-anchor="middle" x="196.78" y="-131.8" font-family="Courier New" font-size="9.00" fill="#ffffff">(Platters spin at rated RPM</text>
<text text-anchor="middle" x="196.78" y="-121.8" font-family="Courier New" font-size="9.00" fill="#ffffff">Heads loaded on disc)</text>
</g>
<!-- ps_standby -->
<g id="node2" class="node">
<title>ps_standby</title>
<polygon fill="#242411" stroke="#ffff00" stroke-width="2" points="170.28,-61 1.28,-61 1.28,-23 170.28,-23 170.28,-61"/>
<text text-anchor="middle" x="85.78" y="-49.8" font-family="Courier New" font-size="9.00" fill="#ffffff">STANDBY</text>
<text text-anchor="middle" x="85.78" y="-39.8" font-family="Courier New" font-size="9.00" fill="#ffffff">(Platters stopped</text>
<text text-anchor="middle" x="85.78" y="-29.8" font-family="Courier New" font-size="9.00" fill="#ffffff">Heads parked in landing zone)</text>
</g>
<!-- ps_active&#45;&gt;ps_standby -->
<g id="edge1" class="edge">
<title>ps_active&#45;&gt;ps_standby</title>
<path fill="none" stroke="#ff00cc" stroke-width="1.5" d="M117.67,-128.2C71.41,-123.56 19.32,-114.52 4.78,-97 -5.37,-84.77 2.87,-74.24 17.36,-65.81"/>
<polygon fill="#ff00cc" stroke="#ff00cc" stroke-width="1.5" points="19.23,-68.78 26.52,-61.09 16.02,-62.56 19.23,-68.78"/>
<text text-anchor="middle" x="52.28" y="-90.6" font-family="Courier New" font-size="8.00" fill="#ff00cc">Standby timer expires</text>
<text text-anchor="middle" x="52.28" y="-81.6" font-family="Courier New" font-size="8.00" fill="#ff00cc">OR hdparm &#45;y issued</text>
</g>
<!-- ps_sleeping -->
<g id="node3" class="node">
<title>ps_sleeping</title>
<polygon fill="#2d161a" stroke="#ff5252" stroke-width="2" points="381.78,-61 233.78,-61 233.78,-23 381.78,-23 381.78,-61"/>
<text text-anchor="middle" x="307.78" y="-49.8" font-family="Courier New" font-size="9.00" fill="#ffffff">SLEEPING</text>
<text text-anchor="middle" x="307.78" y="-39.8" font-family="Courier New" font-size="9.00" fill="#ffffff">(Controller power reduced</text>
<text text-anchor="middle" x="307.78" y="-29.8" font-family="Courier New" font-size="9.00" fill="#ffffff">Platters stopped)</text>
</g>
<!-- ps_active&#45;&gt;ps_sleeping -->
<g id="edge3" class="edge">
<title>ps_active&#45;&gt;ps_sleeping</title>
<path fill="none" stroke="#ff00cc" stroke-width="1.5" d="M225.14,-114.91C233.28,-109.4 242.04,-103.17 249.78,-97 261.01,-88.05 272.73,-77.41 282.67,-67.96"/>
<polygon fill="#ff00cc" stroke="#ff00cc" stroke-width="1.5" points="285.11,-70.47 289.88,-61.01 280.25,-65.43 285.11,-70.47"/>
<text text-anchor="middle" x="306.28" y="-86.1" font-family="Courier New" font-size="8.00" fill="#ff00cc">hdparm &#45;Y issued</text>
</g>
<!-- ps_standby&#45;&gt;ps_active -->
<g id="edge2" class="edge">
<title>ps_standby&#45;&gt;ps_active</title>
<path fill="none" stroke="#ff5252" stroke-width="1.5" d="M94.98,-61.07C101.51,-72.51 111.16,-86.98 122.78,-97 128.36,-101.81 134.7,-106.14 141.26,-110"/>
<polygon fill="#ff5252" stroke="#ff5252" stroke-width="1.5" points="139.84,-113.21 150.29,-114.95 143.2,-107.07 139.84,-113.21"/>
<text text-anchor="middle" x="186.28" y="-90.6" font-family="Courier New" font-size="8.00" fill="#ff00cc">Host disk read/write request</text>
<text text-anchor="middle" x="186.28" y="-81.6" font-family="Courier New" font-size="8.00" fill="#ff00cc">(5&#45;15s spin&#45;up delay)</text>
</g>
<!-- ps_sleeping&#45;&gt;ps_active -->
<g id="edge4" class="edge">
<title>ps_sleeping&#45;&gt;ps_active</title>
<path fill="none" stroke="#ff5252" stroke-width="1.5" d="M333.31,-61.1C345.21,-71.76 354.93,-85.38 345.78,-97 337.54,-107.48 312.92,-115.27 286.01,-120.87"/>
<polygon fill="#ff5252" stroke="#ff5252" stroke-width="1.5" points="285.16,-117.47 276.02,-122.83 286.51,-124.34 285.16,-117.47"/>
<text text-anchor="middle" x="407.78" y="-86.1" font-family="Courier New" font-size="8.00" fill="#ff00cc">Hardware reset / bus cycle</text>
</g>
</g>
</svg>
