<?xml version="1.0" encoding="UTF-8" standalone="no"?>
<!DOCTYPE svg PUBLIC "-//W3C//DTD SVG 1.1//EN"
 "http://www.w3.org/Graphics/SVG/1.1/DTD/svg11.dtd">
<!-- Generated by graphviz version 2.43.0 (0)
 -->
<!-- Title: G Pages: 1 -->
<svg width="528pt" height="244pt"
 viewBox="0.00 0.00 527.60 243.60" xmlns="http://www.w3.org/2000/svg" xmlns:xlink="http://www.w3.org/1999/xlink">
<g id="graph0" class="graph" transform="scale(1 1) rotate(0) translate(28.8 214.8)">
<title>G</title>
<polygon fill="#0d0e15" stroke="transparent" points="-28.8,28.8 -28.8,-214.8 498.8,-214.8 498.8,28.8 -28.8,28.8"/>
<text text-anchor="middle" x="235" y="-7.8" font-family="Courier New" font-size="14.00" fill="#00ffcc">15. ACTIVE&#45;IDLE VS STANDBY THERMAL FOOTPRINT</text>
<g id="clust1" class="cluster">
<title>cluster_active</title>
<polygon fill="#0d0e15" stroke="#ff5252" points="8,-31 8,-178 264,-178 264,-31 8,-31"/>
<text text-anchor="middle" x="136" y="-162.8" font-family="Courier New" font-size="14.00" fill="#ff5252">Active / Idle Mode (Spinning)</text>
</g>
<g id="clust2" class="cluster">
<title>cluster_standby</title>
<polygon fill="#0d0e15" stroke="#00ff88" points="272,-31 272,-178 462,-178 462,-31 272,-31"/>
<text text-anchor="middle" x="367" y="-162.8" font-family="Courier New" font-size="14.00" fill="#00ff88">Standby Mode (Parked)</text>
</g>
<!-- a_power -->
<g id="node1" class="node">
<title>a_power</title>
<polygon fill="#161925" stroke="#00d2ff" stroke-width="2" points="207.5,-147 64.5,-147 64.5,-111 207.5,-111 207.5,-147"/>
<text text-anchor="middle" x="136" y="-126.8" font-family="Courier New" font-size="9.00" fill="#ffffff">Power consumption: ~5.3W</text>
</g>
<!-- a_temp -->
<g id="node2" class="node">
<title>a_temp</title>
<polygon fill="#161925" stroke="#00d2ff" stroke-width="2" points="218,-75 54,-75 54,-39 218,-39 218,-75"/>
<text text-anchor="middle" x="136" y="-54.8" font-family="Courier New" font-size="9.00" fill="#ffffff">Operating Temperature: ~53°C</text>
</g>
<!-- a_power&#45;&gt;a_temp -->
<g id="edge1" class="edge">
<title>a_power&#45;&gt;a_temp</title>
<path fill="none" stroke="#ff00cc" stroke-width="1.5" d="M136,-110.7C136,-102.98 136,-93.71 136,-85.11"/>
<polygon fill="#ff00cc" stroke="#ff00cc" stroke-width="1.5" points="139.5,-85.1 136,-75.1 132.5,-85.1 139.5,-85.1"/>
</g>
<!-- s_power -->
<g id="node3" class="node">
<title>s_power</title>
<polygon fill="#161925" stroke="#00d2ff" stroke-width="2" points="438.5,-147 295.5,-147 295.5,-111 438.5,-111 438.5,-147"/>
<text text-anchor="middle" x="367" y="-126.8" font-family="Courier New" font-size="9.00" fill="#ffffff">Power consumption: ~0.4W</text>
</g>
<!-- s_temp -->
<g id="node4" class="node">
<title>s_temp</title>
<polygon fill="#161925" stroke="#00d2ff" stroke-width="2" points="449,-75 285,-75 285,-39 449,-39 449,-75"/>
<text text-anchor="middle" x="367" y="-54.8" font-family="Courier New" font-size="9.00" fill="#ffffff">Operating Temperature: ~28°C</text>
</g>
<!-- s_power&#45;&gt;s_temp -->
<g id="edge2" class="edge">
<title>s_power&#45;&gt;s_temp</title>
<path fill="none" stroke="#ff00cc" stroke-width="1.5" d="M367,-110.7C367,-102.98 367,-93.71 367,-85.11"/>
<polygon fill="#ff00cc" stroke="#ff00cc" stroke-width="1.5" points="370.5,-85.1 367,-75.1 363.5,-85.1 370.5,-85.1"/>
</g>
</g>
</svg>
