<?xml version="1.0" encoding="UTF-8" standalone="no"?>
<!DOCTYPE svg PUBLIC "-//W3C//DTD SVG 1.1//EN"
 "http://www.w3.org/Graphics/SVG/1.1/DTD/svg11.dtd">
<!-- Generated by graphviz version 2.43.0 (0)
 -->
<!-- Title: G Pages: 1 -->
<svg width="446pt" height="477pt"
 viewBox="0.00 0.00 445.60 476.60" xmlns="http://www.w3.org/2000/svg" xmlns:xlink="http://www.w3.org/1999/xlink">
<g id="graph0" class="graph" transform="scale(1 1) rotate(0) translate(28.8 447.8)">
<title>G</title>
<polygon fill="#0d0e15" stroke="transparent" points="-28.8,28.8 -28.8,-447.8 416.8,-447.8 416.8,28.8 -28.8,28.8"/>
<text text-anchor="middle" x="194" y="-7.8" font-family="Courier New" font-size="14.00" fill="#00ffcc">16. WRITE&#45;WINDOW LIFECYCLE (quiescent_mountd)</text>
<!-- start -->
<g id="node1" class="node">
<title>start</title>
<polygon fill="#11241a" stroke="#00ff88" stroke-width="2" points="283.5,-419 104.5,-419 104.5,-383 283.5,-383 283.5,-419"/>
<text text-anchor="middle" x="194" y="-398.8" font-family="Courier New" font-size="9.00" fill="#ffffff">Trigger: Backup Script Executed</text>
</g>
<!-- open_window -->
<g id="node2" class="node">
<title>open_window</title>
<polygon fill="#242411" stroke="#ffff00" stroke-width="2" points="281,-347 107,-347 107,-311 281,-311 281,-347"/>
<text text-anchor="middle" x="194" y="-331.8" font-family="Courier New" font-size="9.00" fill="#ffffff">Remount RW:</text>
<text text-anchor="middle" x="194" y="-321.8" font-family="Courier New" font-size="9.00" fill="#ffffff"> mount &#45;o remount,rw /mnt/sda1</text>
</g>
<!-- start&#45;&gt;open_window -->
<g id="edge1" class="edge">
<title>start&#45;&gt;open_window</title>
<path fill="none" stroke="#ff00cc" stroke-width="1.5" d="M194,-382.7C194,-374.98 194,-365.71 194,-357.11"/>
<polygon fill="#ff00cc" stroke="#ff00cc" stroke-width="1.5" points="197.5,-357.1 194,-347.1 190.5,-357.1 197.5,-357.1"/>
</g>
<!-- write_ops -->
<g id="node3" class="node">
<title>write_ops</title>
<polygon fill="#161925" stroke="#00d2ff" stroke-width="2" points="278.5,-275 109.5,-275 109.5,-239 278.5,-239 278.5,-275"/>
<text text-anchor="middle" x="194" y="-259.8" font-family="Courier New" font-size="9.00" fill="#ffffff">Perform write commands</text>
<text text-anchor="middle" x="194" y="-249.8" font-family="Courier New" font-size="9.00" fill="#ffffff">(e.g., rsync data /mnt/sda1/)</text>
</g>
<!-- open_window&#45;&gt;write_ops -->
<g id="edge2" class="edge">
<title>open_window&#45;&gt;write_ops</title>
<path fill="none" stroke="#ff00cc" stroke-width="1.5" d="M194,-310.7C194,-302.98 194,-293.71 194,-285.11"/>
<polygon fill="#ff00cc" stroke="#ff00cc" stroke-width="1.5" points="197.5,-285.1 194,-275.1 190.5,-285.1 197.5,-285.1"/>
</g>
<!-- sys_sync -->
<g id="node4" class="node">
<title>sys_sync</title>
<polygon fill="#161925" stroke="#00d2ff" stroke-width="2" points="234,-203 154,-203 154,-167 234,-167 234,-203"/>
<text text-anchor="middle" x="194" y="-187.8" font-family="Courier New" font-size="9.00" fill="#ffffff">Cache flush:</text>
<text text-anchor="middle" x="194" y="-177.8" font-family="Courier New" font-size="9.00" fill="#ffffff">sync</text>
</g>
<!-- write_ops&#45;&gt;sys_sync -->
<g id="edge3" class="edge">
<title>write_ops&#45;&gt;sys_sync</title>
<path fill="none" stroke="#ff00cc" stroke-width="1.5" d="M194,-238.7C194,-230.98 194,-221.71 194,-213.11"/>
<polygon fill="#ff00cc" stroke="#ff00cc" stroke-width="1.5" points="197.5,-213.1 194,-203.1 190.5,-213.1 197.5,-213.1"/>
</g>
<!-- close_window -->
<g id="node5" class="node">
<title>close_window</title>
<polygon fill="#11241a" stroke="#00ff88" stroke-width="2" points="281,-131 107,-131 107,-95 281,-95 281,-131"/>
<text text-anchor="middle" x="194" y="-115.8" font-family="Courier New" font-size="9.00" fill="#ffffff">Remount RO:</text>
<text text-anchor="middle" x="194" y="-105.8" font-family="Courier New" font-size="9.00" fill="#ffffff"> mount &#45;o remount,ro /mnt/sda1</text>
</g>
<!-- sys_sync&#45;&gt;close_window -->
<g id="edge4" class="edge">
<title>sys_sync&#45;&gt;close_window</title>
<path fill="none" stroke="#ff00cc" stroke-width="1.5" d="M194,-166.7C194,-158.98 194,-149.71 194,-141.11"/>
<polygon fill="#ff00cc" stroke="#ff00cc" stroke-width="1.5" points="197.5,-141.1 194,-131.1 190.5,-141.1 197.5,-141.1"/>
</g>
<!-- finish -->
<g id="node6" class="node">
<title>finish</title>
<polygon fill="#11241a" stroke="#00ff88" stroke-width="2" points="241.5,-59 146.5,-59 146.5,-23 241.5,-23 241.5,-59"/>
<text text-anchor="middle" x="194" y="-38.8" font-family="Courier New" font-size="9.00" fill="#ffffff">Backup Complete</text>
</g>
<!-- close_window&#45;&gt;finish -->
<g id="edge5" class="edge">
<title>close_window&#45;&gt;finish</title>
<path fill="none" stroke="#ff00cc" stroke-width="1.5" d="M194,-94.7C194,-86.98 194,-77.71 194,-69.11"/>
<polygon fill="#ff00cc" stroke="#ff00cc" stroke-width="1.5" points="197.5,-69.1 194,-59.1 190.5,-69.1 197.5,-69.1"/>
</g>
</g>
</svg>
