<?xml version="1.0" encoding="UTF-8" standalone="no"?>
<!DOCTYPE svg PUBLIC "-//W3C//DTD SVG 1.1//EN"
 "http://www.w3.org/Graphics/SVG/1.1/DTD/svg11.dtd">
<!-- Generated by graphviz version 2.43.0 (0)
 -->
<!-- Title: G Pages: 1 -->
<svg width="478pt" height="425pt"
 viewBox="0.00 0.00 478.10 424.60" xmlns="http://www.w3.org/2000/svg" xmlns:xlink="http://www.w3.org/1999/xlink">
<g id="graph0" class="graph" transform="scale(1 1) rotate(0) translate(28.8 395.8)">
<title>G</title>
<polygon fill="#0d0e15" stroke="transparent" points="-28.8,28.8 -28.8,-395.8 449.3,-395.8 449.3,28.8 -28.8,28.8"/>
<text text-anchor="middle" x="210.25" y="-7.8" font-family="Courier New" font-size="14.00" fill="#00ffcc">17. EXT4 UNMOUNT WRITE SIGNATURE ANALYSIS</text>
<!-- unmount_req -->
<g id="node1" class="node">
<title>unmount_req</title>
<polygon fill="#242411" stroke="#ffff00" stroke-width="2" points="256,-367 113,-367 113,-331 256,-331 256,-367"/>
<text text-anchor="middle" x="184.5" y="-346.8" font-family="Courier New" font-size="9.00" fill="#ffffff">Systemd triggers unmount</text>
</g>
<!-- rw_check -->
<g id="node2" class="node">
<title>rw_check</title>
<polygon fill="#161925" stroke="#00d2ff" stroke-width="2" points="292.5,-294 76.5,-294 76.5,-258 292.5,-258 292.5,-294"/>
<text text-anchor="middle" x="184.5" y="-273.8" font-family="Courier New" font-size="9.00" fill="#ffffff">Is filesystem mounted Read&#45;Write (rw)?</text>
</g>
<!-- unmount_req&#45;&gt;rw_check -->
<g id="edge1" class="edge">
<title>unmount_req&#45;&gt;rw_check</title>
<path fill="none" stroke="#ff00cc" stroke-width="1.5" d="M184.5,-330.81C184.5,-322.79 184.5,-313.05 184.5,-304.07"/>
<polygon fill="#ff00cc" stroke="#ff00cc" stroke-width="1.5" points="188,-304.03 184.5,-294.03 181,-304.03 188,-304.03"/>
</g>
<!-- flush_journal -->
<g id="node3" class="node">
<title>flush_journal</title>
<polygon fill="#161925" stroke="#00d2ff" stroke-width="2" points="227,-213 0,-213 0,-177 227,-177 227,-213"/>
<text text-anchor="middle" x="113.5" y="-192.8" font-family="Courier New" font-size="9.00" fill="#ffffff">Flush uncommitted journal blocks to disk</text>
</g>
<!-- rw_check&#45;&gt;flush_journal -->
<g id="edge2" class="edge">
<title>rw_check&#45;&gt;flush_journal</title>
<path fill="none" stroke="#ff00cc" stroke-width="1.5" d="M169.09,-257.86C159.32,-246.99 146.53,-232.75 135.68,-220.67"/>
<polygon fill="#ff00cc" stroke="#ff00cc" stroke-width="1.5" points="138.16,-218.21 128.88,-213.11 132.96,-222.89 138.16,-218.21"/>
<text text-anchor="middle" x="158.5" y="-233.6" font-family="Courier New" font-size="8.00" fill="#ff00cc">Yes</text>
</g>
<!-- wakeup_spindown -->
<g id="node5" class="node">
<title>wakeup_spindown</title>
<polygon fill="#2d161a" stroke="#ff5252" stroke-width="2" points="282,-59 103,-59 103,-23 282,-23 282,-59"/>
<text text-anchor="middle" x="192.5" y="-43.8" font-family="Courier New" font-size="9.00" fill="#ffffff">FORCED Platter Spin&#45;Up</text>
<text text-anchor="middle" x="192.5" y="-33.8" font-family="Courier New" font-size="9.00" fill="#ffffff">(Standby drive motor starts up)</text>
</g>
<!-- rw_check&#45;&gt;wakeup_spindown -->
<g id="edge5" class="edge">
<title>rw_check&#45;&gt;wakeup_spindown</title>
<path fill="none" stroke="#00ff88" stroke-width="1.5" stroke-dasharray="5,2" d="M204.17,-257.9C215.72,-246.5 229.25,-230.45 235.5,-213 242.02,-194.82 240.06,-120.39 231.5,-96 227.94,-85.85 221.82,-75.95 215.47,-67.46"/>
<polygon fill="#00ff88" stroke="#00ff88" stroke-width="1.5" points="218.09,-65.13 209.13,-59.47 212.61,-69.48 218.09,-65.13"/>
<text text-anchor="middle" x="330" y="-152.6" font-family="Courier New" font-size="8.00" fill="#ff00cc">No (Ro unmount &#45; metadata already clean)</text>
</g>
<!-- write_sb -->
<g id="node4" class="node">
<title>write_sb</title>
<polygon fill="#161925" stroke="#00d2ff" stroke-width="2" points="223,-132 38,-132 38,-96 223,-96 223,-132"/>
<text text-anchor="middle" x="130.5" y="-116.8" font-family="Courier New" font-size="9.00" fill="#ffffff">Update Ext4 Superblock</text>
<text text-anchor="middle" x="130.5" y="-106.8" font-family="Courier New" font-size="9.00" fill="#ffffff">Clear EXT4_VALID_FS (dirty) flag</text>
</g>
<!-- flush_journal&#45;&gt;write_sb -->
<g id="edge3" class="edge">
<title>flush_journal&#45;&gt;write_sb</title>
<path fill="none" stroke="#ff00cc" stroke-width="1.5" d="M117.19,-176.86C119.37,-166.71 122.19,-153.63 124.66,-142.12"/>
<polygon fill="#ff00cc" stroke="#ff00cc" stroke-width="1.5" points="128.14,-142.62 126.82,-132.11 121.29,-141.15 128.14,-142.62"/>
</g>
<!-- write_sb&#45;&gt;wakeup_spindown -->
<g id="edge4" class="edge">
<title>write_sb&#45;&gt;wakeup_spindown</title>
<path fill="none" stroke="#ff00cc" stroke-width="1.5" d="M145.51,-95.81C153.12,-87.09 162.51,-76.34 170.89,-66.75"/>
<polygon fill="#ff00cc" stroke="#ff00cc" stroke-width="1.5" points="173.69,-68.86 177.63,-59.03 168.42,-64.26 173.69,-68.86"/>
</g>
</g>
</svg>
