<?xml version="1.0" encoding="UTF-8" standalone="no"?>
<!DOCTYPE svg PUBLIC "-//W3C//DTD SVG 1.1//EN"
 "http://www.w3.org/Graphics/SVG/1.1/DTD/svg11.dtd">
<!-- Generated by graphviz version 2.43.0 (0)
 -->
<!-- Title: G Pages: 1 -->
<svg width="372pt" height="405pt"
 viewBox="0.00 0.00 371.60 404.60" xmlns="http://www.w3.org/2000/svg" xmlns:xlink="http://www.w3.org/1999/xlink">
<g id="graph0" class="graph" transform="scale(1 1) rotate(0) translate(28.8 375.8)">
<title>G</title>
<polygon fill="#0d0e15" stroke="transparent" points="-28.8,28.8 -28.8,-375.8 342.8,-375.8 342.8,28.8 -28.8,28.8"/>
<text text-anchor="middle" x="157" y="-7.8" font-family="Courier New" font-size="14.00" fill="#00ffcc">18. FSCK DEPENDENCY FAILURE SEQUENCE</text>
<!-- boot_init -->
<g id="node1" class="node">
<title>boot_init</title>
<polygon fill="#11241a" stroke="#00ff88" stroke-width="2" points="239,-347 75,-347 75,-311 239,-311 239,-347"/>
<text text-anchor="middle" x="157" y="-326.8" font-family="Courier New" font-size="9.00" fill="#ffffff">System Boot Sequence Started</text>
</g>
<!-- fsck_check -->
<g id="node2" class="node">
<title>fsck_check</title>
<polygon fill="#161925" stroke="#00d2ff" stroke-width="2" points="260,-275 54,-275 54,-239 260,-239 260,-275"/>
<text text-anchor="middle" x="157" y="-254.8" font-family="Courier New" font-size="9.00" fill="#ffffff">systemd&#45;fsck runs on storage devices</text>
</g>
<!-- boot_init&#45;&gt;fsck_check -->
<g id="edge1" class="edge">
<title>boot_init&#45;&gt;fsck_check</title>
<path fill="none" stroke="#ff00cc" stroke-width="1.5" d="M157,-310.7C157,-302.98 157,-293.71 157,-285.11"/>
<polygon fill="#ff00cc" stroke="#ff00cc" stroke-width="1.5" points="160.5,-285.1 157,-275.1 153.5,-285.1 160.5,-285.1"/>
</g>
<!-- fsck_failed -->
<g id="node3" class="node">
<title>fsck_failed</title>
<polygon fill="#2d161a" stroke="#ff5252" stroke-width="2" points="241.5,-203 72.5,-203 72.5,-167 241.5,-167 241.5,-203"/>
<text text-anchor="middle" x="157" y="-187.8" font-family="Courier New" font-size="9.00" fill="#ffffff">fsck fails with exit status 4</text>
<text text-anchor="middle" x="157" y="-177.8" font-family="Courier New" font-size="9.00" fill="#ffffff">(Filesystem errors detected)</text>
</g>
<!-- fsck_check&#45;&gt;fsck_failed -->
<g id="edge2" class="edge">
<title>fsck_check&#45;&gt;fsck_failed</title>
<path fill="none" stroke="#ff00cc" stroke-width="1.5" d="M157,-238.7C157,-230.98 157,-221.71 157,-213.11"/>
<polygon fill="#ff00cc" stroke="#ff00cc" stroke-width="1.5" points="160.5,-213.1 157,-203.1 153.5,-213.1 160.5,-213.1"/>
</g>
<!-- mount_dep -->
<g id="node4" class="node">
<title>mount_dep</title>
<polygon fill="#2d161a" stroke="#ff5252" stroke-width="2" points="249.5,-131 64.5,-131 64.5,-95 249.5,-95 249.5,-131"/>
<text text-anchor="middle" x="157" y="-115.8" font-family="Courier New" font-size="9.00" fill="#ffffff">Dependency failed for mountpoint</text>
<text text-anchor="middle" x="157" y="-105.8" font-family="Courier New" font-size="9.00" fill="#ffffff">(e.g., /mnt/nvme_staging)</text>
</g>
<!-- fsck_failed&#45;&gt;mount_dep -->
<g id="edge3" class="edge">
<title>fsck_failed&#45;&gt;mount_dep</title>
<path fill="none" stroke="#ff00cc" stroke-width="1.5" d="M157,-166.7C157,-158.98 157,-149.71 157,-141.11"/>
<polygon fill="#ff00cc" stroke="#ff00cc" stroke-width="1.5" points="160.5,-141.1 157,-131.1 153.5,-141.1 160.5,-141.1"/>
</g>
<!-- abort_job -->
<g id="node5" class="node">
<title>abort_job</title>
<polygon fill="#2d161a" stroke="#ff5252" stroke-width="2" points="254.5,-59 59.5,-59 59.5,-23 254.5,-23 254.5,-59"/>
<text text-anchor="middle" x="157" y="-38.8" font-family="Courier New" font-size="9.00" fill="#ffffff">systemd aborts start job for mount</text>
</g>
<!-- mount_dep&#45;&gt;abort_job -->
<g id="edge4" class="edge">
<title>mount_dep&#45;&gt;abort_job</title>
<path fill="none" stroke="#ff00cc" stroke-width="1.5" d="M157,-94.7C157,-86.98 157,-77.71 157,-69.11"/>
<polygon fill="#ff00cc" stroke="#ff00cc" stroke-width="1.5" points="160.5,-69.1 157,-59.1 153.5,-69.1 160.5,-69.1"/>
</g>
</g>
</svg>
