<?xml version="1.0" encoding="UTF-8" standalone="no"?>
<!DOCTYPE svg PUBLIC "-//W3C//DTD SVG 1.1//EN"
 "http://www.w3.org/Graphics/SVG/1.1/DTD/svg11.dtd">
<!-- Generated by graphviz version 2.43.0 (0)
 -->
<!-- Title: G Pages: 1 -->
<svg width="413pt" height="405pt"
 viewBox="0.00 0.00 412.60 404.60" xmlns="http://www.w3.org/2000/svg" xmlns:xlink="http://www.w3.org/1999/xlink">
<g id="graph0" class="graph" transform="scale(1 1) rotate(0) translate(28.8 375.8)">
<title>G</title>
<polygon fill="#0d0e15" stroke="transparent" points="-28.8,28.8 -28.8,-375.8 383.8,-375.8 383.8,28.8 -28.8,28.8"/>
<text text-anchor="middle" x="177.5" y="-7.8" font-family="Courier New" font-size="14.00" fill="#00ffcc">21. GIT REPOSITORY OBJECT REPAIR PIPELINE</text>
<!-- corrupt_state -->
<g id="node1" class="node">
<title>corrupt_state</title>
<polygon fill="#2d161a" stroke="#ff5252" stroke-width="2" points="275,-347 80,-347 80,-311 275,-311 275,-347"/>
<text text-anchor="middle" x="177.5" y="-326.8" font-family="Courier New" font-size="9.00" fill="#ffffff">Missing blob detected in git index</text>
</g>
<!-- stash -->
<g id="node2" class="node">
<title>stash</title>
<polygon fill="#161925" stroke="#00d2ff" stroke-width="2" points="272.5,-275 82.5,-275 82.5,-239 272.5,-239 272.5,-275"/>
<text text-anchor="middle" x="177.5" y="-259.8" font-family="Courier New" font-size="9.00" fill="#ffffff">git stash push</text>
<text text-anchor="middle" x="177.5" y="-249.8" font-family="Courier New" font-size="9.00" fill="#ffffff">(Saves current workspace changes)</text>
</g>
<!-- corrupt_state&#45;&gt;stash -->
<g id="edge1" class="edge">
<title>corrupt_state&#45;&gt;stash</title>
<path fill="none" stroke="#ff00cc" stroke-width="1.5" d="M177.5,-310.7C177.5,-302.98 177.5,-293.71 177.5,-285.11"/>
<polygon fill="#ff00cc" stroke="#ff00cc" stroke-width="1.5" points="181,-285.1 177.5,-275.1 174,-285.1 181,-285.1"/>
</g>
<!-- filter_branch -->
<g id="node3" class="node">
<title>filter_branch</title>
<polygon fill="#2b1426" stroke="#ff00cc" stroke-width="2" points="301.5,-203 53.5,-203 53.5,-167 301.5,-167 301.5,-203"/>
<text text-anchor="middle" x="177.5" y="-187.8" font-family="Courier New" font-size="9.00" fill="#ffffff">git filter&#45;branch &#45;&#45;force &#45;&#45;index&#45;filter ...</text>
<text text-anchor="middle" x="177.5" y="-177.8" font-family="Courier New" font-size="9.00" fill="#ffffff">(Wipes corrupted file from history)</text>
</g>
<!-- stash&#45;&gt;filter_branch -->
<g id="edge2" class="edge">
<title>stash&#45;&gt;filter_branch</title>
<path fill="none" stroke="#ff00cc" stroke-width="1.5" d="M177.5,-238.7C177.5,-230.98 177.5,-221.71 177.5,-213.11"/>
<polygon fill="#ff00cc" stroke="#ff00cc" stroke-width="1.5" points="181,-213.1 177.5,-203.1 174,-213.1 181,-213.1"/>
</g>
<!-- expire_reflogs -->
<g id="node4" class="node">
<title>expire_reflogs</title>
<polygon fill="#161925" stroke="#00d2ff" stroke-width="2" points="280.5,-131 74.5,-131 74.5,-95 280.5,-95 280.5,-131"/>
<text text-anchor="middle" x="177.5" y="-110.8" font-family="Courier New" font-size="9.00" fill="#ffffff">git reflog expire &#45;&#45;expire=now &#45;&#45;all</text>
</g>
<!-- filter_branch&#45;&gt;expire_reflogs -->
<g id="edge3" class="edge">
<title>filter_branch&#45;&gt;expire_reflogs</title>
<path fill="none" stroke="#ff00cc" stroke-width="1.5" d="M177.5,-166.7C177.5,-158.98 177.5,-149.71 177.5,-141.11"/>
<polygon fill="#ff00cc" stroke="#ff00cc" stroke-width="1.5" points="181,-141.1 177.5,-131.1 174,-141.1 181,-141.1"/>
</g>
<!-- repack_prune -->
<g id="node5" class="node">
<title>repack_prune</title>
<polygon fill="#11241a" stroke="#00ff88" stroke-width="2" points="267,-59 88,-59 88,-23 267,-23 267,-59"/>
<text text-anchor="middle" x="177.5" y="-43.8" font-family="Courier New" font-size="9.00" fill="#ffffff">git gc &#45;&#45;prune=now &#45;&#45;aggressive</text>
<text text-anchor="middle" x="177.5" y="-33.8" font-family="Courier New" font-size="9.00" fill="#ffffff">(Prunes orphan object blobs)</text>
</g>
<!-- expire_reflogs&#45;&gt;repack_prune -->
<g id="edge4" class="edge">
<title>expire_reflogs&#45;&gt;repack_prune</title>
<path fill="none" stroke="#ff00cc" stroke-width="1.5" d="M177.5,-94.7C177.5,-86.98 177.5,-77.71 177.5,-69.11"/>
<polygon fill="#ff00cc" stroke="#ff00cc" stroke-width="1.5" points="181,-69.1 177.5,-59.1 174,-69.1 181,-69.1"/>
</g>
</g>
</svg>
