<?xml version="1.0" encoding="UTF-8" standalone="no"?>
<!DOCTYPE svg PUBLIC "-//W3C//DTD SVG 1.1//EN"
 "http://www.w3.org/Graphics/SVG/1.1/DTD/svg11.dtd">
<!-- Generated by graphviz version 2.43.0 (0)
 -->
<!-- Title: G Pages: 1 -->
<svg width="634pt" height="198pt"
 viewBox="0.00 0.00 633.60 197.60" xmlns="http://www.w3.org/2000/svg" xmlns:xlink="http://www.w3.org/1999/xlink">
<g id="graph0" class="graph" transform="scale(1 1) rotate(0) translate(28.8 168.8)">
<title>G</title>
<polygon fill="#0d0e15" stroke="transparent" points="-28.8,28.8 -28.8,-168.8 604.8,-168.8 604.8,28.8 -28.8,28.8"/>
<text text-anchor="middle" x="288" y="-7.8" font-family="Courier New" font-size="14.00" fill="#00ffcc">22. GIT REPO NESTED WORKSPACE DRIFT</text>
<!-- parent_repo -->
<g id="node1" class="node">
<title>parent_repo</title>
<polygon fill="#11241a" stroke="#00ff88" stroke-width="2" points="356.5,-140 245.5,-140 245.5,-104 356.5,-104 356.5,-140"/>
<text text-anchor="middle" x="301" y="-124.8" font-family="Courier New" font-size="9.00" fill="#ffffff">Parent Repository</text>
<text text-anchor="middle" x="301" y="-114.8" font-family="Courier New" font-size="9.00" fill="#ffffff">(hybrid&#45;framework)</text>
</g>
<!-- hermes -->
<g id="node2" class="node">
<title>hermes</title>
<polygon fill="#242411" stroke="#ffff00" stroke-width="2" points="190,-59 0,-59 0,-23 190,-23 190,-59"/>
<text text-anchor="middle" x="95" y="-43.8" font-family="Courier New" font-size="9.00" fill="#ffffff">hermes&#45;agent&#45;wizard sub&#45;workspace</text>
<text text-anchor="middle" x="95" y="-33.8" font-family="Courier New" font-size="9.00" fill="#ffffff">(Contains uncommitted code)</text>
</g>
<!-- parent_repo&#45;&gt;hermes -->
<g id="edge1" class="edge">
<title>parent_repo&#45;&gt;hermes</title>
<path fill="none" stroke="#ff00cc" stroke-width="1.5" d="M247.52,-103.94C231.2,-98.49 213.28,-92.24 197,-86 178.77,-79.01 159,-70.67 141.77,-63.14"/>
<polygon fill="#ff00cc" stroke="#ff00cc" stroke-width="1.5" points="143.04,-59.87 132.48,-59.05 140.22,-66.28 143.04,-59.87"/>
<text text-anchor="middle" x="247" y="-79.6" font-family="Courier New" font-size="8.00" fill="#ff00cc">Tracks submodule state</text>
</g>
<!-- iron_cross -->
<g id="node3" class="node">
<title>iron_cross</title>
<polygon fill="#242411" stroke="#ffff00" stroke-width="2" points="393.5,-59 208.5,-59 208.5,-23 393.5,-23 393.5,-59"/>
<text text-anchor="middle" x="301" y="-43.8" font-family="Courier New" font-size="9.00" fill="#ffffff">iron&#45;cross&#45;anomaly sub&#45;workspace</text>
<text text-anchor="middle" x="301" y="-33.8" font-family="Courier New" font-size="9.00" fill="#ffffff">(Has modified files)</text>
</g>
<!-- parent_repo&#45;&gt;iron_cross -->
<g id="edge2" class="edge">
<title>parent_repo&#45;&gt;iron_cross</title>
<path fill="none" stroke="#ff00cc" stroke-width="1.5" d="M301,-103.86C301,-93.71 301,-80.63 301,-69.12"/>
<polygon fill="#ff00cc" stroke="#ff00cc" stroke-width="1.5" points="304.5,-69.11 301,-59.11 297.5,-69.11 304.5,-69.11"/>
<text text-anchor="middle" x="351" y="-79.6" font-family="Courier New" font-size="8.00" fill="#ff00cc">Tracks submodule state</text>
</g>
<!-- netdata -->
<g id="node4" class="node">
<title>netdata</title>
<polygon fill="#242411" stroke="#ffff00" stroke-width="2" points="576,-59 412,-59 412,-23 576,-23 576,-59"/>
<text text-anchor="middle" x="494" y="-43.8" font-family="Courier New" font-size="9.00" fill="#ffffff">netdata&#45;switch sub&#45;workspace</text>
<text text-anchor="middle" x="494" y="-33.8" font-family="Courier New" font-size="9.00" fill="#ffffff">(Has untracked content)</text>
</g>
<!-- parent_repo&#45;&gt;netdata -->
<g id="edge3" class="edge">
<title>parent_repo&#45;&gt;netdata</title>
<path fill="none" stroke="#ff00cc" stroke-width="1.5" d="M356.29,-103.93C372.18,-98.61 389.42,-92.44 405,-86 420.96,-79.4 438.06,-71.23 452.97,-63.72"/>
<polygon fill="#ff00cc" stroke="#ff00cc" stroke-width="1.5" points="454.61,-66.81 461.93,-59.16 451.43,-60.58 454.61,-66.81"/>
<text text-anchor="middle" x="474" y="-79.6" font-family="Courier New" font-size="8.00" fill="#ff00cc">Tracks submodule state</text>
</g>
</g>
</svg>
