<?xml version="1.0" encoding="UTF-8" standalone="no"?>
<!DOCTYPE svg PUBLIC "-//W3C//DTD SVG 1.1//EN"
 "http://www.w3.org/Graphics/SVG/1.1/DTD/svg11.dtd">
<!-- Generated by graphviz version 2.43.0 (0)
 -->
<!-- Title: G Pages: 1 -->
<svg width="471pt" height="407pt"
 viewBox="0.00 0.00 470.60 406.60" xmlns="http://www.w3.org/2000/svg" xmlns:xlink="http://www.w3.org/1999/xlink">
<g id="graph0" class="graph" transform="scale(1 1) rotate(0) translate(28.8 377.8)">
<title>G</title>
<polygon fill="#0d0e15" stroke="transparent" points="-28.8,28.8 -28.8,-377.8 441.8,-377.8 441.8,28.8 -28.8,28.8"/>
<text text-anchor="middle" x="206.5" y="-7.8" font-family="Courier New" font-size="14.00" fill="#00ffcc">23. MASKED NM&#45;DISPATCHER FAILURE DURING SHUTDOWN</text>
<!-- nm_stop -->
<g id="node1" class="node">
<title>nm_stop</title>
<polygon fill="#11241a" stroke="#00ff88" stroke-width="2" points="296,-349 117,-349 117,-313 296,-313 296,-349"/>
<text text-anchor="middle" x="206.5" y="-328.8" font-family="Courier New" font-size="9.00" fill="#ffffff">NetworkManager receives SIGTERM</text>
</g>
<!-- trigger_disp -->
<g id="node2" class="node">
<title>trigger_disp</title>
<polygon fill="#161925" stroke="#00d2ff" stroke-width="2" points="322.5,-277 90.5,-277 90.5,-241 322.5,-241 322.5,-277"/>
<text text-anchor="middle" x="206.5" y="-256.8" font-family="Courier New" font-size="9.00" fill="#ffffff">Attempts to trigger network event scripts</text>
</g>
<!-- nm_stop&#45;&gt;trigger_disp -->
<g id="edge1" class="edge">
<title>nm_stop&#45;&gt;trigger_disp</title>
<path fill="none" stroke="#ff00cc" stroke-width="1.5" d="M206.5,-312.7C206.5,-304.98 206.5,-295.71 206.5,-287.11"/>
<polygon fill="#ff00cc" stroke="#ff00cc" stroke-width="1.5" points="210,-287.1 206.5,-277.1 203,-287.1 210,-287.1"/>
</g>
<!-- dbus_req -->
<g id="node3" class="node">
<title>dbus_req</title>
<polygon fill="#161925" stroke="#00d2ff" stroke-width="2" points="325,-205 88,-205 88,-169 325,-169 325,-205"/>
<text text-anchor="middle" x="206.5" y="-189.8" font-family="Courier New" font-size="9.00" fill="#ffffff">D&#45;Bus activation request sent for</text>
<text text-anchor="middle" x="206.5" y="-179.8" font-family="Courier New" font-size="9.00" fill="#ffffff">dbus&#45;org.freedesktop.nm&#45;dispatcher.service</text>
</g>
<!-- trigger_disp&#45;&gt;dbus_req -->
<g id="edge2" class="edge">
<title>trigger_disp&#45;&gt;dbus_req</title>
<path fill="none" stroke="#ff00cc" stroke-width="1.5" d="M206.5,-240.7C206.5,-232.98 206.5,-223.71 206.5,-215.11"/>
<polygon fill="#ff00cc" stroke="#ff00cc" stroke-width="1.5" points="210,-215.1 206.5,-205.1 203,-215.1 210,-215.1"/>
</g>
<!-- mask_check -->
<g id="node4" class="node">
<title>mask_check</title>
<polygon fill="#161925" stroke="#00d2ff" stroke-width="2" points="314.5,-133 98.5,-133 98.5,-97 314.5,-97 314.5,-133"/>
<text text-anchor="middle" x="206.5" y="-112.8" font-family="Courier New" font-size="9.00" fill="#ffffff">D&#45;Bus Daemon checks systemd unit state</text>
</g>
<!-- dbus_req&#45;&gt;mask_check -->
<g id="edge3" class="edge">
<title>dbus_req&#45;&gt;mask_check</title>
<path fill="none" stroke="#ff00cc" stroke-width="1.5" d="M206.5,-168.7C206.5,-160.98 206.5,-151.71 206.5,-143.11"/>
<polygon fill="#ff00cc" stroke="#ff00cc" stroke-width="1.5" points="210,-143.1 206.5,-133.1 203,-143.1 210,-143.1"/>
</g>
<!-- warn_log -->
<g id="node5" class="node">
<title>warn_log</title>
<polygon fill="#2d161a" stroke="#ff5252" stroke-width="2" points="301.5,-61 111.5,-61 111.5,-23 301.5,-23 301.5,-61"/>
<text text-anchor="middle" x="206.5" y="-49.8" font-family="Courier New" font-size="9.00" fill="#ffffff">Warning Logged:</text>
<text text-anchor="middle" x="206.5" y="-39.8" font-family="Courier New" font-size="9.00" fill="#ffffff">&#39;nm&#45;dispatcher.service is masked&#39;</text>
<text text-anchor="middle" x="206.5" y="-29.8" font-family="Courier New" font-size="9.00" fill="#ffffff">Activation Fails</text>
</g>
<!-- mask_check&#45;&gt;warn_log -->
<g id="edge4" class="edge">
<title>mask_check&#45;&gt;warn_log</title>
<path fill="none" stroke="#ff00cc" stroke-width="1.5" d="M206.5,-96.81C206.5,-89.11 206.5,-79.82 206.5,-71.15"/>
<polygon fill="#ff00cc" stroke="#ff00cc" stroke-width="1.5" points="210,-71.02 206.5,-61.02 203,-71.02 210,-71.02"/>
</g>
</g>
</svg>
