<?xml version="1.0" encoding="UTF-8" standalone="no"?>
<!DOCTYPE svg PUBLIC "-//W3C//DTD SVG 1.1//EN"
 "http://www.w3.org/Graphics/SVG/1.1/DTD/svg11.dtd">
<!-- Generated by graphviz version 2.43.0 (0)
 -->
<!-- Title: G Pages: 1 -->
<svg width="462pt" height="477pt"
 viewBox="0.00 0.00 461.60 476.60" xmlns="http://www.w3.org/2000/svg" xmlns:xlink="http://www.w3.org/1999/xlink">
<g id="graph0" class="graph" transform="scale(1 1) rotate(0) translate(28.8 447.8)">
<title>G</title>
<polygon fill="#0d0e15" stroke="transparent" points="-28.8,28.8 -28.8,-447.8 432.8,-447.8 432.8,28.8 -28.8,28.8"/>
<text text-anchor="middle" x="202" y="-7.8" font-family="Courier New" font-size="14.00" fill="#00ffcc">25. END&#45;TO&#45;END FUTURE AUTOMATED BACKUP SEQUENCE</text>
<!-- cron_start -->
<g id="node1" class="node">
<title>cron_start</title>
<polygon fill="#11241a" stroke="#00ff88" stroke-width="2" points="310,-419 94,-419 94,-383 310,-383 310,-419"/>
<text text-anchor="middle" x="202" y="-398.8" font-family="Courier New" font-size="9.00" fill="#ffffff">Cron scheduler executes backup wrapper</text>
</g>
<!-- remount_rw -->
<g id="node2" class="node">
<title>remount_rw</title>
<polygon fill="#242411" stroke="#ffff00" stroke-width="2" points="297,-347 107,-347 107,-311 297,-311 297,-347"/>
<text text-anchor="middle" x="202" y="-326.8" font-family="Courier New" font-size="9.00" fill="#ffffff">quiescent_mountd remounts disk rw</text>
</g>
<!-- cron_start&#45;&gt;remount_rw -->
<g id="edge1" class="edge">
<title>cron_start&#45;&gt;remount_rw</title>
<path fill="none" stroke="#ff00cc" stroke-width="1.5" d="M202,-382.7C202,-374.98 202,-365.71 202,-357.11"/>
<polygon fill="#ff00cc" stroke="#ff00cc" stroke-width="1.5" points="205.5,-357.1 202,-347.1 198.5,-357.1 205.5,-357.1"/>
</g>
<!-- backup_sync -->
<g id="node3" class="node">
<title>backup_sync</title>
<polygon fill="#161925" stroke="#00d2ff" stroke-width="2" points="281,-275 123,-275 123,-239 281,-239 281,-275"/>
<text text-anchor="middle" x="202" y="-254.8" font-family="Courier New" font-size="9.00" fill="#ffffff">rsync syncs workspace files</text>
</g>
<!-- remount_rw&#45;&gt;backup_sync -->
<g id="edge2" class="edge">
<title>remount_rw&#45;&gt;backup_sync</title>
<path fill="none" stroke="#ff00cc" stroke-width="1.5" d="M202,-310.7C202,-302.98 202,-293.71 202,-285.11"/>
<polygon fill="#ff00cc" stroke="#ff00cc" stroke-width="1.5" points="205.5,-285.1 202,-275.1 198.5,-285.1 205.5,-285.1"/>
</g>
<!-- flush_cache -->
<g id="node4" class="node">
<title>flush_cache</title>
<polygon fill="#161925" stroke="#00d2ff" stroke-width="2" points="265.5,-203 138.5,-203 138.5,-167 265.5,-167 265.5,-203"/>
<text text-anchor="middle" x="202" y="-182.8" font-family="Courier New" font-size="9.00" fill="#ffffff">sync command executed</text>
</g>
<!-- backup_sync&#45;&gt;flush_cache -->
<g id="edge3" class="edge">
<title>backup_sync&#45;&gt;flush_cache</title>
<path fill="none" stroke="#ff00cc" stroke-width="1.5" d="M202,-238.7C202,-230.98 202,-221.71 202,-213.11"/>
<polygon fill="#ff00cc" stroke="#ff00cc" stroke-width="1.5" points="205.5,-213.1 202,-203.1 198.5,-213.1 205.5,-213.1"/>
</g>
<!-- remount_ro -->
<g id="node5" class="node">
<title>remount_ro</title>
<polygon fill="#11241a" stroke="#00ff88" stroke-width="2" points="297,-131 107,-131 107,-95 297,-95 297,-131"/>
<text text-anchor="middle" x="202" y="-110.8" font-family="Courier New" font-size="9.00" fill="#ffffff">quiescent_mountd remounts disk ro</text>
</g>
<!-- flush_cache&#45;&gt;remount_ro -->
<g id="edge4" class="edge">
<title>flush_cache&#45;&gt;remount_ro</title>
<path fill="none" stroke="#ff00cc" stroke-width="1.5" d="M202,-166.7C202,-158.98 202,-149.71 202,-141.11"/>
<polygon fill="#ff00cc" stroke="#ff00cc" stroke-width="1.5" points="205.5,-141.1 202,-131.1 198.5,-141.1 205.5,-141.1"/>
</g>
<!-- standby_wait -->
<g id="node6" class="node">
<title>standby_wait</title>
<polygon fill="#11241a" stroke="#00ff88" stroke-width="2" points="333.5,-59 70.5,-59 70.5,-23 333.5,-23 333.5,-59"/>
<text text-anchor="middle" x="202" y="-38.8" font-family="Courier New" font-size="9.00" fill="#ffffff">Drive remains in standby safely during shutdown</text>
</g>
<!-- remount_ro&#45;&gt;standby_wait -->
<g id="edge5" class="edge">
<title>remount_ro&#45;&gt;standby_wait</title>
<path fill="none" stroke="#ff00cc" stroke-width="1.5" d="M202,-94.7C202,-86.98 202,-77.71 202,-69.11"/>
<polygon fill="#ff00cc" stroke="#ff00cc" stroke-width="1.5" points="205.5,-69.1 202,-59.1 198.5,-69.1 205.5,-69.1"/>
</g>
</g>
</svg>
