<?xml version="1.0" encoding="UTF-8" standalone="no"?>
<!DOCTYPE svg PUBLIC "-//W3C//DTD SVG 1.1//EN"
 "http://www.w3.org/Graphics/SVG/1.1/DTD/svg11.dtd">
<!-- Generated by graphviz version 2.43.0 (0)
 -->
<!-- Title: FutureWorkflow Pages: 1 -->
<svg width="666pt" height="802pt"
 viewBox="0.00 0.00 666.00 802.00" xmlns="http://www.w3.org/2000/svg" xmlns:xlink="http://www.w3.org/1999/xlink">
<g id="graph0" class="graph" transform="scale(1 1) rotate(0) translate(36 766)">
<title>FutureWorkflow</title>
<polygon fill="#0d0e15" stroke="transparent" points="-36,36 -36,-766 630,-766 630,36 -36,36"/>
<text text-anchor="middle" x="297" y="-711.6" font-family="Courier New" font-size="18.00" fill="#00ff88">FUTURE DIRECTIONS: AUTOMATED REMOUNT&#45;ON&#45;DEMAND &amp; BACKUP</text>
<!-- default_state -->
<g id="node1" class="node">
<title>default_state</title>
<polygon fill="#11241a" stroke="#00ff88" stroke-width="2" points="410.5,-702 152.5,-702 152.5,-664 410.5,-664 410.5,-702"/>
<text text-anchor="middle" x="281.5" y="-690.8" font-family="Courier New" font-size="9.00" fill="#ffffff">1. QUIESCENT DEFAULT STATE</text>
<text text-anchor="middle" x="281.5" y="-680.8" font-family="Courier New" font-size="9.00" fill="#ffffff">HDD Archive mounts are mounted Read&#45;Only (ro)</text>
<text text-anchor="middle" x="281.5" y="-670.8" font-family="Courier New" font-size="9.00" fill="#ffffff">Drives are parked in standby mode (motors off)</text>
</g>
<!-- timer_trigger -->
<g id="node2" class="node">
<title>timer_trigger</title>
<polygon fill="#121e28" stroke="#00d2ff" stroke-width="2" points="392,-619 171,-619 171,-581 392,-581 392,-619"/>
<text text-anchor="middle" x="281.5" y="-607.8" font-family="Courier New" font-size="9.00" fill="#ffffff">2. SYSTEMD TIMER OR CRON TRIGGER</text>
<text text-anchor="middle" x="281.5" y="-597.8" font-family="Courier New" font-size="9.00" fill="#ffffff">Scheduled backup execution window opens</text>
<text text-anchor="middle" x="281.5" y="-587.8" font-family="Courier New" font-size="9.00" fill="#ffffff">(e.g., nightly at 02:00)</text>
</g>
<!-- default_state&#45;&gt;timer_trigger -->
<g id="edge1" class="edge">
<title>default_state&#45;&gt;timer_trigger</title>
<path fill="none" stroke="#ff00cc" stroke-width="1.5" d="M281.5,-663.62C281.5,-653.5 281.5,-640.73 281.5,-629.36"/>
<polygon fill="#ff00cc" stroke="#ff00cc" stroke-width="1.5" points="285,-629.03 281.5,-619.03 278,-629.03 285,-629.03"/>
<text text-anchor="middle" x="315.5" y="-639.6" font-family="Courier New" font-size="8.00" fill="#ff00cc">Scheduler event</text>
</g>
<!-- remount_rw -->
<g id="node3" class="node">
<title>remount_rw</title>
<polygon fill="#242411" stroke="#ffff00" stroke-width="2" points="418.5,-536 144.5,-536 144.5,-498 418.5,-498 418.5,-536"/>
<text text-anchor="middle" x="281.5" y="-524.8" font-family="Courier New" font-size="9.00" fill="#ffffff">3. PRE&#45;BACKUP REMOUNT (rw)</text>
<text text-anchor="middle" x="281.5" y="-514.8" font-family="Courier New" font-size="9.00" fill="#ffffff">Remount archive partitions with write permissions</text>
<text text-anchor="middle" x="281.5" y="-504.8" font-family="Courier New" font-size="9.00" fill="#ffffff">Command: mount &#45;o remount,rw /mnt/sda1</text>
</g>
<!-- timer_trigger&#45;&gt;remount_rw -->
<g id="edge2" class="edge">
<title>timer_trigger&#45;&gt;remount_rw</title>
<path fill="none" stroke="#ff00cc" stroke-width="1.5" d="M281.5,-580.62C281.5,-570.5 281.5,-557.73 281.5,-546.36"/>
<polygon fill="#ff00cc" stroke="#ff00cc" stroke-width="1.5" points="285,-546.03 281.5,-536.03 278,-546.03 285,-546.03"/>
<text text-anchor="middle" x="324.5" y="-556.6" font-family="Courier New" font-size="8.00" fill="#ff00cc">Triggers pre&#45;script</text>
</g>
<!-- drive_spinup -->
<g id="node4" class="node">
<title>drive_spinup</title>
<polygon fill="#2d161a" stroke="#ff5252" stroke-width="2" points="408,-453 155,-453 155,-415 408,-415 408,-453"/>
<text text-anchor="middle" x="281.5" y="-441.8" font-family="Courier New" font-size="9.00" fill="#ffffff">Standby Platter Spin&#45;Up:</text>
<text text-anchor="middle" x="281.5" y="-431.8" font-family="Courier New" font-size="9.00" fill="#ffffff">Kernel wakes up drive motor</text>
<text text-anchor="middle" x="281.5" y="-421.8" font-family="Courier New" font-size="9.00" fill="#ffffff">(5–11s delay is expected and acceptable here)</text>
</g>
<!-- remount_rw&#45;&gt;drive_spinup -->
<g id="edge3" class="edge">
<title>remount_rw&#45;&gt;drive_spinup</title>
<path fill="none" stroke="#ff00cc" stroke-width="1.5" d="M281.5,-497.62C281.5,-487.5 281.5,-474.73 281.5,-463.36"/>
<polygon fill="#ff00cc" stroke="#ff00cc" stroke-width="1.5" points="285,-463.03 281.5,-453.03 278,-463.03 285,-463.03"/>
<text text-anchor="middle" x="363" y="-473.6" font-family="Courier New" font-size="8.00" fill="#ff00cc">Disk write requested by mount change</text>
</g>
<!-- backup_run -->
<g id="node5" class="node">
<title>backup_run</title>
<polygon fill="#121e28" stroke="#00d2ff" stroke-width="2" points="421,-370 142,-370 142,-332 421,-332 421,-370"/>
<text text-anchor="middle" x="281.5" y="-358.8" font-family="Courier New" font-size="9.00" fill="#ffffff">4. BACKUP EXECUTION</text>
<text text-anchor="middle" x="281.5" y="-348.8" font-family="Courier New" font-size="9.00" fill="#ffffff">Data copied/synchronized to target partitions</text>
<text text-anchor="middle" x="281.5" y="-338.8" font-family="Courier New" font-size="9.00" fill="#ffffff">Command: rsync &#45;aHAXx &#45;&#45;delete /source/ /mnt/sda1/</text>
</g>
<!-- drive_spinup&#45;&gt;backup_run -->
<g id="edge4" class="edge">
<title>drive_spinup&#45;&gt;backup_run</title>
<path fill="none" stroke="#ff00cc" stroke-width="1.5" d="M281.5,-414.62C281.5,-404.5 281.5,-391.73 281.5,-380.36"/>
<polygon fill="#ff00cc" stroke="#ff00cc" stroke-width="1.5" points="285,-380.03 281.5,-370.03 278,-380.03 285,-380.03"/>
<text text-anchor="middle" x="329" y="-390.6" font-family="Courier New" font-size="8.00" fill="#ff00cc">Drive is active/ready</text>
</g>
<!-- sync_flush -->
<g id="node6" class="node">
<title>sync_flush</title>
<polygon fill="#2b1426" stroke="#ff00cc" stroke-width="2" points="418.5,-287 144.5,-287 144.5,-249 418.5,-249 418.5,-287"/>
<text text-anchor="middle" x="281.5" y="-275.8" font-family="Courier New" font-size="9.00" fill="#ffffff">5. DATA BUFFER SYNC</text>
<text text-anchor="middle" x="281.5" y="-265.8" font-family="Courier New" font-size="9.00" fill="#ffffff">Flush unwritten buffers and finalize ext4 journal</text>
<text text-anchor="middle" x="281.5" y="-255.8" font-family="Courier New" font-size="9.00" fill="#ffffff">Command: sync</text>
</g>
<!-- backup_run&#45;&gt;sync_flush -->
<g id="edge5" class="edge">
<title>backup_run&#45;&gt;sync_flush</title>
<path fill="none" stroke="#ff00cc" stroke-width="1.5" d="M281.5,-331.62C281.5,-321.5 281.5,-308.73 281.5,-297.36"/>
<polygon fill="#ff00cc" stroke="#ff00cc" stroke-width="1.5" points="285,-297.03 281.5,-287.03 278,-297.03 285,-297.03"/>
<text text-anchor="middle" x="345" y="-307.6" font-family="Courier New" font-size="8.00" fill="#ff00cc">Backup finishes successfully</text>
</g>
<!-- remount_ro -->
<g id="node7" class="node">
<title>remount_ro</title>
<polygon fill="#11241a" stroke="#00ff88" stroke-width="2" points="413,-204 150,-204 150,-166 413,-166 413,-204"/>
<text text-anchor="middle" x="281.5" y="-192.8" font-family="Courier New" font-size="9.00" fill="#ffffff">6. POST&#45;BACKUP REMOUNT (ro)</text>
<text text-anchor="middle" x="281.5" y="-182.8" font-family="Courier New" font-size="9.00" fill="#ffffff">Remount partition to read&#45;only mode immediately</text>
<text text-anchor="middle" x="281.5" y="-172.8" font-family="Courier New" font-size="9.00" fill="#ffffff">Command: mount &#45;o remount,ro /mnt/sda1</text>
</g>
<!-- sync_flush&#45;&gt;remount_ro -->
<g id="edge6" class="edge">
<title>sync_flush&#45;&gt;remount_ro</title>
<path fill="none" stroke="#ff00cc" stroke-width="1.5" d="M281.5,-248.62C281.5,-238.5 281.5,-225.73 281.5,-214.36"/>
<polygon fill="#ff00cc" stroke="#ff00cc" stroke-width="1.5" points="285,-214.03 281.5,-204.03 278,-214.03 285,-214.03"/>
<text text-anchor="middle" x="327" y="-224.6" font-family="Courier New" font-size="8.00" fill="#ff00cc">Triggers post&#45;script</text>
</g>
<!-- idle_detector -->
<g id="node8" class="node">
<title>idle_detector</title>
<polygon fill="#11241a" stroke="#00ff88" stroke-width="2" points="431.5,-121 131.5,-121 131.5,-83 431.5,-83 431.5,-121"/>
<text text-anchor="middle" x="281.5" y="-109.8" font-family="Courier New" font-size="9.00" fill="#ffffff">7. IDLE STANDBY TRANSITION</text>
<text text-anchor="middle" x="281.5" y="-99.8" font-family="Courier New" font-size="9.00" fill="#ffffff">Standby timer (APM / idle&#45;disk&#45;park.sh) detects no I/O</text>
<text text-anchor="middle" x="281.5" y="-89.8" font-family="Courier New" font-size="9.00" fill="#ffffff">Platters spun down, returning drive to quiescent sleep</text>
</g>
<!-- remount_ro&#45;&gt;idle_detector -->
<g id="edge7" class="edge">
<title>remount_ro&#45;&gt;idle_detector</title>
<path fill="none" stroke="#ff00cc" stroke-width="1.5" d="M281.5,-165.62C281.5,-155.5 281.5,-142.73 281.5,-131.36"/>
<polygon fill="#ff00cc" stroke="#ff00cc" stroke-width="1.5" points="285,-131.03 281.5,-121.03 278,-131.03 285,-131.03"/>
<text text-anchor="middle" x="347" y="-141.6" font-family="Courier New" font-size="8.00" fill="#ff00cc">Idle window expires (1–5 min)</text>
</g>
<!-- sys_shutdown -->
<g id="node9" class="node">
<title>sys_shutdown</title>
<polygon fill="#11241a" stroke="#00ff88" stroke-width="2" points="400,-38 163,-38 163,0 400,0 400,-38"/>
<text text-anchor="middle" x="281.5" y="-26.8" font-family="Courier New" font-size="9.00" fill="#ffffff">8. SAFE SHUTDOWN PATH</text>
<text text-anchor="middle" x="281.5" y="-16.8" font-family="Courier New" font-size="9.00" fill="#ffffff">System can be shut down safely at any time</text>
<text text-anchor="middle" x="281.5" y="-6.8" font-family="Courier New" font-size="9.00" fill="#ffffff">Zero shutdown latency from archive drives</text>
</g>
<!-- idle_detector&#45;&gt;sys_shutdown -->
<g id="edge8" class="edge">
<title>idle_detector&#45;&gt;sys_shutdown</title>
<path fill="none" stroke="#ff00cc" stroke-width="1.5" d="M281.5,-82.62C281.5,-72.5 281.5,-59.73 281.5,-48.36"/>
<polygon fill="#ff00cc" stroke="#ff00cc" stroke-width="1.5" points="285,-48.03 281.5,-38.03 278,-48.03 285,-48.03"/>
<text text-anchor="middle" x="372" y="-58.6" font-family="Courier New" font-size="8.00" fill="#ff00cc">Drive remains in standby during poweroff</text>
</g>
</g>
</svg>
