<?xml version="1.0" encoding="UTF-8" standalone="no"?>
<!DOCTYPE svg PUBLIC "-//W3C//DTD SVG 1.1//EN"
 "http://www.w3.org/Graphics/SVG/1.1/DTD/svg11.dtd">
<!-- Generated by graphviz version 2.43.0 (0)
 -->
<!-- Title: GitCorruptionRepair Pages: 1 -->
<svg width="498pt" height="751pt"
 viewBox="0.00 0.00 498.00 751.00" xmlns="http://www.w3.org/2000/svg" xmlns:xlink="http://www.w3.org/1999/xlink">
<g id="graph0" class="graph" transform="scale(1 1) rotate(0) translate(36 715)">
<title>GitCorruptionRepair</title>
<polygon fill="#0d0e15" stroke="transparent" points="-36,36 -36,-715 462,-715 462,36 -36,36"/>
<text text-anchor="middle" x="213" y="-660.6" font-family="Courier New" font-size="18.00" fill="#ff00cc">GIT OBJECT CORRUPTION &amp; REPAIR WORKFLOW</text>
<!-- detection -->
<g id="node1" class="node">
<title>detection</title>
<polygon fill="#2e1114" stroke="#ff3838" stroke-width="2" points="313,-651 113,-651 113,-613 313,-613 313,-651"/>
<text text-anchor="middle" x="213" y="-639.8" font-family="Courier New" font-size="9.00" fill="#ffffff">1. CORRUPTION DETECTED</text>
<text text-anchor="middle" x="213" y="-629.8" font-family="Courier New" font-size="9.00" fill="#ffffff">Background git gc warnings observed</text>
<text text-anchor="middle" x="213" y="-619.8" font-family="Courier New" font-size="9.00" fill="#ffffff">Command: git fsck &#45;&#45;full</text>
</g>
<!-- corrupt_log -->
<g id="node2" class="node">
<title>corrupt_log</title>
<polygon fill="#2d161a" stroke="#ff5252" stroke-width="2" points="339.5,-568 86.5,-568 86.5,-520 339.5,-520 339.5,-568"/>
<text text-anchor="middle" x="213" y="-556.8" font-family="Courier New" font-size="9.00" fill="#ffffff">Corrupt Index State:</text>
<text text-anchor="middle" x="213" y="-546.8" font-family="Courier New" font-size="9.00" fill="#ffffff">&#45; broken link from tree 329174011f...</text>
<text text-anchor="middle" x="213" y="-536.8" font-family="Courier New" font-size="9.00" fill="#ffffff">&#45; missing blob 15ab154f72...</text>
<text text-anchor="middle" x="213" y="-526.8" font-family="Courier New" font-size="9.00" fill="#ffffff">&#45; File: CollationTest_NON_IGNORABLE_SHORT.txt</text>
</g>
<!-- detection&#45;&gt;corrupt_log -->
<g id="edge1" class="edge">
<title>detection&#45;&gt;corrupt_log</title>
<path fill="none" stroke="#00ffcc" stroke-width="1.5" d="M213,-612.76C213,-602.8 213,-590.14 213,-578.47"/>
<polygon fill="#00ffcc" stroke="#00ffcc" stroke-width="1.5" points="216.5,-578.13 213,-568.13 209.5,-578.13 216.5,-578.13"/>
<text text-anchor="middle" x="238" y="-588.6" font-family="Courier New" font-size="8.00" fill="#00ffcc">Diagnostics</text>
</g>
<!-- stash_changes -->
<g id="node3" class="node">
<title>stash_changes</title>
<polygon fill="#121e28" stroke="#00ffcc" stroke-width="2" points="352.5,-475 73.5,-475 73.5,-437 352.5,-437 352.5,-475"/>
<text text-anchor="middle" x="213" y="-463.8" font-family="Courier New" font-size="9.00" fill="#ffffff">2. STASH ACTIVE WORK</text>
<text text-anchor="middle" x="213" y="-453.8" font-family="Courier New" font-size="9.00" fill="#ffffff">Save uncommitted working tree modifications</text>
<text text-anchor="middle" x="213" y="-443.8" font-family="Courier New" font-size="9.00" fill="#ffffff">Command: git stash push &#45;m &#39;temp_stash_for_filter&#39;</text>
</g>
<!-- corrupt_log&#45;&gt;stash_changes -->
<g id="edge2" class="edge">
<title>corrupt_log&#45;&gt;stash_changes</title>
<path fill="none" stroke="#00ffcc" stroke-width="1.5" d="M213,-519.95C213,-509.32 213,-496.6 213,-485.38"/>
<polygon fill="#00ffcc" stroke="#00ffcc" stroke-width="1.5" points="216.5,-485.2 213,-475.2 209.5,-485.2 216.5,-485.2"/>
<text text-anchor="middle" x="256" y="-495.6" font-family="Courier New" font-size="8.00" fill="#00ffcc">Pre&#45;repair boundary</text>
</g>
<!-- filter_branch -->
<g id="node4" class="node">
<title>filter_branch</title>
<polygon fill="#2b1426" stroke="#ff00cc" stroke-width="2" points="415.5,-392 10.5,-392 10.5,-334 415.5,-334 415.5,-392"/>
<text text-anchor="middle" x="213" y="-380.8" font-family="Courier New" font-size="9.00" fill="#ffffff">3. PURGE HISTORICAL REFERENCE</text>
<text text-anchor="middle" x="213" y="-370.8" font-family="Courier New" font-size="9.00" fill="#ffffff">Rewrite commit history tree&#45;wide to exclude corrupted file</text>
<text text-anchor="middle" x="213" y="-360.8" font-family="Courier New" font-size="9.00" fill="#ffffff">Command: git filter&#45;branch &#45;&#45;force &#45;&#45;index&#45;filter \</text>
<text text-anchor="middle" x="213" y="-350.8" font-family="Courier New" font-size="9.00" fill="#ffffff">&#39;git rm &#45;&#45;cached &#45;&#45;ignore&#45;unmatch CollationTest_NON_IGNORABLE_SHORT.txt&#39; \</text>
<text text-anchor="middle" x="213" y="-340.8" font-family="Courier New" font-size="9.00" fill="#ffffff">&#45;&#45;prune&#45;empty &#45;&#45;tag&#45;name&#45;filter cat &#45;&#45; &#45;&#45;all</text>
</g>
<!-- stash_changes&#45;&gt;filter_branch -->
<g id="edge3" class="edge">
<title>stash_changes&#45;&gt;filter_branch</title>
<path fill="none" stroke="#00ffcc" stroke-width="1.5" d="M213,-436.58C213,-426.7 213,-414.14 213,-402.26"/>
<polygon fill="#00ffcc" stroke="#00ffcc" stroke-width="1.5" points="216.5,-402.07 213,-392.07 209.5,-402.07 216.5,-402.07"/>
<text text-anchor="middle" x="247" y="-412.6" font-family="Courier New" font-size="8.00" fill="#00ffcc">Execute rewrite</text>
</g>
<!-- reflog_expire -->
<g id="node5" class="node">
<title>reflog_expire</title>
<polygon fill="#121e28" stroke="#00ffcc" stroke-width="2" points="365.5,-289 60.5,-289 60.5,-251 365.5,-251 365.5,-289"/>
<text text-anchor="middle" x="213" y="-277.8" font-family="Courier New" font-size="9.00" fill="#ffffff">4. EXPIRE REFLOGS</text>
<text text-anchor="middle" x="213" y="-267.8" font-family="Courier New" font-size="9.00" fill="#ffffff">Instantly expire history reference log pointer archives</text>
<text text-anchor="middle" x="213" y="-257.8" font-family="Courier New" font-size="9.00" fill="#ffffff">Command: git reflog expire &#45;&#45;expire=now &#45;&#45;all</text>
</g>
<!-- filter_branch&#45;&gt;reflog_expire -->
<g id="edge4" class="edge">
<title>filter_branch&#45;&gt;reflog_expire</title>
<path fill="none" stroke="#00ffcc" stroke-width="1.5" d="M213,-333.71C213,-322.83 213,-310.41 213,-299.51"/>
<polygon fill="#00ffcc" stroke="#00ffcc" stroke-width="1.5" points="216.5,-299.23 213,-289.23 209.5,-299.23 216.5,-299.23"/>
<text text-anchor="middle" x="251.5" y="-309.6" font-family="Courier New" font-size="8.00" fill="#00ffcc">Remove cache logs</text>
</g>
<!-- git_gc -->
<g id="node6" class="node">
<title>git_gc</title>
<polygon fill="#121e28" stroke="#00ffcc" stroke-width="2" points="379,-206 47,-206 47,-168 379,-168 379,-206"/>
<text text-anchor="middle" x="213" y="-194.8" font-family="Courier New" font-size="9.00" fill="#ffffff">5. AGGRESSIVE GARBAGE COLLECTION</text>
<text text-anchor="middle" x="213" y="-184.8" font-family="Courier New" font-size="9.00" fill="#ffffff">Force instant pruning of unreferenced loose objects &amp; repack</text>
<text text-anchor="middle" x="213" y="-174.8" font-family="Courier New" font-size="9.00" fill="#ffffff">Command: git gc &#45;&#45;prune=now &#45;&#45;aggressive</text>
</g>
<!-- reflog_expire&#45;&gt;git_gc -->
<g id="edge5" class="edge">
<title>reflog_expire&#45;&gt;git_gc</title>
<path fill="none" stroke="#00ffcc" stroke-width="1.5" d="M213,-250.62C213,-240.5 213,-227.73 213,-216.36"/>
<polygon fill="#00ffcc" stroke="#00ffcc" stroke-width="1.5" points="216.5,-216.03 213,-206.03 209.5,-216.03 216.5,-216.03"/>
<text text-anchor="middle" x="256" y="-226.6" font-family="Courier New" font-size="8.00" fill="#00ffcc">Purge loose objects</text>
</g>
<!-- git_verify -->
<g id="node7" class="node">
<title>git_verify</title>
<polygon fill="#11241a" stroke="#00ff88" stroke-width="2" points="363,-131 63,-131 63,-93 363,-93 363,-131"/>
<text text-anchor="middle" x="213" y="-119.8" font-family="Courier New" font-size="9.00" fill="#ffffff">6. REPOSITORY INTEGRITY VALIDATED</text>
<text text-anchor="middle" x="213" y="-109.8" font-family="Courier New" font-size="9.00" fill="#ffffff">Run consistency checks on index objects &amp; commit graph</text>
<text text-anchor="middle" x="213" y="-99.8" font-family="Courier New" font-size="9.00" fill="#ffffff">Command: git fsck</text>
</g>
<!-- git_gc&#45;&gt;git_verify -->
<g id="edge6" class="edge">
<title>git_gc&#45;&gt;git_verify</title>
<path fill="none" stroke="#00ffcc" stroke-width="1.5" d="M213,-167.96C213,-159.88 213,-150.18 213,-141.18"/>
<polygon fill="#00ffcc" stroke="#00ffcc" stroke-width="1.5" points="216.5,-141.09 213,-131.09 209.5,-141.09 216.5,-141.09"/>
</g>
<!-- clean_status -->
<g id="node8" class="node">
<title>clean_status</title>
<polygon fill="#11241a" stroke="#00ff88" stroke-width="2" points="339.5,-48 86.5,-48 86.5,0 339.5,0 339.5,-48"/>
<text text-anchor="middle" x="213" y="-36.8" font-family="Courier New" font-size="9.00" fill="#ffffff">Clean Index State:</text>
<text text-anchor="middle" x="213" y="-26.8" font-family="Courier New" font-size="9.00" fill="#ffffff">&#45; Checking object directories: 100% (256/256)</text>
<text text-anchor="middle" x="213" y="-16.8" font-family="Courier New" font-size="9.00" fill="#ffffff">&#45; Checking objects: 100% (1287/1287)</text>
<text text-anchor="middle" x="213" y="-6.8" font-family="Courier New" font-size="9.00" fill="#ffffff">&#45; Verifying commits: 100% (72/72)</text>
</g>
<!-- git_verify&#45;&gt;clean_status -->
<g id="edge7" class="edge">
<title>git_verify&#45;&gt;clean_status</title>
<path fill="none" stroke="#00ffcc" stroke-width="1.5" d="M213,-92.76C213,-82.8 213,-70.14 213,-58.47"/>
<polygon fill="#00ffcc" stroke="#00ffcc" stroke-width="1.5" points="216.5,-58.13 213,-48.13 209.5,-58.13 216.5,-58.13"/>
<text text-anchor="middle" x="272" y="-68.6" font-family="Courier New" font-size="8.00" fill="#00ffcc">Verification reports clean</text>
</g>
</g>
</svg>
