<?xml version="1.0" encoding="UTF-8" standalone="no"?>
<!DOCTYPE svg PUBLIC "-//W3C//DTD SVG 1.1//EN"
 "http://www.w3.org/Graphics/SVG/1.1/DTD/svg11.dtd">
<!-- Generated by graphviz version 2.43.0 (0)
 -->
<!-- Title: HDDStandbyLifecycle Pages: 1 -->
<svg width="1426pt" height="892pt"
 viewBox="0.00 0.00 1425.50 892.00" xmlns="http://www.w3.org/2000/svg" xmlns:xlink="http://www.w3.org/1999/xlink">
<g id="graph0" class="graph" transform="scale(1 1) rotate(0) translate(36 856)">
<title>HDDStandbyLifecycle</title>
<polygon fill="#0d0e15" stroke="transparent" points="-36,36 -36,-856 1389.5,-856 1389.5,36 -36,36"/>
<text text-anchor="middle" x="676.75" y="-801.6" font-family="Courier New" font-size="18.00" fill="#ffff00">HDD STANDBY &amp; POWER MANAGEMENT LIFECYCLE</text>
<g id="clust1" class="cluster">
<title>cluster_standard</title>
<polygon fill="#0d0e15" stroke="#00ff88" points="8,-240.5 8,-594 676,-594 676,-240.5 8,-240.5"/>
<text text-anchor="middle" x="342" y="-575.6" font-family="Courier New" font-size="18.00" fill="#00ff88">Path A: Standard Hardware Spindown (Hitachi sde, WD Black sdg)</text>
</g>
<g id="clust2" class="cluster">
<title>cluster_custom</title>
<polygon fill="#0d0e15" stroke="#ff00cc" points="684,-238 684,-784 1184,-784 1184,-238 684,-238"/>
<text text-anchor="middle" x="934" y="-765.6" font-family="Courier New" font-size="18.00" fill="#ff00cc">Path B: Custom Software Polling (WD AV&#45;GP sdc)</text>
</g>
<!-- systemd_service -->
<g id="node1" class="node">
<title>systemd_service</title>
<polygon fill="#11241a" stroke="#00ff88" stroke-width="2" points="667.5,-558 314.5,-558 314.5,-522 667.5,-522 667.5,-558"/>
<text text-anchor="middle" x="491" y="-543" font-family="Courier New" font-size="10.00" fill="#ffffff">systemd Service on Boot</text>
<text text-anchor="middle" x="491" y="-532" font-family="Courier New" font-size="10.00" fill="#ffffff">(idle&#45;hdd&#45;spindown.service / wd&#45;backup&#45;spindown.service)</text>
</g>
<!-- hdparm_cmd -->
<g id="node2" class="node">
<title>hdparm_cmd</title>
<polygon fill="#11241a" stroke="#00ff88" stroke-width="2" points="602.5,-463.5 411.5,-463.5 411.5,-427.5 602.5,-427.5 602.5,-463.5"/>
<text text-anchor="middle" x="507" y="-448.5" font-family="Courier New" font-size="10.00" fill="#ffffff">ExecStart: hdparm &#45;S 12</text>
<text text-anchor="middle" x="507" y="-437.5" font-family="Courier New" font-size="10.00" fill="#ffffff">(Sets standby timeout to 60s)</text>
</g>
<!-- systemd_service&#45;&gt;hdparm_cmd -->
<g id="edge1" class="edge">
<title>systemd_service&#45;&gt;hdparm_cmd</title>
<path fill="none" stroke="#00ffcc" stroke-width="1.5" d="M494.01,-521.6C496.35,-508.08 499.63,-489.08 502.32,-473.57"/>
<polygon fill="#00ffcc" stroke="#00ffcc" stroke-width="1.5" points="505.8,-473.96 504.06,-463.51 498.9,-472.77 505.8,-473.96"/>
<text text-anchor="middle" x="529" y="-491.8" font-family="Courier New" font-size="9.00" fill="#00ffcc">Arm at boot</text>
</g>
<!-- drive_fw -->
<g id="node3" class="node">
<title>drive_fw</title>
<polygon fill="#11241a" stroke="#00ff88" stroke-width="2" points="648.5,-379 433.5,-379 433.5,-343 648.5,-343 648.5,-379"/>
<text text-anchor="middle" x="541" y="-364" font-family="Courier New" font-size="10.00" fill="#ffffff">Drive Controller Firmware</text>
<text text-anchor="middle" x="541" y="-353" font-family="Courier New" font-size="10.00" fill="#ffffff">(Monitors idle activity directly)</text>
</g>
<!-- hdparm_cmd&#45;&gt;drive_fw -->
<g id="edge2" class="edge">
<title>hdparm_cmd&#45;&gt;drive_fw</title>
<path fill="none" stroke="#00ffcc" stroke-width="1.5" d="M514.04,-427.41C518.69,-416.12 524.88,-401.12 530.15,-388.32"/>
<polygon fill="#00ffcc" stroke="#00ffcc" stroke-width="1.5" points="533.39,-389.65 533.96,-379.07 526.92,-386.98 533.39,-389.65"/>
<text text-anchor="middle" x="584" y="-399.8" font-family="Courier New" font-size="9.00" fill="#00ffcc">Passes ATA APM command</text>
</g>
<!-- standby_auto -->
<g id="node4" class="node">
<title>standby_auto</title>
<polygon fill="#11241a" stroke="#00ff88" stroke-width="2" points="652.5,-284.5 461.5,-284.5 461.5,-248.5 652.5,-248.5 652.5,-284.5"/>
<text text-anchor="middle" x="557" y="-269.5" font-family="Courier New" font-size="10.00" fill="#ffffff">Auto Standby Mode</text>
<text text-anchor="middle" x="557" y="-258.5" font-family="Courier New" font-size="10.00" fill="#ffffff">(Platter spun down after 60s)</text>
</g>
<!-- drive_fw&#45;&gt;standby_auto -->
<g id="edge3" class="edge">
<title>drive_fw&#45;&gt;standby_auto</title>
<path fill="none" stroke="#00ffcc" stroke-width="1.5" d="M544.01,-342.6C546.35,-329.08 549.63,-310.08 552.32,-294.57"/>
<polygon fill="#00ffcc" stroke="#00ffcc" stroke-width="1.5" points="555.8,-294.96 554.06,-284.51 548.9,-293.77 555.8,-294.96"/>
<text text-anchor="middle" x="592.5" y="-312.8" font-family="Courier New" font-size="9.00" fill="#00ffcc">No host activity</text>
</g>
<!-- clean_unmount_ro -->
<g id="node12" class="node">
<title>clean_unmount_ro</title>
<polygon fill="#11241a" stroke="#00ff88" stroke-width="2" points="1087.5,-200 878.5,-200 878.5,-164 1087.5,-164 1087.5,-200"/>
<text text-anchor="middle" x="983" y="-185" font-family="Courier New" font-size="10.00" fill="#ffffff">Unmounting Read&#45;Only (ro) Mounts</text>
<text text-anchor="middle" x="983" y="-174" font-family="Courier New" font-size="10.00" fill="#ffffff">(/mnt/sda1 &amp; /mnt/hitachi_2tb)</text>
</g>
<!-- standby_auto&#45;&gt;clean_unmount_ro -->
<g id="edge13" class="edge">
<title>standby_auto&#45;&gt;clean_unmount_ro</title>
<path fill="none" stroke="#00ff88" stroke-width="1.5" stroke-dasharray="5,2" d="M631.05,-248.44C647.16,-244.87 664.13,-241.21 680,-238 744.02,-225.04 815.95,-211.92 873.66,-201.75"/>
<polygon fill="#00ff88" stroke="#00ff88" stroke-width="1.5" points="874.29,-205.19 883.53,-200.01 873.07,-198.3 874.29,-205.19"/>
<text text-anchor="middle" x="842.5" y="-220.8" font-family="Courier New" font-size="9.00" fill="#00ffcc">Current state is Standby</text>
</g>
<!-- timer -->
<g id="node5" class="node">
<title>timer</title>
<polygon fill="#2b1426" stroke="#ff00cc" stroke-width="2" points="1058.5,-748 891.5,-748 891.5,-712 1058.5,-712 1058.5,-748"/>
<text text-anchor="middle" x="975" y="-733" font-family="Courier New" font-size="10.00" fill="#ffffff">idle&#45;disk&#45;park.timer</text>
<text text-anchor="middle" x="975" y="-722" font-family="Courier New" font-size="10.00" fill="#ffffff">(Triggers every 1 minute)</text>
</g>
<!-- poll_script -->
<g id="node6" class="node">
<title>poll_script</title>
<polygon fill="#2b1426" stroke="#ff00cc" stroke-width="2" points="1115.5,-666 834.5,-666 834.5,-630 1115.5,-630 1115.5,-666"/>
<text text-anchor="middle" x="975" y="-651" font-family="Courier New" font-size="10.00" fill="#ffffff">idle&#45;disk&#45;park.service</text>
<text text-anchor="middle" x="975" y="-640" font-family="Courier New" font-size="10.00" fill="#ffffff">(Executes /usr/local/sbin/idle&#45;disk&#45;park.sh)</text>
</g>
<!-- timer&#45;&gt;poll_script -->
<g id="edge4" class="edge">
<title>timer&#45;&gt;poll_script</title>
<path fill="none" stroke="#00ffcc" stroke-width="1.5" d="M975,-711.64C975,-701.3 975,-687.94 975,-676.22"/>
<polygon fill="#00ffcc" stroke="#00ffcc" stroke-width="1.5" points="978.5,-676.05 975,-666.05 971.5,-676.05 978.5,-676.05"/>
<text text-anchor="middle" x="1017.5" y="-686.8" font-family="Courier New" font-size="9.00" fill="#00ffcc">Trigger interval</text>
</g>
<!-- check_standby -->
<g id="node7" class="node">
<title>check_standby</title>
<polygon fill="#2b1426" stroke="#ff00cc" stroke-width="2" points="965.5,-558 828.5,-558 828.5,-522 965.5,-522 965.5,-558"/>
<text text-anchor="middle" x="897" y="-543" font-family="Courier New" font-size="10.00" fill="#ffffff">Check Current State:</text>
<text text-anchor="middle" x="897" y="-532" font-family="Courier New" font-size="10.00" fill="#ffffff">hdparm &#45;C /dev/sdc</text>
</g>
<!-- poll_script&#45;&gt;check_standby -->
<g id="edge5" class="edge">
<title>poll_script&#45;&gt;check_standby</title>
<path fill="none" stroke="#00ffcc" stroke-width="1.5" d="M954.11,-629.92C948.2,-624.53 942.01,-618.33 937,-612 926.15,-598.3 916.46,-581.3 909.34,-567.36"/>
<polygon fill="#00ffcc" stroke="#00ffcc" stroke-width="1.5" points="912.41,-565.69 904.83,-558.29 906.14,-568.8 912.41,-565.69"/>
<text text-anchor="middle" x="974" y="-604.8" font-family="Courier New" font-size="9.00" fill="#00ffcc">1. Check state</text>
</g>
<!-- check_io -->
<g id="node8" class="node">
<title>check_io</title>
<polygon fill="#2b1426" stroke="#ff00cc" stroke-width="2" points="958.5,-466 785.5,-466 785.5,-425 958.5,-425 958.5,-466"/>
<text text-anchor="middle" x="872" y="-454" font-family="Courier New" font-size="10.00" fill="#ffffff">Read I/O Statistics:</text>
<text text-anchor="middle" x="872" y="-443" font-family="Courier New" font-size="10.00" fill="#ffffff">/sys/block/sdc/stat</text>
<text text-anchor="middle" x="872" y="-432" font-family="Courier New" font-size="10.00" fill="#ffffff">(Reads + Writes completed)</text>
</g>
<!-- check_standby&#45;&gt;check_io -->
<g id="edge6" class="edge">
<title>check_standby&#45;&gt;check_io</title>
<path fill="none" stroke="#00ffcc" stroke-width="1.5" d="M878.04,-521.74C873.56,-516.52 869.39,-510.46 867,-504 863.77,-495.26 863.54,-485.28 864.57,-476.12"/>
<polygon fill="#00ffcc" stroke="#00ffcc" stroke-width="1.5" points="868.03,-476.66 866.16,-466.23 861.12,-475.54 868.03,-476.66"/>
<text text-anchor="middle" x="930.5" y="-491.8" font-family="Courier New" font-size="9.00" fill="#00ffcc">If state = &#39;active/idle&#39;</text>
</g>
<!-- compare_io -->
<g id="node9" class="node">
<title>compare_io</title>
<polygon fill="#2b1426" stroke="#ff00cc" stroke-width="2" points="1114.5,-379 851.5,-379 851.5,-343 1114.5,-343 1114.5,-379"/>
<text text-anchor="middle" x="983" y="-364" font-family="Courier New" font-size="10.00" fill="#ffffff">Compare Current I/O to</text>
<text text-anchor="middle" x="983" y="-353" font-family="Courier New" font-size="10.00" fill="#ffffff">Previous Value in /run/idle&#45;disk&#45;park.sdc</text>
</g>
<!-- check_io&#45;&gt;compare_io -->
<g id="edge7" class="edge">
<title>check_io&#45;&gt;compare_io</title>
<path fill="none" stroke="#00ffcc" stroke-width="1.5" d="M875.5,-424.85C878.09,-415.38 882.51,-404.47 890,-397 895.12,-391.89 901.06,-387.52 907.41,-383.77"/>
<polygon fill="#00ffcc" stroke="#00ffcc" stroke-width="1.5" points="909.11,-386.83 916.29,-379.05 905.82,-380.65 909.11,-386.83"/>
<text text-anchor="middle" x="950.5" y="-399.8" font-family="Courier New" font-size="9.00" fill="#00ffcc">2. Compare reads/writes</text>
</g>
<!-- compare_io&#45;&gt;poll_script -->
<g id="edge9" class="edge">
<title>compare_io&#45;&gt;poll_script</title>
<path fill="none" stroke="#ff5252" stroke-width="1.5" d="M1000.42,-379.09C1004.72,-384.38 1008.73,-390.54 1011,-397 1042.63,-487.17 1048.19,-523.98 1011,-612 1009.44,-615.69 1007.28,-619.18 1004.79,-622.43"/>
<polygon fill="#ff5252" stroke="#ff5252" stroke-width="1.5" points="1002.11,-620.18 998.06,-629.97 1007.33,-624.84 1002.11,-620.18"/>
<text text-anchor="middle" x="1099.5" y="-496.8" font-family="Courier New" font-size="9.00" fill="#00ffcc">If I/O changed:</text>
<text text-anchor="middle" x="1099.5" y="-486.8" font-family="Courier New" font-size="9.00" fill="#00ffcc">update /run state &amp; exit</text>
</g>
<!-- force_standby -->
<g id="node10" class="node">
<title>force_standby</title>
<polygon fill="#2b1426" stroke="#ff00cc" stroke-width="2" points="1048.5,-287 917.5,-287 917.5,-246 1048.5,-246 1048.5,-287"/>
<text text-anchor="middle" x="983" y="-275" font-family="Courier New" font-size="10.00" fill="#ffffff">Force Spindown:</text>
<text text-anchor="middle" x="983" y="-264" font-family="Courier New" font-size="10.00" fill="#ffffff">hdparm &#45;y /dev/sdc</text>
<text text-anchor="middle" x="983" y="-253" font-family="Courier New" font-size="10.00" fill="#ffffff">(Immediate Standby)</text>
</g>
<!-- compare_io&#45;&gt;force_standby -->
<g id="edge8" class="edge">
<title>compare_io&#45;&gt;force_standby</title>
<path fill="none" stroke="#00ffcc" stroke-width="1.5" d="M983,-342.6C983,-329.88 983,-312.32 983,-297.37"/>
<polygon fill="#00ffcc" stroke="#00ffcc" stroke-width="1.5" points="986.5,-297.06 983,-287.06 979.5,-297.06 986.5,-297.06"/>
<text text-anchor="middle" x="1033" y="-317.8" font-family="Courier New" font-size="9.00" fill="#00ffcc">If I/O unchanged</text>
<text text-anchor="middle" x="1033" y="-307.8" font-family="Courier New" font-size="9.00" fill="#00ffcc">for &gt;= 300s (5 min)</text>
</g>
<!-- force_standby&#45;&gt;clean_unmount_ro -->
<g id="edge14" class="edge">
<title>force_standby&#45;&gt;clean_unmount_ro</title>
<path fill="none" stroke="#ff00cc" stroke-width="1.5" stroke-dasharray="5,2" d="M983,-245.95C983,-235.3 983,-221.94 983,-210.28"/>
<polygon fill="#ff00cc" stroke="#ff00cc" stroke-width="1.5" points="986.5,-210.17 983,-200.17 979.5,-210.17 986.5,-210.17"/>
<text text-anchor="middle" x="1046.5" y="-220.8" font-family="Courier New" font-size="9.00" fill="#00ffcc">Current state is Standby</text>
</g>
<!-- host_shutdown -->
<g id="node11" class="node">
<title>host_shutdown</title>
<polygon fill="#2e1114" stroke="#ff3838" stroke-width="2" points="1353.5,-284.5 1192.5,-284.5 1192.5,-248.5 1353.5,-248.5 1353.5,-284.5"/>
<text text-anchor="middle" x="1273" y="-269.5" font-family="Courier New" font-size="10.00" fill="#ffffff">System Shutdown Sequence</text>
<text text-anchor="middle" x="1273" y="-258.5" font-family="Courier New" font-size="10.00" fill="#ffffff">(reboot / poweroff)</text>
</g>
<!-- host_shutdown&#45;&gt;clean_unmount_ro -->
<g id="edge10" class="edge">
<title>host_shutdown&#45;&gt;clean_unmount_ro</title>
<path fill="none" stroke="#00ffcc" stroke-width="1.5" d="M1221.43,-248.37C1210.43,-244.84 1198.85,-241.22 1188,-238 1146,-225.54 1098.81,-212.79 1060.29,-202.71"/>
<polygon fill="#00ffcc" stroke="#00ffcc" stroke-width="1.5" points="1060.75,-199.21 1050.19,-200.07 1058.98,-205.98 1060.75,-199.21"/>
<text text-anchor="middle" x="1201" y="-220.8" font-family="Courier New" font-size="9.00" fill="#00ffcc">Systemd unmount task</text>
</g>
<!-- no_write_op -->
<g id="node13" class="node">
<title>no_write_op</title>
<polygon fill="#161925" stroke="#00ffcc" stroke-width="2" points="1120.5,-118 845.5,-118 845.5,-82 1120.5,-82 1120.5,-118"/>
<text text-anchor="middle" x="983" y="-103" font-family="Courier New" font-size="10.00" fill="#ffffff">Filesystem is Clean:</text>
<text text-anchor="middle" x="983" y="-92" font-family="Courier New" font-size="10.00" fill="#ffffff">No superblock write or journal flush needed</text>
</g>
<!-- clean_unmount_ro&#45;&gt;no_write_op -->
<g id="edge11" class="edge">
<title>clean_unmount_ro&#45;&gt;no_write_op</title>
<path fill="none" stroke="#00ffcc" stroke-width="1.5" d="M983,-163.64C983,-153.3 983,-139.94 983,-128.22"/>
<polygon fill="#00ffcc" stroke="#00ffcc" stroke-width="1.5" points="986.5,-128.05 983,-118.05 979.5,-128.05 986.5,-128.05"/>
<text text-anchor="middle" x="1030.5" y="-138.8" font-family="Courier New" font-size="9.00" fill="#00ffcc">Evaluates ro state</text>
</g>
<!-- stay_standby -->
<g id="node14" class="node">
<title>stay_standby</title>
<polygon fill="#161925" stroke="#00ffcc" stroke-width="2" points="1123.5,-36 842.5,-36 842.5,0 1123.5,0 1123.5,-36"/>
<text text-anchor="middle" x="983" y="-21" font-family="Courier New" font-size="10.00" fill="#ffffff">Standby Maintained</text>
<text text-anchor="middle" x="983" y="-10" font-family="Courier New" font-size="10.00" fill="#ffffff">(Zero motor spin&#45;up latency during shutdown)</text>
</g>
<!-- no_write_op&#45;&gt;stay_standby -->
<g id="edge12" class="edge">
<title>no_write_op&#45;&gt;stay_standby</title>
<path fill="none" stroke="#00ff88" stroke-width="1.5" d="M983,-81.64C983,-71.3 983,-57.94 983,-46.22"/>
<polygon fill="#00ff88" stroke="#00ff88" stroke-width="1.5" points="986.5,-46.05 983,-36.05 979.5,-46.05 986.5,-46.05"/>
<text text-anchor="middle" x="1043.5" y="-56.8" font-family="Courier New" font-size="9.00" fill="#00ffcc">No physical disk access</text>
</g>
</g>
</svg>
