<?xml version="1.0" encoding="UTF-8" standalone="no"?>
<!DOCTYPE svg PUBLIC "-//W3C//DTD SVG 1.1//EN"
 "http://www.w3.org/Graphics/SVG/1.1/DTD/svg11.dtd">
<!-- Generated by graphviz version 2.43.0 (0)
 -->
<!-- Title: G Pages: 1 -->
<svg width="1139pt" height="347pt"
 viewBox="0.00 0.00 1139.00 347.00" xmlns="http://www.w3.org/2000/svg" xmlns:xlink="http://www.w3.org/1999/xlink">
<g id="graph0" class="graph" transform="scale(1 1) rotate(0) translate(4 343)">
<title>G</title>
<polygon fill="white" stroke="transparent" points="-4,4 -4,-343 1135,-343 1135,4 -4,4"/>
<text text-anchor="middle" x="565.5" y="-322.2" font-family="Helvetica,Arial,sans-serif" font-size="16.00">Quiescent HDD Standby &amp; Shutdown Unmount Architecture</text>
<g id="clust1" class="cluster">
<title>cluster_legend</title>
<path fill="none" stroke="#7f8c8d" stroke-dasharray="5,2" d="M20,-226C20,-226 387,-226 387,-226 393,-226 399,-232 399,-238 399,-238 399,-292 399,-292 399,-298 393,-304 387,-304 387,-304 20,-304 20,-304 14,-304 8,-298 8,-292 8,-292 8,-238 8,-238 8,-232 14,-226 20,-226"/>
<text text-anchor="middle" x="203.5" y="-287.2" font-family="Helvetica,Arial,sans-serif" font-size="16.00">Legend</text>
</g>
<g id="clust2" class="cluster">
<title>cluster_sde</title>
<path fill="none" stroke="#b2bec3" d="M447,-8C447,-8 659,-8 659,-8 665,-8 671,-14 671,-20 671,-20 671,-180 671,-180 671,-186 665,-192 659,-192 659,-192 447,-192 447,-192 441,-192 435,-186 435,-180 435,-180 435,-20 435,-20 435,-14 441,-8 447,-8"/>
<text text-anchor="middle" x="553" y="-175.2" font-family="Helvetica,Arial,sans-serif" font-size="16.00">Hitachi 2TB (/dev/sde)</text>
</g>
<g id="clust3" class="cluster">
<title>cluster_sdc</title>
<path fill="none" stroke="#b2bec3" d="M691,-8C691,-8 885,-8 885,-8 891,-8 897,-14 897,-20 897,-20 897,-180 897,-180 897,-186 891,-192 885,-192 885,-192 691,-192 691,-192 685,-192 679,-186 679,-180 679,-180 679,-20 679,-20 679,-14 685,-8 691,-8"/>
<text text-anchor="middle" x="788" y="-175.2" font-family="Helvetica,Arial,sans-serif" font-size="16.00">WD AV&#45;GP 1TB (/dev/sdc)</text>
</g>
<g id="clust4" class="cluster">
<title>cluster_sdg</title>
<path fill="none" stroke="#b2bec3" d="M917,-112C917,-112 1090,-112 1090,-112 1096,-112 1102,-118 1102,-124 1102,-124 1102,-293 1102,-293 1102,-299 1096,-305 1090,-305 1090,-305 917,-305 917,-305 911,-305 905,-299 905,-293 905,-293 905,-124 905,-124 905,-118 911,-112 917,-112"/>
<text text-anchor="middle" x="1003.5" y="-288.2" font-family="Helvetica,Arial,sans-serif" font-size="16.00">WD Black 4TB (/dev/sdg)</text>
</g>
<!-- legend_rw -->
<g id="node1" class="node">
<title>legend_rw</title>
<path fill="#fab1a0" stroke="#e17055" stroke-width="2" d="M378.5,-270C378.5,-270 289.5,-270 289.5,-270 283.5,-270 277.5,-264 277.5,-258 277.5,-258 277.5,-246 277.5,-246 277.5,-240 283.5,-234 289.5,-234 289.5,-234 378.5,-234 378.5,-234 384.5,-234 390.5,-240 390.5,-246 390.5,-246 390.5,-258 390.5,-258 390.5,-264 384.5,-270 378.5,-270"/>
<text text-anchor="middle" x="334" y="-248.3" font-family="Helvetica,Arial,sans-serif" font-size="14.00">Read&#45;Write (rw)</text>
</g>
<!-- legend_ro -->
<g id="node2" class="node">
<title>legend_ro</title>
<path fill="#55efc4" stroke="#00b894" stroke-width="2" d="M247.5,-270C247.5,-270 164.5,-270 164.5,-270 158.5,-270 152.5,-264 152.5,-258 152.5,-258 152.5,-246 152.5,-246 152.5,-240 158.5,-234 164.5,-234 164.5,-234 247.5,-234 247.5,-234 253.5,-234 259.5,-240 259.5,-246 259.5,-246 259.5,-258 259.5,-258 259.5,-264 253.5,-270 247.5,-270"/>
<text text-anchor="middle" x="206" y="-248.3" font-family="Helvetica,Arial,sans-serif" font-size="14.00">Read&#45;Only (ro)</text>
</g>
<!-- legend_hw -->
<g id="node3" class="node">
<title>legend_hw</title>
<path fill="#dfe6e9" stroke="#b2bec3" stroke-width="2" d="M122,-270C122,-270 28,-270 28,-270 22,-270 16,-264 16,-258 16,-258 16,-246 16,-246 16,-240 22,-234 28,-234 28,-234 122,-234 122,-234 128,-234 134,-240 134,-246 134,-246 134,-258 134,-258 134,-264 128,-270 122,-270"/>
<text text-anchor="middle" x="75" y="-248.3" font-family="Helvetica,Arial,sans-serif" font-size="14.00">Hardware / Drive</text>
</g>
<!-- sysd -->
<g id="node4" class="node">
<title>sysd</title>
<path fill="#74b9ff" stroke="#0984e3" stroke-width="2" d="M601,-271C601,-271 421,-271 421,-271 415,-271 409,-265 409,-259 409,-259 409,-245 409,-245 409,-239 415,-233 421,-233 421,-233 601,-233 601,-233 607,-233 613,-239 613,-245 613,-245 613,-259 613,-259 613,-265 607,-271 601,-271"/>
<text text-anchor="middle" x="511" y="-255.8" font-family="Helvetica,Arial,sans-serif" font-size="14.00">Systemd / Shutdown Controller</text>
<text text-anchor="middle" x="511" y="-240.8" font-family="Helvetica,Arial,sans-serif" font-size="14.00">(Triggered by reboot/shutdown)</text>
</g>
<!-- udisks -->
<g id="node5" class="node">
<title>udisks</title>
<path fill="#a29bfe" stroke="#6c5ce7" stroke-width="2" d="M414,-158C414,-158 232,-158 232,-158 226,-158 220,-152 220,-146 220,-146 220,-132 220,-132 220,-126 226,-120 232,-120 232,-120 414,-120 414,-120 420,-120 426,-126 426,-132 426,-132 426,-146 426,-146 426,-152 420,-158 414,-158"/>
<text text-anchor="middle" x="323" y="-142.8" font-family="Helvetica,Arial,sans-serif" font-size="14.00">udisks2.service (Disk Manager)</text>
<text text-anchor="middle" x="323" y="-127.8" font-family="Helvetica,Arial,sans-serif" font-size="14.00">(Cleaning up states)</text>
</g>
<!-- sysd&#45;&gt;udisks -->
<g id="edge1" class="edge">
<title>sysd&#45;&gt;udisks</title>
<path fill="none" stroke="#34495e" stroke-width="1.5" d="M428.99,-232.94C415.74,-228.21 402.59,-222.31 391,-215 371,-202.38 353.24,-182.31 340.89,-166.1"/>
<polygon fill="#34495e" stroke="#34495e" stroke-width="1.5" points="343.69,-164.01 334.94,-158.04 338.06,-168.17 343.69,-164.01"/>
<text text-anchor="middle" x="449" y="-203.8" font-family="Helvetica,Arial,sans-serif" font-size="14.00">1. Stopping service</text>
</g>
<!-- sde_mount -->
<g id="node6" class="node">
<title>sde_mount</title>
<path fill="#55efc4" stroke="#00b894" stroke-width="2" d="M565.5,-158C565.5,-158 456.5,-158 456.5,-158 450.5,-158 444.5,-152 444.5,-146 444.5,-146 444.5,-132 444.5,-132 444.5,-126 450.5,-120 456.5,-120 456.5,-120 565.5,-120 565.5,-120 571.5,-120 577.5,-126 577.5,-132 577.5,-132 577.5,-146 577.5,-146 577.5,-152 571.5,-158 565.5,-158"/>
<text text-anchor="middle" x="511" y="-142.8" font-family="Helvetica,Arial,sans-serif" font-size="14.00">/mnt/hitachi_2tb</text>
<text text-anchor="middle" x="511" y="-127.8" font-family="Helvetica,Arial,sans-serif" font-size="14.00">(Filesystem Mount)</text>
</g>
<!-- sysd&#45;&gt;sde_mount -->
<g id="edge2" class="edge">
<title>sysd&#45;&gt;sde_mount</title>
<path fill="none" stroke="#34495e" stroke-width="1.5" d="M511,-232.67C511,-215.24 511,-188.75 511,-168.55"/>
<polygon fill="#34495e" stroke="#34495e" stroke-width="1.5" points="514.5,-168.36 511,-158.36 507.5,-168.36 514.5,-168.36"/>
<text text-anchor="middle" x="600" y="-203.8" font-family="Helvetica,Arial,sans-serif" font-size="14.00">2. Unmounts /mnt/hitachi_2tb</text>
</g>
<!-- sdc_mount -->
<g id="node8" class="node">
<title>sdc_mount</title>
<path fill="#55efc4" stroke="#00b894" stroke-width="2" d="M808.5,-158C808.5,-158 699.5,-158 699.5,-158 693.5,-158 687.5,-152 687.5,-146 687.5,-146 687.5,-132 687.5,-132 687.5,-126 693.5,-120 699.5,-120 699.5,-120 808.5,-120 808.5,-120 814.5,-120 820.5,-126 820.5,-132 820.5,-132 820.5,-146 820.5,-146 820.5,-152 814.5,-158 808.5,-158"/>
<text text-anchor="middle" x="754" y="-142.8" font-family="Helvetica,Arial,sans-serif" font-size="14.00">/mnt/sda1</text>
<text text-anchor="middle" x="754" y="-127.8" font-family="Helvetica,Arial,sans-serif" font-size="14.00">(Filesystem Mount)</text>
</g>
<!-- sysd&#45;&gt;sdc_mount -->
<g id="edge3" class="edge">
<title>sysd&#45;&gt;sdc_mount</title>
<path fill="none" stroke="#34495e" stroke-width="1.5" d="M613.31,-243.44C640.61,-238.13 669.13,-229.36 693,-215 712.29,-203.39 728.12,-183.35 738.81,-166.91"/>
<polygon fill="#34495e" stroke="#34495e" stroke-width="1.5" points="741.91,-168.56 744.21,-158.22 735.96,-164.86 741.91,-168.56"/>
<text text-anchor="middle" x="782" y="-203.8" font-family="Helvetica,Arial,sans-serif" font-size="14.00">2. Unmounts /mnt/sda1</text>
</g>
<!-- sde_drive -->
<g id="node7" class="node">
<title>sde_drive</title>
<path fill="#dfe6e9" stroke="#b2bec3" stroke-width="2" d="M578.5,-54C578.5,-54 455.5,-54 455.5,-54 449.5,-54 443.5,-48 443.5,-42 443.5,-42 443.5,-28 443.5,-28 443.5,-22 449.5,-16 455.5,-16 455.5,-16 578.5,-16 578.5,-16 584.5,-16 590.5,-22 590.5,-28 590.5,-28 590.5,-42 590.5,-42 590.5,-48 584.5,-54 578.5,-54"/>
<text text-anchor="middle" x="517" y="-38.8" font-family="Helvetica,Arial,sans-serif" font-size="14.00">Drive Motor</text>
<text text-anchor="middle" x="517" y="-23.8" font-family="Helvetica,Arial,sans-serif" font-size="14.00">(Remains in Standby)</text>
</g>
<!-- sde_mount&#45;&gt;sde_drive -->
<g id="edge4" class="edge">
<title>sde_mount&#45;&gt;sde_drive</title>
<path fill="none" stroke="#00b894" stroke-width="1.5" stroke-dasharray="5,2" d="M485.89,-119.82C480.66,-114.7 475.87,-108.68 473,-102 467.73,-89.75 467.29,-84.05 473,-72 474.76,-68.29 477.1,-64.84 479.8,-61.66"/>
<polygon fill="#00b894" stroke="#00b894" stroke-width="1.5" points="482.53,-63.87 487.1,-54.31 477.57,-58.94 482.53,-63.87"/>
<text text-anchor="middle" x="574" y="-90.8" font-family="Helvetica,Arial,sans-serif" font-size="14.00">Read&#45;Only: No dirty flags to write</text>
<text text-anchor="middle" x="574" y="-75.8" font-family="Helvetica,Arial,sans-serif" font-size="14.00">No Spindown Wakeup!</text>
</g>
<!-- sdc_drive -->
<g id="node9" class="node">
<title>sdc_drive</title>
<path fill="#dfe6e9" stroke="#b2bec3" stroke-width="2" d="M822.5,-54C822.5,-54 699.5,-54 699.5,-54 693.5,-54 687.5,-48 687.5,-42 687.5,-42 687.5,-28 687.5,-28 687.5,-22 693.5,-16 699.5,-16 699.5,-16 822.5,-16 822.5,-16 828.5,-16 834.5,-22 834.5,-28 834.5,-28 834.5,-42 834.5,-42 834.5,-48 828.5,-54 822.5,-54"/>
<text text-anchor="middle" x="761" y="-38.8" font-family="Helvetica,Arial,sans-serif" font-size="14.00">Drive Motor</text>
<text text-anchor="middle" x="761" y="-23.8" font-family="Helvetica,Arial,sans-serif" font-size="14.00">(Remains in Standby)</text>
</g>
<!-- sdc_mount&#45;&gt;sdc_drive -->
<g id="edge5" class="edge">
<title>sdc_mount&#45;&gt;sdc_drive</title>
<path fill="none" stroke="#00b894" stroke-width="1.5" stroke-dasharray="5,2" d="M755.25,-119.76C756.31,-104.32 757.85,-81.91 759.07,-64.16"/>
<polygon fill="#00b894" stroke="#00b894" stroke-width="1.5" points="762.57,-64.29 759.76,-54.08 755.58,-63.81 762.57,-64.29"/>
<text text-anchor="middle" x="850" y="-90.8" font-family="Helvetica,Arial,sans-serif" font-size="14.00">Read&#45;Only: No journal to flush</text>
<text text-anchor="middle" x="850" y="-75.8" font-family="Helvetica,Arial,sans-serif" font-size="14.00">No Spindown Wakeup!</text>
</g>
<!-- sdg_mount -->
<g id="node10" class="node">
<title>sdg_mount</title>
<path fill="#dfe6e9" stroke="#b2bec3" stroke-width="2" d="M1047,-271C1047,-271 925,-271 925,-271 919,-271 913,-265 913,-259 913,-259 913,-245 913,-245 913,-239 919,-233 925,-233 925,-233 1047,-233 1047,-233 1053,-233 1059,-239 1059,-245 1059,-245 1059,-259 1059,-259 1059,-265 1053,-271 1047,-271"/>
<text text-anchor="middle" x="986" y="-255.8" font-family="Helvetica,Arial,sans-serif" font-size="14.00">/mnt/pdf_backup</text>
<text text-anchor="middle" x="986" y="-240.8" font-family="Helvetica,Arial,sans-serif" font-size="14.00">(noauto, Unmounted)</text>
</g>
<!-- sdg_drive -->
<g id="node11" class="node">
<title>sdg_drive</title>
<path fill="#dfe6e9" stroke="#b2bec3" stroke-width="2" d="M1048.5,-158C1048.5,-158 925.5,-158 925.5,-158 919.5,-158 913.5,-152 913.5,-146 913.5,-146 913.5,-132 913.5,-132 913.5,-126 919.5,-120 925.5,-120 925.5,-120 1048.5,-120 1048.5,-120 1054.5,-120 1060.5,-126 1060.5,-132 1060.5,-132 1060.5,-146 1060.5,-146 1060.5,-152 1054.5,-158 1048.5,-158"/>
<text text-anchor="middle" x="987" y="-142.8" font-family="Helvetica,Arial,sans-serif" font-size="14.00">Drive Motor</text>
<text text-anchor="middle" x="987" y="-127.8" font-family="Helvetica,Arial,sans-serif" font-size="14.00">(Remains in Standby)</text>
</g>
<!-- sdg_mount&#45;&gt;sdg_drive -->
<g id="edge6" class="edge">
<title>sdg_mount&#45;&gt;sdg_drive</title>
<path fill="none" stroke="#7f8c8d" stroke-width="1.5" stroke-dasharray="5,2" d="M986.17,-232.67C986.32,-215.24 986.56,-188.75 986.74,-168.55"/>
<polygon fill="#7f8c8d" stroke="#7f8c8d" stroke-width="1.5" points="990.24,-168.39 986.83,-158.36 983.24,-168.32 990.24,-168.39"/>
<text text-anchor="middle" x="1058.5" y="-203.8" font-family="Helvetica,Arial,sans-serif" font-size="14.00">Not mounted: No action</text>
</g>
</g>
</svg>
