<?xml version="1.0" encoding="UTF-8" standalone="no"?>
<!DOCTYPE svg PUBLIC "-//W3C//DTD SVG 1.1//EN"
 "http://www.w3.org/Graphics/SVG/1.1/DTD/svg11.dtd">
<!-- Generated by graphviz version 2.43.0 (0)
 -->
<!-- Title: ShutdownProgression Pages: 1 -->
<svg width="701pt" height="889pt"
 viewBox="0.00 0.00 701.00 889.00" xmlns="http://www.w3.org/2000/svg" xmlns:xlink="http://www.w3.org/1999/xlink">
<g id="graph0" class="graph" transform="scale(1 1) rotate(0) translate(36 853)">
<title>ShutdownProgression</title>
<polygon fill="#0d0e15" stroke="transparent" points="-36,36 -36,-853 665,-853 665,36 -36,36"/>
<text text-anchor="middle" x="314.5" y="-798.6" font-family="Courier New" font-size="18.00" fill="#00d2ff">SYSTEMD SHUTDOWN PROGRESSION FLOWCHART</text>
<g id="clust1" class="cluster">
<title>cluster_unmount_comparison</title>
<polygon fill="#0d0e15" stroke="#a29bfe" stroke-dasharray="5,2" points="51,-235 51,-400 581,-400 581,-235 51,-235"/>
<text text-anchor="middle" x="316" y="-381.6" font-family="Courier New" font-size="18.00" fill="#00d2ff">Filesystem State Handling</text>
</g>
<!-- initiation -->
<g id="node1" class="node">
<title>initiation</title>
<polygon fill="#2e1114" stroke="#ff3838" stroke-width="2" points="268.5,-789 57.5,-789 57.5,-751 268.5,-751 268.5,-789"/>
<text text-anchor="middle" x="163" y="-777.8" font-family="Courier New" font-size="9.00" fill="#ffffff">1. SHUTDOWN INITIATED</text>
<text text-anchor="middle" x="163" y="-767.8" font-family="Courier New" font-size="9.00" fill="#ffffff">User invokes &#39;reboot&#39; or &#39;poweroff&#39;</text>
<text text-anchor="middle" x="163" y="-757.8" font-family="Courier New" font-size="9.00" fill="#ffffff">System transitions to shutdown.target</text>
</g>
<!-- desktop_cleanup -->
<g id="node2" class="node">
<title>desktop_cleanup</title>
<polygon fill="#121e28" stroke="#00ffcc" stroke-width="2" points="279,-714 47,-714 47,-676 279,-676 279,-714"/>
<text text-anchor="middle" x="163" y="-702.8" font-family="Courier New" font-size="9.00" fill="#ffffff">2. DESKTOP SESSION TERMINATION</text>
<text text-anchor="middle" x="163" y="-692.8" font-family="Courier New" font-size="9.00" fill="#ffffff">systemd[1] stops session c2 of User jeb</text>
<text text-anchor="middle" x="163" y="-682.8" font-family="Courier New" font-size="9.00" fill="#ffffff">LightDM and X11 display server are killed</text>
</g>
<!-- initiation&#45;&gt;desktop_cleanup -->
<g id="edge1" class="edge">
<title>initiation&#45;&gt;desktop_cleanup</title>
<path fill="none" stroke="#ff00cc" stroke-width="1.5" d="M163,-750.96C163,-742.88 163,-733.18 163,-724.18"/>
<polygon fill="#ff00cc" stroke="#ff00cc" stroke-width="1.5" points="166.5,-724.09 163,-714.09 159.5,-724.09 166.5,-724.09"/>
</g>
<!-- kde_errors -->
<g id="node3" class="node">
<title>kde_errors</title>
<polygon fill="#2b1426" stroke="#ff00cc" stroke-width="2" points="216,-631 0,-631 0,-593 216,-593 216,-631"/>
<text text-anchor="middle" x="108" y="-619.8" font-family="Courier New" font-size="9.00" fill="#ffffff">X11 Server Dies:</text>
<text text-anchor="middle" x="108" y="-609.8" font-family="Courier New" font-size="9.00" fill="#ffffff">kactivitymanagerd &amp; kglobalaccel5 log:</text>
<text text-anchor="middle" x="108" y="-599.8" font-family="Courier New" font-size="9.00" fill="#ffffff">&#39;The X11 connection broke (error 1)&#39;</text>
</g>
<!-- desktop_cleanup&#45;&gt;kde_errors -->
<g id="edge2" class="edge">
<title>desktop_cleanup&#45;&gt;kde_errors</title>
<path fill="none" stroke="#ff00cc" stroke-width="1.5" d="M150.52,-675.62C143.3,-664.98 134.08,-651.41 126.07,-639.62"/>
<polygon fill="#ff00cc" stroke="#ff00cc" stroke-width="1.5" points="128.75,-637.34 120.24,-631.03 122.96,-641.27 128.75,-637.34"/>
<text text-anchor="middle" x="185.5" y="-651.6" font-family="Courier New" font-size="8.00" fill="#ff00cc">Graceful stop signals</text>
</g>
<!-- network_stop -->
<g id="node4" class="node">
<title>network_stop</title>
<polygon fill="#121e28" stroke="#00ffcc" stroke-width="2" points="429.5,-631 234.5,-631 234.5,-593 429.5,-593 429.5,-631"/>
<text text-anchor="middle" x="332" y="-619.8" font-family="Courier New" font-size="9.00" fill="#ffffff">3. NETWORK SERVICES TEARDOWN</text>
<text text-anchor="middle" x="332" y="-609.8" font-family="Courier New" font-size="9.00" fill="#ffffff">NetworkManager caught SIGTERM</text>
<text text-anchor="middle" x="332" y="-599.8" font-family="Courier New" font-size="9.00" fill="#ffffff">Stopping WPA Supplicant &amp; Resolved</text>
</g>
<!-- desktop_cleanup&#45;&gt;network_stop -->
<g id="edge3" class="edge">
<title>desktop_cleanup&#45;&gt;network_stop</title>
<path fill="none" stroke="#ff00cc" stroke-width="1.5" d="M200.93,-675.82C225.82,-663.89 258.57,-648.2 285.1,-635.48"/>
<polygon fill="#ff00cc" stroke="#ff00cc" stroke-width="1.5" points="286.69,-638.6 294.2,-631.12 283.67,-632.28 286.69,-638.6"/>
</g>
<!-- nm_dispatcher_warn -->
<g id="node5" class="node">
<title>nm_dispatcher_warn</title>
<polygon fill="#242411" stroke="#ffff00" stroke-width="2" points="268.5,-548 57.5,-548 57.5,-510 268.5,-510 268.5,-548"/>
<text text-anchor="middle" x="163" y="-536.8" font-family="Courier New" font-size="9.00" fill="#ffffff">Warning Logged:</text>
<text text-anchor="middle" x="163" y="-526.8" font-family="Courier New" font-size="9.00" fill="#ffffff">&#39;dispatcher: (61) failed:</text>
<text text-anchor="middle" x="163" y="-516.8" font-family="Courier New" font-size="9.00" fill="#ffffff">Unit nm&#45;dispatcher.service is masked&#39;</text>
</g>
<!-- network_stop&#45;&gt;nm_dispatcher_warn -->
<g id="edge4" class="edge">
<title>network_stop&#45;&gt;nm_dispatcher_warn</title>
<path fill="none" stroke="#ff00cc" stroke-width="1.5" d="M294.07,-592.82C269.18,-580.89 236.43,-565.2 209.9,-552.48"/>
<polygon fill="#ff00cc" stroke="#ff00cc" stroke-width="1.5" points="211.33,-549.28 200.8,-548.12 208.31,-555.6 211.33,-549.28"/>
<text text-anchor="middle" x="300.5" y="-568.6" font-family="Courier New" font-size="8.00" fill="#ff00cc">NM invokes dispatcher</text>
</g>
<!-- dbus_conflicts -->
<g id="node6" class="node">
<title>dbus_conflicts</title>
<polygon fill="#2e1114" stroke="#ff3838" stroke-width="2" points="629,-548 287,-548 287,-510 629,-510 629,-548"/>
<text text-anchor="middle" x="458" y="-536.8" font-family="Courier New" font-size="9.00" fill="#ffffff">D&#45;Bus Activation Conflict:</text>
<text text-anchor="middle" x="458" y="-526.8" font-family="Courier New" font-size="9.00" fill="#ffffff">&#39;Transaction for systemd&#45;resolved.service/start is destructive</text>
<text text-anchor="middle" x="458" y="-516.8" font-family="Courier New" font-size="9.00" fill="#ffffff">(shutdown.target stop queued)&#39;</text>
</g>
<!-- network_stop&#45;&gt;dbus_conflicts -->
<g id="edge5" class="edge">
<title>network_stop&#45;&gt;dbus_conflicts</title>
<path fill="none" stroke="#ff00cc" stroke-width="1.5" d="M360.28,-592.82C378.27,-581.25 401.76,-566.15 421.2,-553.65"/>
<polygon fill="#ff00cc" stroke="#ff00cc" stroke-width="1.5" points="423.3,-556.47 429.82,-548.12 419.51,-550.58 423.3,-556.47"/>
<text text-anchor="middle" x="481.5" y="-568.6" font-family="Courier New" font-size="8.00" fill="#ff00cc">Resolved attempts restart during stop</text>
</g>
<!-- unmount_target -->
<g id="node7" class="node">
<title>unmount_target</title>
<polygon fill="#121e28" stroke="#00ffcc" stroke-width="2" points="420.5,-473 199.5,-473 199.5,-435 420.5,-435 420.5,-473"/>
<text text-anchor="middle" x="310" y="-461.8" font-family="Courier New" font-size="9.00" fill="#ffffff">4. FILE SYSTEM UNMOUNTING</text>
<text text-anchor="middle" x="310" y="-451.8" font-family="Courier New" font-size="9.00" fill="#ffffff">systemd[1] initiates unmount operations</text>
<text text-anchor="middle" x="310" y="-441.8" font-family="Courier New" font-size="9.00" fill="#ffffff">Target: Unmount All Filesystems</text>
</g>
<!-- nm_dispatcher_warn&#45;&gt;unmount_target -->
<g id="edge8" class="edge">
<title>nm_dispatcher_warn&#45;&gt;unmount_target</title>
<path fill="none" stroke="#ff00cc" stroke-width="1.5" d="M199.34,-509.96C219.04,-500.17 243.57,-487.99 264.53,-477.58"/>
<polygon fill="#ff00cc" stroke="#ff00cc" stroke-width="1.5" points="266.17,-480.67 273.57,-473.09 263.06,-474.4 266.17,-480.67"/>
</g>
<!-- dbus_conflicts&#45;&gt;unmount_target -->
<g id="edge9" class="edge">
<title>dbus_conflicts&#45;&gt;unmount_target</title>
<path fill="none" stroke="#ff00cc" stroke-width="1.5" d="M421.42,-509.96C401.58,-500.17 376.88,-487.99 355.78,-477.58"/>
<polygon fill="#ff00cc" stroke="#ff00cc" stroke-width="1.5" points="357.19,-474.38 346.68,-473.09 354.1,-480.65 357.19,-474.38"/>
</g>
<!-- unmount_rw -->
<g id="node8" class="node">
<title>unmount_rw</title>
<polygon fill="#2d161a" stroke="#ff5252" stroke-width="2" points="296.5,-364 59.5,-364 59.5,-326 296.5,-326 296.5,-364"/>
<text text-anchor="middle" x="178" y="-352.8" font-family="Courier New" font-size="9.00" fill="#ffffff">Read&#45;Write (rw) Mounts</text>
<text text-anchor="middle" x="178" y="-342.8" font-family="Courier New" font-size="9.00" fill="#ffffff">(e.g., historical sde /mnt/hitachi_2tb)</text>
<text text-anchor="middle" x="178" y="-332.8" font-family="Courier New" font-size="9.00" fill="#ffffff">Requires journal flush &amp; dirty flag update</text>
</g>
<!-- unmount_target&#45;&gt;unmount_rw -->
<g id="edge10" class="edge">
<title>unmount_target&#45;&gt;unmount_rw</title>
<path fill="none" stroke="#ff00cc" stroke-width="1.5" d="M287.61,-434.85C265.8,-417.17 232.49,-390.17 208.32,-370.58"/>
<polygon fill="#ff00cc" stroke="#ff00cc" stroke-width="1.5" points="210.47,-367.82 200.5,-364.24 206.07,-373.26 210.47,-367.82"/>
<text text-anchor="middle" x="296" y="-410.6" font-family="Courier New" font-size="8.00" fill="#ff00cc">Mount type: rw</text>
</g>
<!-- unmount_ro -->
<g id="node10" class="node">
<title>unmount_ro</title>
<polygon fill="#11241a" stroke="#00ff88" stroke-width="2" points="573,-364 315,-364 315,-326 573,-326 573,-364"/>
<text text-anchor="middle" x="444" y="-352.8" font-family="Courier New" font-size="9.00" fill="#ffffff">Read&#45;Only (ro) Mounts</text>
<text text-anchor="middle" x="444" y="-342.8" font-family="Courier New" font-size="9.00" fill="#ffffff">(Updated sde /mnt/hitachi_2tb &amp; sdc /mnt/sda1)</text>
<text text-anchor="middle" x="444" y="-332.8" font-family="Courier New" font-size="9.00" fill="#ffffff">No metadata writes are necessary</text>
</g>
<!-- unmount_target&#45;&gt;unmount_ro -->
<g id="edge11" class="edge">
<title>unmount_target&#45;&gt;unmount_ro</title>
<path fill="none" stroke="#ff00cc" stroke-width="1.5" d="M332.73,-434.85C354.87,-417.17 388.68,-390.17 413.22,-370.58"/>
<polygon fill="#ff00cc" stroke="#ff00cc" stroke-width="1.5" points="415.53,-373.22 421.16,-364.24 411.16,-367.74 415.53,-373.22"/>
<text text-anchor="middle" x="396" y="-410.6" font-family="Courier New" font-size="8.00" fill="#ff00cc">Mount type: ro</text>
</g>
<!-- spinup_delay -->
<g id="node9" class="node">
<title>spinup_delay</title>
<polygon fill="#2d161a" stroke="#ff5252" stroke-width="2" points="327.5,-281 74.5,-281 74.5,-243 327.5,-243 327.5,-281"/>
<text text-anchor="middle" x="201" y="-269.8" font-family="Courier New" font-size="9.00" fill="#ffffff">ATA Command Forces Spin&#45;up</text>
<text text-anchor="middle" x="201" y="-259.8" font-family="Courier New" font-size="9.00" fill="#ffffff">Kernel blocks until drive motor reaches speed</text>
<text text-anchor="middle" x="201" y="-249.8" font-family="Courier New" font-size="9.00" fill="#ffffff">Result: 5–11s latency per drive</text>
</g>
<!-- unmount_rw&#45;&gt;spinup_delay -->
<g id="edge6" class="edge">
<title>unmount_rw&#45;&gt;spinup_delay</title>
<path fill="none" stroke="#ff00cc" stroke-width="1.5" d="M183.22,-325.62C186.15,-315.29 189.87,-302.2 193.15,-290.66"/>
<polygon fill="#ff00cc" stroke="#ff00cc" stroke-width="1.5" points="196.52,-291.6 195.88,-281.03 189.78,-289.69 196.52,-291.6"/>
<text text-anchor="middle" x="238.5" y="-301.6" font-family="Courier New" font-size="8.00" fill="#ff00cc">Write to block device</text>
</g>
<!-- lvm_cleanup -->
<g id="node12" class="node">
<title>lvm_cleanup</title>
<polygon fill="#121e28" stroke="#00ffcc" stroke-width="2" points="423.5,-206 212.5,-206 212.5,-168 423.5,-168 423.5,-206"/>
<text text-anchor="middle" x="318" y="-194.8" font-family="Courier New" font-size="9.00" fill="#ffffff">5. BLOCK TELEMETRY &amp; LVM MONITOR</text>
<text text-anchor="middle" x="318" y="-184.8" font-family="Courier New" font-size="9.00" fill="#ffffff">Stopping LVM2 mirrors, snapshots etc.</text>
<text text-anchor="middle" x="318" y="-174.8" font-family="Courier New" font-size="9.00" fill="#ffffff">(lvm2&#45;monitor.service takes ~9.0s)</text>
</g>
<!-- spinup_delay&#45;&gt;lvm_cleanup -->
<g id="edge12" class="edge">
<title>spinup_delay&#45;&gt;lvm_cleanup</title>
<path fill="none" stroke="#ff00cc" stroke-width="1.5" d="M229.92,-242.96C245.11,-233.48 263.91,-221.75 280.23,-211.57"/>
<polygon fill="#ff00cc" stroke="#ff00cc" stroke-width="1.5" points="282.37,-214.35 289.01,-206.09 278.67,-208.41 282.37,-214.35"/>
</g>
<!-- stay_standby_node -->
<g id="node11" class="node">
<title>stay_standby_node</title>
<polygon fill="#11241a" stroke="#00ff88" stroke-width="2" points="518,-281 354,-281 354,-243 518,-243 518,-281"/>
<text text-anchor="middle" x="436" y="-269.8" font-family="Courier New" font-size="9.00" fill="#ffffff">Quiescent State Maintained</text>
<text text-anchor="middle" x="436" y="-259.8" font-family="Courier New" font-size="9.00" fill="#ffffff">Unmount completes instantly</text>
<text text-anchor="middle" x="436" y="-249.8" font-family="Courier New" font-size="9.00" fill="#ffffff">Result: Zero spin&#45;up latency</text>
</g>
<!-- unmount_ro&#45;&gt;stay_standby_node -->
<g id="edge7" class="edge">
<title>unmount_ro&#45;&gt;stay_standby_node</title>
<path fill="none" stroke="#ff00cc" stroke-width="1.5" d="M442.18,-325.62C441.18,-315.4 439.9,-302.47 438.77,-291.01"/>
<polygon fill="#ff00cc" stroke="#ff00cc" stroke-width="1.5" points="442.25,-290.64 437.78,-281.03 435.28,-291.32 442.25,-290.64"/>
<text text-anchor="middle" x="492" y="-301.6" font-family="Courier New" font-size="8.00" fill="#ff00cc">Purely memory operation</text>
</g>
<!-- stay_standby_node&#45;&gt;lvm_cleanup -->
<g id="edge13" class="edge">
<title>stay_standby_node&#45;&gt;lvm_cleanup</title>
<path fill="none" stroke="#ff00cc" stroke-width="1.5" d="M406.83,-242.96C391.51,-233.48 372.56,-221.75 356.09,-211.57"/>
<polygon fill="#ff00cc" stroke="#ff00cc" stroke-width="1.5" points="357.59,-208.37 347.24,-206.09 353.9,-214.33 357.59,-208.37"/>
</g>
<!-- shutdown_target -->
<g id="node13" class="node">
<title>shutdown_target</title>
<polygon fill="#121e28" stroke="#00ffcc" stroke-width="2" points="434,-131 202,-131 202,-93 434,-93 434,-131"/>
<text text-anchor="middle" x="318" y="-119.8" font-family="Courier New" font-size="9.00" fill="#ffffff">6. SYSTEM SHUTDOWN TARGET REACHED</text>
<text text-anchor="middle" x="318" y="-109.8" font-family="Courier New" font-size="9.00" fill="#ffffff">systemd&#45;shutdown[1] executes in initramfs</text>
<text text-anchor="middle" x="318" y="-99.8" font-family="Courier New" font-size="9.00" fill="#ffffff">Syncing filesystems and block devices</text>
</g>
<!-- lvm_cleanup&#45;&gt;shutdown_target -->
<g id="edge14" class="edge">
<title>lvm_cleanup&#45;&gt;shutdown_target</title>
<path fill="none" stroke="#ff00cc" stroke-width="1.5" d="M318,-167.96C318,-159.88 318,-150.18 318,-141.18"/>
<polygon fill="#ff00cc" stroke="#ff00cc" stroke-width="1.5" points="321.5,-141.09 318,-131.09 314.5,-141.09 321.5,-141.09"/>
</g>
<!-- final_reboot -->
<g id="node14" class="node">
<title>final_reboot</title>
<polygon fill="#2e1114" stroke="#ff3838" stroke-width="2" points="423.5,-48 212.5,-48 212.5,0 423.5,0 423.5,-48"/>
<text text-anchor="middle" x="318" y="-36.8" font-family="Courier New" font-size="9.00" fill="#ffffff">7. REBOOT SYSCALL</text>
<text text-anchor="middle" x="318" y="-26.8" font-family="Courier New" font-size="9.00" fill="#ffffff">Remaining processes SIGKILLed</text>
<text text-anchor="middle" x="318" y="-16.8" font-family="Courier New" font-size="9.00" fill="#ffffff">systemd&#45;journald stopped</text>
<text text-anchor="middle" x="318" y="-6.8" font-family="Courier New" font-size="9.00" fill="#ffffff">Hardware power cycle or reset command</text>
</g>
<!-- shutdown_target&#45;&gt;final_reboot -->
<g id="edge15" class="edge">
<title>shutdown_target&#45;&gt;final_reboot</title>
<path fill="none" stroke="#ff00cc" stroke-width="1.5" d="M318,-92.76C318,-82.8 318,-70.14 318,-58.47"/>
<polygon fill="#ff00cc" stroke="#ff00cc" stroke-width="1.5" points="321.5,-58.13 318,-48.13 314.5,-58.13 321.5,-58.13"/>
<text text-anchor="middle" x="372.5" y="-68.6" font-family="Courier New" font-size="8.00" fill="#ff00cc">Final initramfs handover</text>
</g>
</g>
</svg>
