<?xml version="1.0" encoding="UTF-8" standalone="no"?>
<!DOCTYPE svg PUBLIC "-//W3C//DTD SVG 1.1//EN"
 "http://www.w3.org/Graphics/SVG/1.1/DTD/svg11.dtd">
<!-- Generated by graphviz version 2.43.0 (0)
 -->
<!-- Title: StorageTopology Pages: 1 -->
<svg width="2438pt" height="326pt"
 viewBox="0.00 0.00 2438.00 326.00" xmlns="http://www.w3.org/2000/svg" xmlns:xlink="http://www.w3.org/1999/xlink">
<g id="graph0" class="graph" transform="scale(1 1) rotate(0) translate(36 290)">
<title>StorageTopology</title>
<polygon fill="#0d0e15" stroke="transparent" points="-36,36 -36,-290 2402,-290 2402,36 -36,36"/>
<text text-anchor="middle" x="1183" y="-235.6" font-family="Courier New" font-size="18.00" fill="#00ffcc">SYSTEM STORAGE TOPOLOGY &amp; SMART HEALTH MAP</text>
<g id="clust1" class="cluster">
<title>cluster_host</title>
<polygon fill="#0d0e15" stroke="#a29bfe" stroke-dasharray="5,2" points="8,-77 8,-218 2358,-218 2358,-77 8,-77"/>
<text text-anchor="middle" x="1183" y="-202.8" font-family="Courier New" font-size="14.00" fill="#a29bfe">Host System: WORLOCK</text>
</g>
<g id="clust2" class="cluster">
<title>cluster_nvme</title>
<polygon fill="#0d0e15" stroke="#3399ff" points="16,-90.5 16,-181.5 647,-181.5 647,-90.5 16,-90.5"/>
<text text-anchor="middle" x="331.5" y="-166.3" font-family="Courier New" font-size="14.00" fill="#3399ff">NVMe Controller (PCIe High&#45;Speed)</text>
</g>
<g id="clust3" class="cluster">
<title>cluster_sata_ssd</title>
<polygon fill="#0d0e15" stroke="#00ff88" points="655,-90.5 655,-181.5 1042,-181.5 1042,-90.5 655,-90.5"/>
<text text-anchor="middle" x="848.5" y="-166.3" font-family="Courier New" font-size="14.00" fill="#00ff88">SATA SSDs (Active/Idle)</text>
</g>
<g id="clust4" class="cluster">
<title>cluster_quiescent_hdd</title>
<polygon fill="#0d0e15" stroke="#ff0055" points="1050,-85 1050,-187 1831,-187 1831,-85 1050,-85"/>
<text text-anchor="middle" x="1440.5" y="-171.8" font-family="Courier New" font-size="14.00" fill="#ff0055">Mechanical HDDs (Quiescent Power Management)</text>
</g>
<g id="clust5" class="cluster">
<title>cluster_sata_raid</title>
<polygon fill="#0d0e15" stroke="#ffff00" points="1839,-85 1839,-187 2350,-187 2350,-85 1839,-85"/>
<text text-anchor="middle" x="2094.5" y="-171.8" font-family="Courier New" font-size="14.00" fill="#ffff00">SATA RAID Array (Active Mechanical)</text>
</g>
<!-- nvme2n1 -->
<g id="node1" class="node">
<title>nvme2n1</title>
<polygon fill="#121e28" stroke="#00ffcc" stroke-width="2" points="226.5,-150.5 23.5,-150.5 23.5,-98.5 226.5,-98.5 226.5,-150.5"/>
<text text-anchor="middle" x="125" y="-138.5" font-family="Courier New" font-size="10.00" fill="#ffffff">nvme2n1 (Intel SSDPEKNW010 1TB)</text>
<text text-anchor="middle" x="125" y="-127.5" font-family="Courier New" font-size="10.00" fill="#ffffff">[System Boot]</text>
<text text-anchor="middle" x="125" y="-116.5" font-family="Courier New" font-size="10.00" fill="#ffffff">POH: 1995 hrs | PC: 66</text>
<text text-anchor="middle" x="125" y="-105.5" font-family="Courier New" font-size="10.00" fill="#ffffff">Temp: 29°C</text>
</g>
<!-- root_fs -->
<g id="node12" class="node">
<title>root_fs</title>
<polygon fill="#161925" stroke="#00d2ff" stroke-width="2" points="193.5,-41 56.5,-41 56.5,0 193.5,0 193.5,-41"/>
<text text-anchor="middle" x="125" y="-29" font-family="Courier New" font-size="10.00" fill="#ffffff">/ (Root Filesystem)</text>
<text text-anchor="middle" x="125" y="-18" font-family="Courier New" font-size="10.00" fill="#ffffff">Mounted on nvme2n1p1</text>
<text text-anchor="middle" x="125" y="-7" font-family="Courier New" font-size="10.00" fill="#ffffff">Type: ext4</text>
</g>
<!-- nvme2n1&#45;&gt;root_fs -->
<g id="edge1" class="edge">
<title>nvme2n1&#45;&gt;root_fs</title>
<path fill="none" stroke="#ff00cc" stroke-width="1.5" d="M125,-98.29C125,-84.14 125,-66.4 125,-51.54"/>
<polygon fill="#ff00cc" stroke="#ff00cc" stroke-width="1.5" points="128.5,-51.32 125,-41.32 121.5,-51.32 128.5,-51.32"/>
<text text-anchor="middle" x="157" y="-61.8" font-family="Courier New" font-size="9.00" fill="#ff00cc">partition p1</text>
</g>
<!-- nvme0n1 -->
<g id="node2" class="node">
<title>nvme0n1</title>
<polygon fill="#121e28" stroke="#00ffcc" stroke-width="2" points="423.5,-150.5 244.5,-150.5 244.5,-98.5 423.5,-98.5 423.5,-150.5"/>
<text text-anchor="middle" x="334" y="-138.5" font-family="Courier New" font-size="10.00" fill="#ffffff">nvme0n1 (WDS500G2X0C 500GB)</text>
<text text-anchor="middle" x="334" y="-127.5" font-family="Courier New" font-size="10.00" fill="#ffffff">[Walter Root System]</text>
<text text-anchor="middle" x="334" y="-116.5" font-family="Courier New" font-size="10.00" fill="#ffffff">POH: ~45,000 hrs</text>
<text text-anchor="middle" x="334" y="-105.5" font-family="Courier New" font-size="10.00" fill="#ffffff">Temp: 30°C</text>
</g>
<!-- nvme1n1 -->
<g id="node3" class="node">
<title>nvme1n1</title>
<polygon fill="#121e28" stroke="#00ffcc" stroke-width="2" points="638.5,-150.5 441.5,-150.5 441.5,-98.5 638.5,-98.5 638.5,-150.5"/>
<text text-anchor="middle" x="540" y="-138.5" font-family="Courier New" font-size="10.00" fill="#ffffff">nvme1n1 (Crucial CT4000P3 4TB)</text>
<text text-anchor="middle" x="540" y="-127.5" font-family="Courier New" font-size="10.00" fill="#ffffff">[NVMe Staging Area]</text>
<text text-anchor="middle" x="540" y="-116.5" font-family="Courier New" font-size="10.00" fill="#ffffff">POH: ~45,000 hrs</text>
<text text-anchor="middle" x="540" y="-105.5" font-family="Courier New" font-size="10.00" fill="#ffffff">Temp: 29°C</text>
</g>
<!-- nvme_stage_fs -->
<g id="node13" class="node">
<title>nvme_stage_fs</title>
<polygon fill="#161925" stroke="#00d2ff" stroke-width="2" points="608.5,-41 471.5,-41 471.5,0 608.5,0 608.5,-41"/>
<text text-anchor="middle" x="540" y="-29" font-family="Courier New" font-size="10.00" fill="#ffffff">/mnt/nvme_staging</text>
<text text-anchor="middle" x="540" y="-18" font-family="Courier New" font-size="10.00" fill="#ffffff">Mounted on nvme1n1p2</text>
<text text-anchor="middle" x="540" y="-7" font-family="Courier New" font-size="10.00" fill="#ffffff">Type: ext4</text>
</g>
<!-- nvme1n1&#45;&gt;nvme_stage_fs -->
<g id="edge2" class="edge">
<title>nvme1n1&#45;&gt;nvme_stage_fs</title>
<path fill="none" stroke="#ff00cc" stroke-width="1.5" d="M540,-98.29C540,-84.14 540,-66.4 540,-51.54"/>
<polygon fill="#ff00cc" stroke="#ff00cc" stroke-width="1.5" points="543.5,-51.32 540,-41.32 536.5,-51.32 543.5,-51.32"/>
<text text-anchor="middle" x="572" y="-61.8" font-family="Courier New" font-size="9.00" fill="#ff00cc">partition p2</text>
</g>
<!-- sda -->
<g id="node4" class="node">
<title>sda</title>
<polygon fill="#11241a" stroke="#00ff88" stroke-width="2" points="1033.5,-150.5 854.5,-150.5 854.5,-98.5 1033.5,-98.5 1033.5,-150.5"/>
<text text-anchor="middle" x="944" y="-138.5" font-family="Courier New" font-size="10.00" fill="#ffffff">sda (Samsung 870 EVO 500GB)</text>
<text text-anchor="middle" x="944" y="-127.5" font-family="Courier New" font-size="10.00" fill="#ffffff">[Samsung SSD Mount]</text>
<text text-anchor="middle" x="944" y="-116.5" font-family="Courier New" font-size="10.00" fill="#ffffff">POH: 1995 hrs | PC: 66</text>
<text text-anchor="middle" x="944" y="-105.5" font-family="Courier New" font-size="10.00" fill="#ffffff">Temp: 29°C</text>
</g>
<!-- sda_mount -->
<g id="node14" class="node">
<title>sda_mount</title>
<polygon fill="#161925" stroke="#00ff88" stroke-width="2" points="1000.5,-41 887.5,-41 887.5,0 1000.5,0 1000.5,-41"/>
<text text-anchor="middle" x="944" y="-29" font-family="Courier New" font-size="10.00" fill="#ffffff">/mnt/samsung_ssd</text>
<text text-anchor="middle" x="944" y="-18" font-family="Courier New" font-size="10.00" fill="#ffffff">Mounted on sda1</text>
<text text-anchor="middle" x="944" y="-7" font-family="Courier New" font-size="10.00" fill="#ffffff">Type: ext4</text>
</g>
<!-- sda&#45;&gt;sda_mount -->
<g id="edge3" class="edge">
<title>sda&#45;&gt;sda_mount</title>
<path fill="none" stroke="#ff00cc" stroke-width="1.5" d="M944,-98.29C944,-84.14 944,-66.4 944,-51.54"/>
<polygon fill="#ff00cc" stroke="#ff00cc" stroke-width="1.5" points="947.5,-51.32 944,-41.32 940.5,-51.32 947.5,-51.32"/>
<text text-anchor="middle" x="981" y="-61.8" font-family="Courier New" font-size="9.00" fill="#ff00cc">partition sda1</text>
</g>
<!-- sdb -->
<g id="node5" class="node">
<title>sdb</title>
<polygon fill="#11241a" stroke="#00ff88" stroke-width="2" points="836.5,-150.5 663.5,-150.5 663.5,-98.5 836.5,-98.5 836.5,-150.5"/>
<text text-anchor="middle" x="750" y="-138.5" font-family="Courier New" font-size="10.00" fill="#ffffff">sdb (WDC WDS100T2B 1TB)</text>
<text text-anchor="middle" x="750" y="-127.5" font-family="Courier New" font-size="10.00" fill="#ffffff">[Unused SSD Partitions]</text>
<text text-anchor="middle" x="750" y="-116.5" font-family="Courier New" font-size="10.00" fill="#ffffff">POH: 31,526 hrs | PC: 1395</text>
<text text-anchor="middle" x="750" y="-105.5" font-family="Courier New" font-size="10.00" fill="#ffffff">Temp: 30°C</text>
</g>
<!-- sdc -->
<g id="node6" class="node">
<title>sdc</title>
<polygon fill="#2d161a" stroke="#ff9f43" stroke-width="2" points="1303.5,-156 1058.5,-156 1058.5,-93 1303.5,-93 1303.5,-156"/>
<text text-anchor="middle" x="1181" y="-144" font-family="Courier New" font-size="10.00" fill="#ffffff">sdc (WDC WD10EURX 1TB)</text>
<text text-anchor="middle" x="1181" y="-133" font-family="Courier New" font-size="10.00" fill="#ffffff">[WD Blue Backup &#45; AV&#45;GP]</text>
<text text-anchor="middle" x="1181" y="-122" font-family="Courier New" font-size="10.00" fill="#ffffff">POH: 72,561 hrs | PC: 471</text>
<text text-anchor="middle" x="1181" y="-111" font-family="Courier New" font-size="10.00" fill="#ffffff">Start/Stop: 526 | Load/Unload: 8587</text>
<text text-anchor="middle" x="1181" y="-100" font-family="Courier New" font-size="10.00" fill="#ffffff">Ratio: 1.1 (Surveillance 24/7 history)</text>
</g>
<!-- sdc_mount -->
<g id="node15" class="node">
<title>sdc_mount</title>
<polygon fill="#122c26" stroke="#00ffcc" stroke-width="2" points="1258.5,-41 1103.5,-41 1103.5,0 1258.5,0 1258.5,-41"/>
<text text-anchor="middle" x="1181" y="-29" font-family="Courier New" font-size="10.00" fill="#ffffff">/mnt/sda1 (WD&#45;Blue)</text>
<text text-anchor="middle" x="1181" y="-18" font-family="Courier New" font-size="10.00" fill="#ffffff">Mounted: READ&#45;ONLY (ro)</text>
<text text-anchor="middle" x="1181" y="-7" font-family="Courier New" font-size="10.00" fill="#ffffff">Type: ext4</text>
</g>
<!-- sdc&#45;&gt;sdc_mount -->
<g id="edge4" class="edge">
<title>sdc&#45;&gt;sdc_mount</title>
<path fill="none" stroke="#00ffcc" stroke-width="1.5" d="M1181,-92.9C1181,-79.79 1181,-64.52 1181,-51.48"/>
<polygon fill="#00ffcc" stroke="#00ffcc" stroke-width="1.5" points="1184.5,-51.14 1181,-41.14 1177.5,-51.14 1184.5,-51.14"/>
<text text-anchor="middle" x="1231" y="-61.8" font-family="Courier New" font-size="9.00" fill="#ff00cc">sdc1 (remounted ro)</text>
</g>
<!-- sde -->
<g id="node7" class="node">
<title>sde</title>
<polygon fill="#2d161a" stroke="#ff5252" stroke-width="2" points="1572.5,-156 1321.5,-156 1321.5,-93 1572.5,-93 1572.5,-156"/>
<text text-anchor="middle" x="1447" y="-144" font-family="Courier New" font-size="10.00" fill="#ffffff">sde (Hitachi HUA723020 2TB)</text>
<text text-anchor="middle" x="1447" y="-133" font-family="Courier New" font-size="10.00" fill="#ffffff">[Hitachi Storage &#45; Ultrastar]</text>
<text text-anchor="middle" x="1447" y="-122" font-family="Courier New" font-size="10.00" fill="#ffffff">POH: 43,264 hrs | PC: 751</text>
<text text-anchor="middle" x="1447" y="-111" font-family="Courier New" font-size="10.00" fill="#ffffff">Start/Stop: 18,209 | Load/Unload: 18730</text>
<text text-anchor="middle" x="1447" y="-100" font-family="Courier New" font-size="10.00" fill="#ffffff">Ratio: 24.2 (High Spindown Wear)</text>
</g>
<!-- sde_mount -->
<g id="node16" class="node">
<title>sde_mount</title>
<polygon fill="#122c26" stroke="#00ffcc" stroke-width="2" points="1524.5,-41 1369.5,-41 1369.5,0 1524.5,0 1524.5,-41"/>
<text text-anchor="middle" x="1447" y="-29" font-family="Courier New" font-size="10.00" fill="#ffffff">/mnt/hitachi_2tb</text>
<text text-anchor="middle" x="1447" y="-18" font-family="Courier New" font-size="10.00" fill="#ffffff">Mounted: READ&#45;ONLY (ro)</text>
<text text-anchor="middle" x="1447" y="-7" font-family="Courier New" font-size="10.00" fill="#ffffff">Type: ext4</text>
</g>
<!-- sde&#45;&gt;sde_mount -->
<g id="edge5" class="edge">
<title>sde&#45;&gt;sde_mount</title>
<path fill="none" stroke="#00ffcc" stroke-width="1.5" d="M1447,-92.9C1447,-79.79 1447,-64.52 1447,-51.48"/>
<polygon fill="#00ffcc" stroke="#00ffcc" stroke-width="1.5" points="1450.5,-51.14 1447,-41.14 1443.5,-51.14 1450.5,-51.14"/>
<text text-anchor="middle" x="1497" y="-61.8" font-family="Courier New" font-size="9.00" fill="#ff00cc">sde1 (remounted ro)</text>
</g>
<!-- sdg -->
<g id="node8" class="node">
<title>sdg</title>
<polygon fill="#2d161a" stroke="#ff9f43" stroke-width="2" points="1823.5,-156 1590.5,-156 1590.5,-93 1823.5,-93 1823.5,-156"/>
<text text-anchor="middle" x="1707" y="-144" font-family="Courier New" font-size="10.00" fill="#ffffff">sdg (WDC WD4005FZBX 4TB)</text>
<text text-anchor="middle" x="1707" y="-133" font-family="Courier New" font-size="10.00" fill="#ffffff">[WD Black &#45; PDF Backup]</text>
<text text-anchor="middle" x="1707" y="-122" font-family="Courier New" font-size="10.00" fill="#ffffff">POH: 22,382 hrs | PC: 1204</text>
<text text-anchor="middle" x="1707" y="-111" font-family="Courier New" font-size="10.00" fill="#ffffff">Start/Stop: 3520 | Load/Unload: 4117</text>
<text text-anchor="middle" x="1707" y="-100" font-family="Courier New" font-size="10.00" fill="#ffffff">Ratio: 2.9 (Noauto standby)</text>
</g>
<!-- sdg_mount -->
<g id="node17" class="node">
<title>sdg_mount</title>
<polygon fill="#222f3e" stroke="#8395a7" stroke-width="2" points="1793.5,-41 1620.5,-41 1620.5,0 1793.5,0 1793.5,-41"/>
<text text-anchor="middle" x="1707" y="-29" font-family="Courier New" font-size="10.00" fill="#ffffff">/mnt/pdf_backup</text>
<text text-anchor="middle" x="1707" y="-18" font-family="Courier New" font-size="10.00" fill="#ffffff">Status: UNMOUNTED (noauto)</text>
<text text-anchor="middle" x="1707" y="-7" font-family="Courier New" font-size="10.00" fill="#ffffff">Type: ext4</text>
</g>
<!-- sdg&#45;&gt;sdg_mount -->
<g id="edge6" class="edge">
<title>sdg&#45;&gt;sdg_mount</title>
<path fill="none" stroke="#8395a7" stroke-width="1.5" d="M1707,-92.9C1707,-79.79 1707,-64.52 1707,-51.48"/>
<polygon fill="#8395a7" stroke="#8395a7" stroke-width="1.5" points="1710.5,-51.14 1707,-41.14 1703.5,-51.14 1710.5,-51.14"/>
<text text-anchor="middle" x="1741.5" y="-61.8" font-family="Courier New" font-size="9.00" fill="#ff00cc">sdg1 (noauto)</text>
</g>
<!-- sdd -->
<g id="node9" class="node">
<title>sdd</title>
<polygon fill="#242411" stroke="#ffff00" stroke-width="2" points="2085.5,-156 1846.5,-156 1846.5,-93 2085.5,-93 2085.5,-156"/>
<text text-anchor="middle" x="1966" y="-144" font-family="Courier New" font-size="10.00" fill="#ffffff">sdd (Seagate IronWolf 12TB)</text>
<text text-anchor="middle" x="1966" y="-133" font-family="Courier New" font-size="10.00" fill="#ffffff">[RAID&#45;0 Member]</text>
<text text-anchor="middle" x="1966" y="-122" font-family="Courier New" font-size="10.00" fill="#ffffff">POH: 16,869 hrs | PC: 927</text>
<text text-anchor="middle" x="1966" y="-111" font-family="Courier New" font-size="10.00" fill="#ffffff">Start/Stop: 1046 | Load/Unload: 67690</text>
<text text-anchor="middle" x="1966" y="-100" font-family="Courier New" font-size="10.00" fill="#ffffff">Temp: 29°C</text>
</g>
<!-- md0 -->
<g id="node11" class="node">
<title>md0</title>
<polygon fill="#161925" stroke="#ffff00" stroke-width="2" points="2172.5,-41 2017.5,-41 2017.5,0 2172.5,0 2172.5,-41"/>
<text text-anchor="middle" x="2095" y="-29" font-family="Courier New" font-size="10.00" fill="#ffffff">/dev/md0 (RAID&#45;0 Array)</text>
<text text-anchor="middle" x="2095" y="-18" font-family="Courier New" font-size="10.00" fill="#ffffff">11TB Logical Volume</text>
<text text-anchor="middle" x="2095" y="-7" font-family="Courier New" font-size="10.00" fill="#ffffff">Mounted on /mnt/raid0</text>
</g>
<!-- sdd&#45;&gt;md0 -->
<g id="edge7" class="edge">
<title>sdd&#45;&gt;md0</title>
<path fill="none" stroke="#ffff00" stroke-width="1.5" d="M2004.7,-92.9C2022.94,-78.47 2044.48,-61.45 2061.94,-47.64"/>
<polygon fill="#ffff00" stroke="#ffff00" stroke-width="1.5" points="2064.49,-50.09 2070.16,-41.14 2060.14,-44.6 2064.49,-50.09"/>
<text text-anchor="middle" x="2084.5" y="-61.8" font-family="Courier New" font-size="9.00" fill="#ff00cc">RAID&#45;0 striping</text>
</g>
<!-- sdf -->
<g id="node10" class="node">
<title>sdf</title>
<polygon fill="#242411" stroke="#ffff00" stroke-width="2" points="2342.5,-156 2103.5,-156 2103.5,-93 2342.5,-93 2342.5,-156"/>
<text text-anchor="middle" x="2223" y="-144" font-family="Courier New" font-size="10.00" fill="#ffffff">sdf (Seagate IronWolf 12TB)</text>
<text text-anchor="middle" x="2223" y="-133" font-family="Courier New" font-size="10.00" fill="#ffffff">[RAID&#45;0 Member]</text>
<text text-anchor="middle" x="2223" y="-122" font-family="Courier New" font-size="10.00" fill="#ffffff">POH: 17,328 hrs | PC: 939</text>
<text text-anchor="middle" x="2223" y="-111" font-family="Courier New" font-size="10.00" fill="#ffffff">Start/Stop: 1112 | Load/Unload: 78484</text>
<text text-anchor="middle" x="2223" y="-100" font-family="Courier New" font-size="10.00" fill="#ffffff">Temp: 29°C</text>
</g>
<!-- sdf&#45;&gt;md0 -->
<g id="edge8" class="edge">
<title>sdf&#45;&gt;md0</title>
<path fill="none" stroke="#ffff00" stroke-width="1.5" d="M2184.6,-92.9C2166.5,-78.47 2145.13,-61.45 2127.8,-47.64"/>
<polygon fill="#ffff00" stroke="#ffff00" stroke-width="1.5" points="2129.65,-44.64 2119.65,-41.14 2125.29,-50.11 2129.65,-44.64"/>
<text text-anchor="middle" x="2190.5" y="-61.8" font-family="Courier New" font-size="9.00" fill="#ff00cc">RAID&#45;0 striping</text>
</g>
</g>
</svg>
