<?xml version="1.0" encoding="UTF-8" standalone="no"?>
<!DOCTYPE svg PUBLIC "-//W3C//DTD SVG 1.1//EN"
 "http://www.w3.org/Graphics/SVG/1.1/DTD/svg11.dtd">
<!-- Generated by graphviz version 2.43.0 (0)
 -->
<!-- Title: NimArchitecture Pages: 1 -->
<svg width="1424pt" height="483pt"
 viewBox="0.00 0.00 1423.50 483.00" xmlns="http://www.w3.org/2000/svg" xmlns:xlink="http://www.w3.org/1999/xlink">
<g id="graph0" class="graph" transform="scale(1 1) rotate(0) translate(36 447)">
<title>NimArchitecture</title>
<polygon fill="#0d0e15" stroke="transparent" points="-36,36 -36,-447 1387.5,-447 1387.5,36 -36,36"/>
<text text-anchor="middle" x="675.75" y="-392.6" font-family="Courier New" font-size="18.00" fill="#00ffcc">NIM QUIESCENT SUITE ARCHITECTURE MAP</text>
<g id="clust1" class="cluster">
<title>cluster_lib</title>
<polygon fill="#0d0e15" stroke="#a29bfe" stroke-dasharray="5,2" points="727.5,-178 727.5,-310 1073.5,-310 1073.5,-178 727.5,-178"/>
<text text-anchor="middle" x="900.5" y="-291.6" font-family="Courier New" font-size="18.00" fill="#a29bfe">Shared Modules (quiescent/*)</text>
</g>
<!-- drive_mod -->
<g id="node1" class="node">
<title>drive_mod</title>
<polygon fill="#121e28" stroke="#00ffcc" stroke-width="2" points="889,-274 736,-274 736,-186 889,-186 889,-274"/>
<text text-anchor="middle" x="812.5" y="-262.8" font-family="Courier New" font-size="9.00" fill="#ffffff">drive.nim</text>
<text text-anchor="middle" x="812.5" y="-252.8" font-family="Courier New" font-size="9.00" fill="#ffffff">&#45; Drive state tracking</text>
<text text-anchor="middle" x="812.5" y="-242.8" font-family="Courier New" font-size="9.00" fill="#ffffff">&#45; parsePowerState()</text>
<text text-anchor="middle" x="812.5" y="-232.8" font-family="Courier New" font-size="9.00" fill="#ffffff">&#45; blockDev() &amp; present()</text>
<text text-anchor="middle" x="812.5" y="-222.8" font-family="Courier New" font-size="9.00" fill="#ffffff">&#45; powerState() [hdparm &#45;C]</text>
<text text-anchor="middle" x="812.5" y="-212.8" font-family="Courier New" font-size="9.00" fill="#ffffff">&#45; forcePark() [hdparm &#45;y]</text>
<text text-anchor="middle" x="812.5" y="-202.8" font-family="Courier New" font-size="9.00" fill="#ffffff">&#45; armTimer() [hdparm &#45;S]</text>
<text text-anchor="middle" x="812.5" y="-192.8" font-family="Courier New" font-size="9.00" fill="#ffffff">&#45; poll() (in&#45;memory state)</text>
</g>
<!-- sysfs -->
<g id="node8" class="node">
<title>sysfs</title>
<polygon fill="#2d161a" stroke="#ff9f43" stroke-width="2" points="621,-131 442,-131 442,-93 621,-93 621,-131"/>
<text text-anchor="middle" x="531.5" y="-119.8" font-family="Courier New" font-size="9.00" fill="#ffffff">Sysfs Block Devices</text>
<text text-anchor="middle" x="531.5" y="-109.8" font-family="Courier New" font-size="9.00" fill="#ffffff">/sys/block/&lt;dev&gt;/stat</text>
<text text-anchor="middle" x="531.5" y="-99.8" font-family="Courier New" font-size="9.00" fill="#ffffff">(Read/Write operations counter)</text>
</g>
<!-- drive_mod&#45;&gt;sysfs -->
<g id="edge8" class="edge">
<title>drive_mod&#45;&gt;sysfs</title>
<path fill="none" stroke="#ff00cc" stroke-width="1.5" d="M735.75,-219.83C667.82,-210.23 575.41,-193.03 548.5,-168 540.95,-160.98 536.72,-150.69 534.37,-140.9"/>
<polygon fill="#ff00cc" stroke="#ff00cc" stroke-width="1.5" points="537.8,-140.23 532.53,-131.04 530.92,-141.51 537.8,-140.23"/>
<text text-anchor="middle" x="607.5" y="-161.6" font-family="Courier New" font-size="8.00" fill="#ff00cc">Reads block I/O statistics</text>
</g>
<!-- hdparm -->
<g id="node9" class="node">
<title>hdparm</title>
<polygon fill="#2d161a" stroke="#ff9f43" stroke-width="2" points="424,-131 239,-131 239,-93 424,-93 424,-131"/>
<text text-anchor="middle" x="331.5" y="-119.8" font-family="Courier New" font-size="9.00" fill="#ffffff">ATA Controller via hdparm</text>
<text text-anchor="middle" x="331.5" y="-109.8" font-family="Courier New" font-size="9.00" fill="#ffffff">&#45; non&#45;intrusive state query (&#45;C)</text>
<text text-anchor="middle" x="331.5" y="-99.8" font-family="Courier New" font-size="9.00" fill="#ffffff">&#45; immediate standby / park (&#45;y)</text>
</g>
<!-- drive_mod&#45;&gt;hdparm -->
<g id="edge9" class="edge">
<title>drive_mod&#45;&gt;hdparm</title>
<path fill="none" stroke="#ff00cc" stroke-width="1.5" d="M735.77,-228.15C652.13,-224.82 515.78,-212.25 407.5,-168 389.9,-160.81 372.54,-148.73 358.87,-137.73"/>
<polygon fill="#ff00cc" stroke="#ff00cc" stroke-width="1.5" points="360.79,-134.77 350.86,-131.07 356.31,-140.15 360.79,-134.77"/>
<text text-anchor="middle" x="473" y="-161.6" font-family="Courier New" font-size="8.00" fill="#ff00cc">Checks state &amp; forces standby</text>
</g>
<!-- config_mod -->
<g id="node2" class="node">
<title>config_mod</title>
<polygon fill="#121e28" stroke="#00ffcc" stroke-width="2" points="1065.5,-259 907.5,-259 907.5,-201 1065.5,-201 1065.5,-259"/>
<text text-anchor="middle" x="986.5" y="-247.8" font-family="Courier New" font-size="9.00" fill="#ffffff">config.nim</text>
<text text-anchor="middle" x="986.5" y="-237.8" font-family="Courier New" font-size="9.00" fill="#ffffff">&#45; parseConfig()</text>
<text text-anchor="middle" x="986.5" y="-227.8" font-family="Courier New" font-size="9.00" fill="#ffffff">&#45; loadConfig()</text>
<text text-anchor="middle" x="986.5" y="-217.8" font-family="Courier New" font-size="9.00" fill="#ffffff">&#45; Loads /etc/quiescent.conf</text>
<text text-anchor="middle" x="986.5" y="-207.8" font-family="Courier New" font-size="9.00" fill="#ffffff">&#45; intervalSecs &amp; Drive list</text>
</g>
<!-- quiescentd -->
<g id="node4" class="node">
<title>quiescentd</title>
<polygon fill="#11241a" stroke="#00ff88" stroke-width="2" points="839.5,-141 639.5,-141 639.5,-83 839.5,-83 839.5,-141"/>
<text text-anchor="middle" x="739.5" y="-129.8" font-family="Courier New" font-size="9.00" fill="#ffffff">quiescentd (Daemon)</text>
<text text-anchor="middle" x="739.5" y="-119.8" font-family="Courier New" font-size="9.00" fill="#ffffff">&#45; Starts at boot via systemd</text>
<text text-anchor="middle" x="739.5" y="-109.8" font-family="Courier New" font-size="9.00" fill="#ffffff">&#45; Arms timer&#45;mode drives once</text>
<text text-anchor="middle" x="739.5" y="-99.8" font-family="Courier New" font-size="9.00" fill="#ffffff">&#45; Watch loop polls drives in memory</text>
<text text-anchor="middle" x="739.5" y="-89.8" font-family="Courier New" font-size="9.00" fill="#ffffff">&#45; Issues hdparm &#45;y on idle timeout</text>
</g>
<!-- config_mod&#45;&gt;quiescentd -->
<g id="edge2" class="edge">
<title>config_mod&#45;&gt;quiescentd</title>
<path fill="none" stroke="#00ffcc" stroke-width="1.5" d="M986.73,-200.7C985.3,-186.21 980.95,-169.46 969.5,-159 951.15,-142.24 887.51,-145.58 849.7,-140.77"/>
<polygon fill="#00ffcc" stroke="#00ffcc" stroke-width="1.5" points="850.21,-137.31 839.78,-139.18 849.1,-144.22 850.21,-137.31"/>
<text text-anchor="middle" x="1032" y="-161.6" font-family="Courier New" font-size="8.00" fill="#ff00cc">Loads configuration data</text>
</g>
<!-- quiescentctl -->
<g id="node5" class="node">
<title>quiescentctl</title>
<polygon fill="#11241a" stroke="#00ff88" stroke-width="2" points="1105.5,-136 857.5,-136 857.5,-88 1105.5,-88 1105.5,-136"/>
<text text-anchor="middle" x="981.5" y="-124.8" font-family="Courier New" font-size="9.00" fill="#ffffff">quiescentctl (Control CLI)</text>
<text text-anchor="middle" x="981.5" y="-114.8" font-family="Courier New" font-size="9.00" fill="#ffffff">&#45; Command&#45;line status utility</text>
<text text-anchor="middle" x="981.5" y="-104.8" font-family="Courier New" font-size="9.00" fill="#ffffff">&#45; Offers status check &amp; manually park</text>
<text text-anchor="middle" x="981.5" y="-94.8" font-family="Courier New" font-size="9.00" fill="#ffffff">&#45; Handles mountpoint remount&#45;ro &amp; remount&#45;rw</text>
</g>
<!-- config_mod&#45;&gt;quiescentctl -->
<g id="edge3" class="edge">
<title>config_mod&#45;&gt;quiescentctl</title>
<path fill="none" stroke="#00ffcc" stroke-width="1.5" d="M1065.85,-209.14C1094.69,-197.81 1116.86,-181.34 1101.5,-159 1096.92,-152.34 1091.24,-146.65 1084.85,-141.78"/>
<polygon fill="#00ffcc" stroke="#00ffcc" stroke-width="1.5" points="1086.66,-138.77 1076.42,-136.04 1082.72,-144.56 1086.66,-138.77"/>
<text text-anchor="middle" x="1160" y="-161.6" font-family="Courier New" font-size="8.00" fill="#ff00cc">Loads configuration data</text>
</g>
<!-- quiescent_wear -->
<g id="node6" class="node">
<title>quiescent_wear</title>
<polygon fill="#11241a" stroke="#00ff88" stroke-width="2" points="1351.5,-136 1135.5,-136 1135.5,-88 1351.5,-88 1351.5,-136"/>
<text text-anchor="middle" x="1243.5" y="-124.8" font-family="Courier New" font-size="9.00" fill="#ffffff">quiescent_wear (Wear Diagnostic)</text>
<text text-anchor="middle" x="1243.5" y="-114.8" font-family="Courier New" font-size="9.00" fill="#ffffff">&#45; Calculates spin&#45;up wear ratios</text>
<text text-anchor="middle" x="1243.5" y="-104.8" font-family="Courier New" font-size="9.00" fill="#ffffff">&#45; Avoids waking up standby disks</text>
<text text-anchor="middle" x="1243.5" y="-94.8" font-family="Courier New" font-size="9.00" fill="#ffffff">&#45; Runs smartctl safely (with override)</text>
</g>
<!-- config_mod&#45;&gt;quiescent_wear -->
<g id="edge4" class="edge">
<title>config_mod&#45;&gt;quiescent_wear</title>
<path fill="none" stroke="#00ffcc" stroke-width="1.5" d="M1065.56,-225.12C1114.5,-218.95 1175.92,-203.91 1218.5,-168 1225.42,-162.17 1230.51,-154.02 1234.22,-145.78"/>
<polygon fill="#00ffcc" stroke="#00ffcc" stroke-width="1.5" points="1237.59,-146.79 1237.98,-136.2 1231.07,-144.24 1237.59,-146.79"/>
<text text-anchor="middle" x="1280" y="-161.6" font-family="Courier New" font-size="8.00" fill="#ff00cc">Loads configuration data</text>
</g>
<!-- config_file -->
<g id="node3" class="node">
<title>config_file</title>
<polygon fill="#242411" stroke="#ffff00" stroke-width="2" points="1100,-383 873,-383 873,-345 1100,-345 1100,-383"/>
<text text-anchor="middle" x="986.5" y="-371.8" font-family="Courier New" font-size="9.00" fill="#ffffff">Configuration File</text>
<text text-anchor="middle" x="986.5" y="-361.8" font-family="Courier New" font-size="9.00" fill="#ffffff">/etc/quiescent.conf</text>
<text text-anchor="middle" x="986.5" y="-351.8" font-family="Courier New" font-size="9.00" fill="#ffffff">(interval &lt;secs&gt; &amp; &lt;by&#45;id&gt; &lt;mode&gt; &lt;val&gt;)</text>
</g>
<!-- config_file&#45;&gt;config_mod -->
<g id="edge1" class="edge">
<title>config_file&#45;&gt;config_mod</title>
<path fill="none" stroke="#ff00cc" stroke-width="1.5" d="M986.5,-344.92C986.5,-325.65 986.5,-294.54 986.5,-269.7"/>
<polygon fill="#ff00cc" stroke="#ff00cc" stroke-width="1.5" points="990,-269.48 986.5,-259.48 983,-269.48 990,-269.48"/>
<text text-anchor="middle" x="1014" y="-320.6" font-family="Courier New" font-size="8.00" fill="#ff00cc">Reads config</text>
</g>
<!-- quiescentd&#45;&gt;drive_mod -->
<g id="edge5" class="edge">
<title>quiescentd&#45;&gt;drive_mod</title>
<path fill="none" stroke="#ff00cc" stroke-width="1.5" d="M679.55,-141.08C670.97,-148.89 666.97,-158.01 673.5,-168 685.93,-187.03 705.76,-200.16 726.59,-209.2"/>
<polygon fill="#ff00cc" stroke="#ff00cc" stroke-width="1.5" points="725.3,-212.46 735.88,-212.96 727.92,-205.97 725.3,-212.46"/>
<text text-anchor="middle" x="730" y="-161.6" font-family="Courier New" font-size="8.00" fill="#ff00cc">Polls &amp; transitions state</text>
</g>
<!-- quiescentctl&#45;&gt;drive_mod -->
<g id="edge6" class="edge">
<title>quiescentctl&#45;&gt;drive_mod</title>
<path fill="none" stroke="#ff00cc" stroke-width="1.5" d="M875.34,-136.01C842.86,-144.09 814.32,-152.72 809.5,-159 805.75,-163.88 803.6,-169.57 802.57,-175.56"/>
<polygon fill="#ff00cc" stroke="#ff00cc" stroke-width="1.5" points="799.05,-175.58 801.79,-185.82 806.03,-176.11 799.05,-175.58"/>
<text text-anchor="middle" x="837" y="-161.6" font-family="Courier New" font-size="8.00" fill="#ff00cc">Checks state</text>
</g>
<!-- block_mounts -->
<g id="node11" class="node">
<title>block_mounts</title>
<polygon fill="#2d161a" stroke="#ff9f43" stroke-width="2" points="442.5,-38 278.5,-38 278.5,0 442.5,0 442.5,-38"/>
<text text-anchor="middle" x="360.5" y="-26.8" font-family="Courier New" font-size="9.00" fill="#ffffff">File System Mounts</text>
<text text-anchor="middle" x="360.5" y="-16.8" font-family="Courier New" font-size="9.00" fill="#ffffff">/mnt/sda1 &amp; /mnt/hitachi_2tb</text>
<text text-anchor="middle" x="360.5" y="-6.8" font-family="Courier New" font-size="9.00" fill="#ffffff">(Remount ro/rw)</text>
</g>
<!-- quiescentctl&#45;&gt;block_mounts -->
<g id="edge11" class="edge">
<title>quiescentctl&#45;&gt;block_mounts</title>
<path fill="none" stroke="#ff00cc" stroke-width="1.5" d="M876.02,-88C866.73,-86.21 857.46,-84.52 848.5,-83 711.43,-59.76 551.42,-40.61 453.03,-29.74"/>
<polygon fill="#ff00cc" stroke="#ff00cc" stroke-width="1.5" points="453.14,-26.23 442.82,-28.62 452.38,-33.19 453.14,-26.23"/>
<text text-anchor="middle" x="780.5" y="-58.6" font-family="Courier New" font-size="8.00" fill="#ff00cc">Mount remount execution</text>
</g>
<!-- quiescent_wear&#45;&gt;drive_mod -->
<g id="edge7" class="edge">
<title>quiescent_wear&#45;&gt;drive_mod</title>
<path fill="none" stroke="#ff00cc" stroke-width="1.5" d="M1143.74,-136.06C1133.89,-137.91 1124.02,-139.6 1114.5,-141 1063.56,-148.48 930.34,-137.63 883.5,-159 872.9,-163.83 862.97,-170.96 854.09,-178.85"/>
<polygon fill="#ff00cc" stroke="#ff00cc" stroke-width="1.5" points="851.44,-176.53 846.56,-185.93 856.24,-181.63 851.44,-176.53"/>
<text text-anchor="middle" x="924.5" y="-161.6" font-family="Courier New" font-size="8.00" fill="#ff00cc">Checks state first</text>
</g>
<!-- smartctl -->
<g id="node10" class="node">
<title>smartctl</title>
<polygon fill="#2d161a" stroke="#ff9f43" stroke-width="2" points="1317.5,-38 1169.5,-38 1169.5,0 1317.5,0 1317.5,-38"/>
<text text-anchor="middle" x="1243.5" y="-26.8" font-family="Courier New" font-size="9.00" fill="#ffffff">S.M.A.R.T. Attributes</text>
<text text-anchor="middle" x="1243.5" y="-16.8" font-family="Courier New" font-size="9.00" fill="#ffffff">via smartctl &#45;a</text>
<text text-anchor="middle" x="1243.5" y="-6.8" font-family="Courier New" font-size="9.00" fill="#ffffff">(Attribute 4, 9, 12, 193)</text>
</g>
<!-- quiescent_wear&#45;&gt;smartctl -->
<g id="edge10" class="edge">
<title>quiescent_wear&#45;&gt;smartctl</title>
<path fill="none" stroke="#ff00cc" stroke-width="1.5" d="M1243.5,-87.57C1243.5,-75.55 1243.5,-60.83 1243.5,-48.2"/>
<polygon fill="#ff00cc" stroke="#ff00cc" stroke-width="1.5" points="1247,-48.19 1243.5,-38.19 1240,-48.19 1247,-48.19"/>
<text text-anchor="middle" x="1295.5" y="-58.6" font-family="Courier New" font-size="8.00" fill="#ff00cc">Parses drive SMART info</text>
</g>
<!-- quiescent_mountd -->
<g id="node7" class="node">
<title>quiescent_mountd</title>
<polygon fill="#11241a" stroke="#00ff88" stroke-width="2" points="221,-136 0,-136 0,-88 221,-88 221,-136"/>
<text text-anchor="middle" x="110.5" y="-124.8" font-family="Courier New" font-size="9.00" fill="#ffffff">quiescent_mountd (Mount Wrapper)</text>
<text text-anchor="middle" x="110.5" y="-114.8" font-family="Courier New" font-size="9.00" fill="#ffffff">&#45; Safely wraps backup script runs</text>
<text text-anchor="middle" x="110.5" y="-104.8" font-family="Courier New" font-size="9.00" fill="#ffffff">&#45; Remounts rw &#45;&gt; commands &#45;&gt; sync &#45;&gt; ro</text>
<text text-anchor="middle" x="110.5" y="-94.8" font-family="Courier New" font-size="9.00" fill="#ffffff">&#45; Listens on Unix socket for commands</text>
</g>
<!-- quiescent_mountd&#45;&gt;block_mounts -->
<g id="edge12" class="edge">
<title>quiescent_mountd&#45;&gt;block_mounts</title>
<path fill="none" stroke="#ff00cc" stroke-width="1.5" d="M173.91,-87.92C213.12,-73.65 263.1,-55.45 301.47,-41.49"/>
<polygon fill="#ff00cc" stroke="#ff00cc" stroke-width="1.5" points="302.76,-44.74 310.96,-38.03 300.36,-38.17 302.76,-44.74"/>
<text text-anchor="middle" x="310.5" y="-58.6" font-family="Courier New" font-size="8.00" fill="#ff00cc">Automated rw/ro windows</text>
</g>
</g>
</svg>
