<?xml version="1.0" encoding="UTF-8" standalone="no"?>
<!DOCTYPE svg PUBLIC "-//W3C//DTD SVG 1.1//EN"
 "http://www.w3.org/Graphics/SVG/1.1/DTD/svg11.dtd">
<!-- Generated by graphviz version 2.43.0 (0)
 -->
<!-- Title: NimWearSmartFlow Pages: 1 -->
<svg width="986pt" height="1177pt"
 viewBox="0.00 0.00 985.50 1177.00" xmlns="http://www.w3.org/2000/svg" xmlns:xlink="http://www.w3.org/1999/xlink">
<g id="graph0" class="graph" transform="scale(1 1) rotate(0) translate(36 1141)">
<title>NimWearSmartFlow</title>
<polygon fill="#0d0e15" stroke="transparent" points="-36,36 -36,-1141 949.5,-1141 949.5,36 -36,36"/>
<text text-anchor="middle" x="456.75" y="-1086.6" font-family="Courier New" font-size="18.00" fill="#ff00cc">QUIESCENT_WEAR DIAGNOSTIC FLOW</text>
<g id="clust1" class="cluster">
<title>cluster_alerts</title>
<polygon fill="#0d0e15" stroke="#a29bfe" stroke-dasharray="5,2" points="262.5,-146 262.5,-238 807.5,-238 807.5,-146 262.5,-146"/>
<text text-anchor="middle" x="535" y="-219.6" font-family="Courier New" font-size="18.00" fill="#ff00cc">Wear Ratio Indicators</text>
</g>
<!-- start -->
<g id="node1" class="node">
<title>start</title>
<polygon fill="#2b1426" stroke="#ff00cc" stroke-width="2" points="849,-1077 680,-1077 680,-1041 849,-1041 849,-1077"/>
<text text-anchor="middle" x="764.5" y="-1061.8" font-family="Courier New" font-size="9.00" fill="#ffffff">START DIAGNOSTICS</text>
<text text-anchor="middle" x="764.5" y="-1051.8" font-family="Courier New" font-size="9.00" fill="#ffffff">User executes: quiescent&#45;wear</text>
</g>
<!-- check_force -->
<g id="node2" class="node">
<title>check_force</title>
<polygon fill="#121e28" stroke="#00d2ff" stroke-width="2" points="843.5,-1004 685.5,-1004 685.5,-968 843.5,-968 843.5,-1004"/>
<text text-anchor="middle" x="764.5" y="-988.8" font-family="Courier New" font-size="9.00" fill="#ffffff">Check command&#45;line options:</text>
<text text-anchor="middle" x="764.5" y="-978.8" font-family="Courier New" font-size="9.00" fill="#ffffff">Is &#45;&#45;force flag set?</text>
</g>
<!-- start&#45;&gt;check_force -->
<g id="edge1" class="edge">
<title>start&#45;&gt;check_force</title>
<path fill="none" stroke="#00ffcc" stroke-width="1.5" d="M764.5,-1040.81C764.5,-1032.79 764.5,-1023.05 764.5,-1014.07"/>
<polygon fill="#00ffcc" stroke="#00ffcc" stroke-width="1.5" points="768,-1014.03 764.5,-1004.03 761,-1014.03 768,-1014.03"/>
</g>
<!-- load_cfg -->
<g id="node3" class="node">
<title>load_cfg</title>
<polygon fill="#121e28" stroke="#00d2ff" stroke-width="2" points="836,-931 693,-931 693,-895 836,-895 836,-931"/>
<text text-anchor="middle" x="764.5" y="-915.8" font-family="Courier New" font-size="9.00" fill="#ffffff">Load configured drives</text>
<text text-anchor="middle" x="764.5" y="-905.8" font-family="Courier New" font-size="9.00" fill="#ffffff">from /etc/quiescent.conf</text>
</g>
<!-- check_force&#45;&gt;load_cfg -->
<g id="edge2" class="edge">
<title>check_force&#45;&gt;load_cfg</title>
<path fill="none" stroke="#00ffcc" stroke-width="1.5" d="M764.5,-967.81C764.5,-959.79 764.5,-950.05 764.5,-941.07"/>
<polygon fill="#00ffcc" stroke="#00ffcc" stroke-width="1.5" points="768,-941.03 764.5,-931.03 761,-941.03 768,-941.03"/>
</g>
<!-- loop_drive -->
<g id="node4" class="node">
<title>loop_drive</title>
<polygon fill="#121e28" stroke="#00d2ff" stroke-width="2" points="841,-858 688,-858 688,-822 841,-822 841,-858"/>
<text text-anchor="middle" x="764.5" y="-842.8" font-family="Courier New" font-size="9.00" fill="#ffffff">For each configured drive:</text>
<text text-anchor="middle" x="764.5" y="-832.8" font-family="Courier New" font-size="9.00" fill="#ffffff">Check presence &amp; state</text>
</g>
<!-- load_cfg&#45;&gt;loop_drive -->
<g id="edge3" class="edge">
<title>load_cfg&#45;&gt;loop_drive</title>
<path fill="none" stroke="#00ffcc" stroke-width="1.5" d="M764.5,-894.81C764.5,-886.79 764.5,-877.05 764.5,-868.07"/>
<polygon fill="#00ffcc" stroke="#00ffcc" stroke-width="1.5" points="768,-868.03 764.5,-858.03 761,-868.03 768,-868.03"/>
</g>
<!-- query_state -->
<g id="node5" class="node">
<title>query_state</title>
<polygon fill="#121e28" stroke="#00d2ff" stroke-width="2" points="777,-785 582,-785 582,-749 777,-749 777,-785"/>
<text text-anchor="middle" x="679.5" y="-769.8" font-family="Courier New" font-size="9.00" fill="#ffffff">Call drive.powerState()</text>
<text text-anchor="middle" x="679.5" y="-759.8" font-family="Courier New" font-size="9.00" fill="#ffffff">(Executes non&#45;intrusive hdparm &#45;C)</text>
</g>
<!-- loop_drive&#45;&gt;query_state -->
<g id="edge4" class="edge">
<title>loop_drive&#45;&gt;query_state</title>
<path fill="none" stroke="#00ffcc" stroke-width="1.5" d="M743.92,-821.81C733.07,-812.74 719.58,-801.48 707.75,-791.6"/>
<polygon fill="#00ffcc" stroke="#00ffcc" stroke-width="1.5" points="709.81,-788.75 699.89,-785.03 705.32,-794.13 709.81,-788.75"/>
</g>
<!-- is_standby -->
<g id="node6" class="node">
<title>is_standby</title>
<polygon fill="#121e28" stroke="#00d2ff" stroke-width="2" points="646,-712 467,-712 467,-676 646,-676 646,-712"/>
<text text-anchor="middle" x="556.5" y="-696.8" font-family="Courier New" font-size="9.00" fill="#ffffff">Is drive in standby/sleeping</text>
<text text-anchor="middle" x="556.5" y="-686.8" font-family="Courier New" font-size="9.00" fill="#ffffff">state (psStandby / psSleeping)?</text>
</g>
<!-- query_state&#45;&gt;is_standby -->
<g id="edge5" class="edge">
<title>query_state&#45;&gt;is_standby</title>
<path fill="none" stroke="#00ffcc" stroke-width="1.5" d="M650.04,-748.99C633.58,-739.49 612.87,-727.54 595.12,-717.29"/>
<polygon fill="#00ffcc" stroke="#00ffcc" stroke-width="1.5" points="596.56,-714.08 586.15,-712.11 593.06,-720.14 596.56,-714.08"/>
</g>
<!-- force_enabled -->
<g id="node7" class="node">
<title>force_enabled</title>
<polygon fill="#242411" stroke="#ffff00" stroke-width="2" points="508.5,-631 392.5,-631 392.5,-595 508.5,-595 508.5,-631"/>
<text text-anchor="middle" x="450.5" y="-610.8" font-family="Courier New" font-size="9.00" fill="#ffffff">Is &#45;&#45;force enabled?</text>
</g>
<!-- is_standby&#45;&gt;force_enabled -->
<g id="edge6" class="edge">
<title>is_standby&#45;&gt;force_enabled</title>
<path fill="none" stroke="#00ffcc" stroke-width="1.5" d="M472.04,-675.93C464.09,-671.29 456.98,-665.42 451.5,-658 448.04,-653.31 446.55,-647.51 446.17,-641.68"/>
<polygon fill="#00ffcc" stroke="#00ffcc" stroke-width="1.5" points="449.68,-641.48 446.48,-631.38 442.68,-641.27 449.68,-641.48"/>
<text text-anchor="middle" x="497" y="-651.6" font-family="Courier New" font-size="8.00" fill="#00ffcc">YES (disk is asleep)</text>
</g>
<!-- run_smart -->
<g id="node9" class="node">
<title>run_smart</title>
<polygon fill="#2d161a" stroke="#ff5252" stroke-width="2" points="585.5,-550 421.5,-550 421.5,-512 585.5,-512 585.5,-550"/>
<text text-anchor="middle" x="503.5" y="-538.8" font-family="Courier New" font-size="9.00" fill="#ffffff">RUN SMART QUERY</text>
<text text-anchor="middle" x="503.5" y="-528.8" font-family="Courier New" font-size="9.00" fill="#ffffff">Command: smartctl &#45;a &lt;drive&gt;</text>
<text text-anchor="middle" x="503.5" y="-518.8" font-family="Courier New" font-size="9.00" fill="#ffffff">(Forces platter spin&#45;up)</text>
</g>
<!-- is_standby&#45;&gt;run_smart -->
<g id="edge9" class="edge">
<title>is_standby&#45;&gt;run_smart</title>
<path fill="none" stroke="#00ff88" stroke-width="1.5" d="M558.22,-675.76C559.96,-650.62 560.25,-603.07 542.5,-568 540.68,-564.4 538.34,-560.98 535.72,-557.79"/>
<polygon fill="#00ff88" stroke="#00ff88" stroke-width="1.5" points="538.12,-555.23 528.74,-550.32 533.01,-560.02 538.12,-555.23"/>
<text text-anchor="middle" x="630" y="-611.1" font-family="Courier New" font-size="8.00" fill="#00ffcc">NO (Disk is already active/idle)</text>
</g>
<!-- skip_drive -->
<g id="node8" class="node">
<title>skip_drive</title>
<polygon fill="#11241a" stroke="#00ff88" stroke-width="2" points="253,-197 0,-197 0,-159 253,-159 253,-197"/>
<text text-anchor="middle" x="126.5" y="-185.8" font-family="Courier New" font-size="9.00" fill="#ffffff">SKIP DRIVE SMART QUERY</text>
<text text-anchor="middle" x="126.5" y="-175.8" font-family="Courier New" font-size="9.00" fill="#ffffff">Output: &#39;SKIPPED (Drive is in Standby/Sleep)&#39;</text>
<text text-anchor="middle" x="126.5" y="-165.8" font-family="Courier New" font-size="9.00" fill="#ffffff">(Protects drive from spin&#45;up)</text>
</g>
<!-- force_enabled&#45;&gt;skip_drive -->
<g id="edge7" class="edge">
<title>force_enabled&#45;&gt;skip_drive</title>
<path fill="none" stroke="#00ffcc" stroke-width="1.5" d="M392.28,-606.41C346.54,-598.43 290.5,-579.05 290.5,-532 290.5,-532 290.5,-532 290.5,-282 290.5,-255.52 228.42,-222.64 180.65,-201.25"/>
<polygon fill="#00ffcc" stroke="#00ffcc" stroke-width="1.5" points="181.88,-197.97 171.31,-197.13 179.05,-204.37 181.88,-197.97"/>
<text text-anchor="middle" x="354" y="-394.6" font-family="Courier New" font-size="8.00" fill="#00ffcc">NO (Default safety behavior)</text>
</g>
<!-- force_enabled&#45;&gt;run_smart -->
<g id="edge8" class="edge">
<title>force_enabled&#45;&gt;run_smart</title>
<path fill="none" stroke="#00ffcc" stroke-width="1.5" d="M447.37,-594.78C446.66,-586.25 447.15,-576.07 451.5,-568 453.7,-563.92 456.58,-560.21 459.87,-556.85"/>
<polygon fill="#00ffcc" stroke="#00ffcc" stroke-width="1.5" points="462.39,-559.3 467.6,-550.07 457.77,-554.03 462.39,-559.3"/>
<text text-anchor="middle" x="497" y="-570.6" font-family="Courier New" font-size="8.00" fill="#00ffcc">YES (Force override)</text>
</g>
<!-- next_drive -->
<g id="node16" class="node">
<title>next_drive</title>
<polygon fill="#121e28" stroke="#00d2ff" stroke-width="2" points="567,-117 440,-117 440,-81 567,-81 567,-117"/>
<text text-anchor="middle" x="503.5" y="-96.8" font-family="Courier New" font-size="9.00" fill="#ffffff">Proceed to next drive</text>
</g>
<!-- skip_drive&#45;&gt;next_drive -->
<g id="edge16" class="edge">
<title>skip_drive&#45;&gt;next_drive</title>
<path fill="none" stroke="#00ffcc" stroke-width="1.5" d="M200.72,-158.95C219.53,-154.55 239.73,-149.96 258.5,-146 315.82,-133.89 381.03,-121.73 429.75,-112.95"/>
<polygon fill="#00ffcc" stroke="#00ffcc" stroke-width="1.5" points="430.67,-116.34 439.89,-111.13 429.43,-109.45 430.67,-116.34"/>
</g>
<!-- parse_attribs -->
<g id="node10" class="node">
<title>parse_attribs</title>
<polygon fill="#121e28" stroke="#00d2ff" stroke-width="2" points="606.5,-467 400.5,-467 400.5,-419 606.5,-419 606.5,-467"/>
<text text-anchor="middle" x="503.5" y="-455.8" font-family="Courier New" font-size="9.00" fill="#ffffff">PARSE SMART ATTRIBUTES</text>
<text text-anchor="middle" x="503.5" y="-445.8" font-family="Courier New" font-size="9.00" fill="#ffffff">Extract: POH (9), Power Cycles (12),</text>
<text text-anchor="middle" x="503.5" y="-435.8" font-family="Courier New" font-size="9.00" fill="#ffffff">Start/Stop (4), Load Cycles (193),</text>
<text text-anchor="middle" x="503.5" y="-425.8" font-family="Courier New" font-size="9.00" fill="#ffffff">Temperature (194)</text>
</g>
<!-- run_smart&#45;&gt;parse_attribs -->
<g id="edge10" class="edge">
<title>run_smart&#45;&gt;parse_attribs</title>
<path fill="none" stroke="#00ffcc" stroke-width="1.5" d="M503.5,-511.76C503.5,-501.8 503.5,-489.14 503.5,-477.47"/>
<polygon fill="#00ffcc" stroke="#00ffcc" stroke-width="1.5" points="507,-477.13 503.5,-467.13 500,-477.13 507,-477.13"/>
</g>
<!-- calc_wear -->
<g id="node11" class="node">
<title>calc_wear</title>
<polygon fill="#121e28" stroke="#00d2ff" stroke-width="2" points="619.5,-374 387.5,-374 387.5,-338 619.5,-338 619.5,-374"/>
<text text-anchor="middle" x="503.5" y="-358.8" font-family="Courier New" font-size="9.00" fill="#ffffff">CALCULATE WEAR RATIO</text>
<text text-anchor="middle" x="503.5" y="-348.8" font-family="Courier New" font-size="9.00" fill="#ffffff">Ratio = Platter Start/Stop / Power Cycles</text>
</g>
<!-- parse_attribs&#45;&gt;calc_wear -->
<g id="edge11" class="edge">
<title>parse_attribs&#45;&gt;calc_wear</title>
<path fill="none" stroke="#00ffcc" stroke-width="1.5" d="M503.5,-418.77C503.5,-408.12 503.5,-395.42 503.5,-384.31"/>
<polygon fill="#00ffcc" stroke="#00ffcc" stroke-width="1.5" points="507,-384.26 503.5,-374.27 500,-384.27 507,-384.26"/>
</g>
<!-- eval_wear -->
<g id="node12" class="node">
<title>eval_wear</title>
<polygon fill="#121e28" stroke="#00d2ff" stroke-width="2" points="561.5,-301 445.5,-301 445.5,-265 561.5,-265 561.5,-301"/>
<text text-anchor="middle" x="503.5" y="-280.8" font-family="Courier New" font-size="9.00" fill="#ffffff">Evaluate Wear Level</text>
</g>
<!-- calc_wear&#45;&gt;eval_wear -->
<g id="edge12" class="edge">
<title>calc_wear&#45;&gt;eval_wear</title>
<path fill="none" stroke="#00ffcc" stroke-width="1.5" d="M503.5,-337.81C503.5,-329.79 503.5,-320.05 503.5,-311.07"/>
<polygon fill="#00ffcc" stroke="#00ffcc" stroke-width="1.5" points="507,-311.03 503.5,-301.03 500,-311.03 507,-311.03"/>
</g>
<!-- wear_healthy -->
<g id="node13" class="node">
<title>wear_healthy</title>
<polygon fill="#11241a" stroke="#00ff88" stroke-width="2" points="414,-197 271,-197 271,-159 414,-159 414,-197"/>
<text text-anchor="middle" x="342.5" y="-185.8" font-family="Courier New" font-size="9.00" fill="#ffffff">Ratio &lt;= 5.0:</text>
<text text-anchor="middle" x="342.5" y="-175.8" font-family="Courier New" font-size="9.00" fill="#ffffff">Green Status</text>
<text text-anchor="middle" x="342.5" y="-165.8" font-family="Courier New" font-size="9.00" fill="#ffffff">&#39;Healthy / Low Spindown&#39;</text>
</g>
<!-- eval_wear&#45;&gt;wear_healthy -->
<g id="edge13" class="edge">
<title>eval_wear&#45;&gt;wear_healthy</title>
<path fill="none" stroke="#00ffcc" stroke-width="1.5" d="M470.26,-264.94C455.67,-257.14 438.48,-247.52 423.5,-238 406.68,-227.31 388.7,-214.38 373.97,-203.35"/>
<polygon fill="#00ffcc" stroke="#00ffcc" stroke-width="1.5" points="375.79,-200.34 365.7,-197.11 371.57,-205.92 375.79,-200.34"/>
</g>
<!-- wear_moderate -->
<g id="node14" class="node">
<title>wear_moderate</title>
<polygon fill="#242411" stroke="#ffff00" stroke-width="2" points="575,-197 432,-197 432,-159 575,-159 575,-197"/>
<text text-anchor="middle" x="503.5" y="-185.8" font-family="Courier New" font-size="9.00" fill="#ffffff">5.0 &lt; Ratio &lt;= 15.0:</text>
<text text-anchor="middle" x="503.5" y="-175.8" font-family="Courier New" font-size="9.00" fill="#ffffff">Yellow Status</text>
<text text-anchor="middle" x="503.5" y="-165.8" font-family="Courier New" font-size="9.00" fill="#ffffff">&#39;Moderate Spindown Wear&#39;</text>
</g>
<!-- eval_wear&#45;&gt;wear_moderate -->
<g id="edge14" class="edge">
<title>eval_wear&#45;&gt;wear_moderate</title>
<path fill="none" stroke="#00ffcc" stroke-width="1.5" d="M503.5,-264.99C503.5,-249.32 503.5,-225.78 503.5,-207.28"/>
<polygon fill="#00ffcc" stroke="#00ffcc" stroke-width="1.5" points="507,-207.07 503.5,-197.07 500,-207.07 507,-207.07"/>
</g>
<!-- wear_critical -->
<g id="node15" class="node">
<title>wear_critical</title>
<polygon fill="#2d161a" stroke="#ff5252" stroke-width="2" points="799.5,-202 593.5,-202 593.5,-154 799.5,-154 799.5,-202"/>
<text text-anchor="middle" x="696.5" y="-190.8" font-family="Courier New" font-size="9.00" fill="#ffffff">Ratio &gt; 15.0:</text>
<text text-anchor="middle" x="696.5" y="-180.8" font-family="Courier New" font-size="9.00" fill="#ffffff">Red Bold Status</text>
<text text-anchor="middle" x="696.5" y="-170.8" font-family="Courier New" font-size="9.00" fill="#ffffff">&#39;CRITICAL WEAR&#39;</text>
<text text-anchor="middle" x="696.5" y="-160.8" font-family="Courier New" font-size="9.00" fill="#ffffff">Alerts count of extra fatigue cycles</text>
</g>
<!-- eval_wear&#45;&gt;wear_critical -->
<g id="edge15" class="edge">
<title>eval_wear&#45;&gt;wear_critical</title>
<path fill="none" stroke="#00ffcc" stroke-width="1.5" d="M535.37,-264.99C564.95,-249.2 609.53,-225.41 644.31,-206.85"/>
<polygon fill="#00ffcc" stroke="#00ffcc" stroke-width="1.5" points="646.2,-209.81 653.38,-202.01 642.91,-203.63 646.2,-209.81"/>
</g>
<!-- wear_healthy&#45;&gt;next_drive -->
<g id="edge17" class="edge">
<title>wear_healthy&#45;&gt;next_drive</title>
<path fill="none" stroke="#00ffcc" stroke-width="1.5" d="M380.25,-158.95C403.74,-147.71 434.06,-133.21 458.76,-121.4"/>
<polygon fill="#00ffcc" stroke="#00ffcc" stroke-width="1.5" points="460.41,-124.49 467.92,-117.02 457.39,-118.17 460.41,-124.49"/>
</g>
<!-- wear_moderate&#45;&gt;next_drive -->
<g id="edge18" class="edge">
<title>wear_moderate&#45;&gt;next_drive</title>
<path fill="none" stroke="#00ffcc" stroke-width="1.5" d="M503.5,-158.75C503.5,-149.38 503.5,-137.76 503.5,-127.34"/>
<polygon fill="#00ffcc" stroke="#00ffcc" stroke-width="1.5" points="507,-127.06 503.5,-117.06 500,-127.06 507,-127.06"/>
</g>
<!-- wear_critical&#45;&gt;next_drive -->
<g id="edge19" class="edge">
<title>wear_critical&#45;&gt;next_drive</title>
<path fill="none" stroke="#00ffcc" stroke-width="1.5" d="M638.59,-153.9C612.31,-143.41 581.44,-131.1 555.86,-120.89"/>
<polygon fill="#00ffcc" stroke="#00ffcc" stroke-width="1.5" points="556.92,-117.54 546.33,-117.09 554.32,-124.04 556.92,-117.54"/>
</g>
<!-- next_drive&#45;&gt;loop_drive -->
<g id="edge20" class="edge">
<title>next_drive&#45;&gt;loop_drive</title>
<path fill="none" stroke="#00ffcc" stroke-width="1.5" d="M567.3,-102.77C645.82,-107.31 773.42,-118.74 811.5,-146 824.11,-155.03 827.5,-161.5 827.5,-177 827.5,-768 827.5,-768 827.5,-768 827.5,-787.05 814.66,-803.37 800.57,-815.55"/>
<polygon fill="#00ffcc" stroke="#00ffcc" stroke-width="1.5" points="798.29,-812.88 792.68,-821.87 802.67,-818.34 798.29,-812.88"/>
<text text-anchor="middle" x="870.5" y="-487.6" font-family="Courier New" font-size="8.00" fill="#00ffcc">More drives in list</text>
</g>
<!-- finish -->
<g id="node17" class="node">
<title>finish</title>
<polygon fill="#2b1426" stroke="#ff00cc" stroke-width="2" points="559,-36 448,-36 448,0 559,0 559,-36"/>
<text text-anchor="middle" x="503.5" y="-15.8" font-family="Courier New" font-size="9.00" fill="#ffffff">FINISH DIAGNOSTICS</text>
</g>
<!-- next_drive&#45;&gt;finish -->
<g id="edge21" class="edge">
<title>next_drive&#45;&gt;finish</title>
<path fill="none" stroke="#00ffcc" stroke-width="1.5" d="M503.5,-80.86C503.5,-70.71 503.5,-57.63 503.5,-46.12"/>
<polygon fill="#00ffcc" stroke="#00ffcc" stroke-width="1.5" points="507,-46.11 503.5,-36.11 500,-46.11 507,-46.11"/>
<text text-anchor="middle" x="549" y="-56.6" font-family="Courier New" font-size="8.00" fill="#00ffcc">All drives processed</text>
</g>
</g>
</svg>
