<?xml version="1.0" encoding="UTF-8" standalone="no"?>
<!DOCTYPE svg PUBLIC "-//W3C//DTD SVG 1.1//EN"
 "http://www.w3.org/Graphics/SVG/1.1/DTD/svg11.dtd">
<!-- Generated by graphviz version 2.43.0 (0)
 -->
<!-- Title: architecture Pages: 1 -->
<svg width="2346pt" height="274pt"
 viewBox="0.00 0.00 2346.10 273.60" xmlns="http://www.w3.org/2000/svg" xmlns:xlink="http://www.w3.org/1999/xlink">
<g id="graph0" class="graph" transform="scale(1 1) rotate(0) translate(28.8 244.8)">
<title>architecture</title>
<polygon fill="#0b0e14" stroke="transparent" points="-28.8,28.8 -28.8,-244.8 2317.3,-244.8 2317.3,28.8 -28.8,28.8"/>
<text text-anchor="middle" x="1144.25" y="-196" font-family="Helvetica,sans-Serif" font-size="20.00" fill="#e6f7ff">quiescent &#160;— &#160;spin&#45;down architecture</text>
<!-- boot -->
<g id="node1" class="node">
<title>boot</title>
<path fill="#11161f" stroke="#b56bff" stroke-width="2" d="M143.36,-106.79C143.36,-106.79 124.9,-119.47 124.9,-119.47 119.95,-122.86 109,-126.26 103,-126.26 103,-126.26 50.5,-126.26 50.5,-126.26 44.5,-126.26 33.55,-122.86 28.61,-119.47 28.61,-119.47 10.14,-106.79 10.14,-106.79 5.2,-103.4 5.2,-96.6 10.14,-93.21 10.14,-93.21 28.61,-80.53 28.61,-80.53 33.55,-77.14 44.5,-73.74 50.5,-73.74 50.5,-73.74 103,-73.74 103,-73.74 109,-73.74 119.95,-77.14 124.9,-80.53 124.9,-80.53 143.36,-93.21 143.36,-93.21 148.31,-96.6 148.31,-103.4 143.36,-106.79"/>
<text text-anchor="middle" x="76.75" y="-103.2" font-family="Helvetica,sans-Serif" font-size="11.00" fill="#e0c8ff">systemd</text>
<text text-anchor="middle" x="76.75" y="-91.2" font-family="Helvetica,sans-Serif" font-size="11.00" fill="#e0c8ff">multi&#45;user.target</text>
</g>
<!-- decide -->
<g id="node2" class="node">
<title>decide</title>
<path fill="#1a160a" stroke="#ffd300" stroke-width="2.5" d="M360.76,-129.53C360.76,-129.53 232.24,-102.47 232.24,-102.47 226.37,-101.24 226.37,-98.76 232.24,-97.53 232.24,-97.53 360.76,-70.47 360.76,-70.47 366.63,-69.24 378.37,-69.24 384.24,-70.47 384.24,-70.47 512.76,-97.53 512.76,-97.53 518.63,-98.76 518.63,-101.24 512.76,-102.47 512.76,-102.47 384.24,-129.53 384.24,-129.53 378.37,-130.76 366.63,-130.76 360.76,-129.53"/>
<text text-anchor="middle" x="372.5" y="-103.2" font-family="Helvetica,sans-Serif" font-size="11.00" fill="#ffe98a">does the drive&#39;s firmware</text>
<text text-anchor="middle" x="372.5" y="-91.2" font-family="Helvetica,sans-Serif" font-size="11.00" fill="#ffe98a">honor the ATA &#45;S idle timer?</text>
</g>
<!-- boot&#45;&gt;decide -->
<g id="edge1" class="edge">
<title>boot&#45;&gt;decide</title>
<path fill="none" stroke="#39ff14" stroke-width="1.6" d="M153.4,-100C171.63,-100 191.8,-100 212.29,-100"/>
<polygon fill="#39ff14" stroke="#39ff14" stroke-width="1.6" points="212.46,-102.8 220.46,-100 212.46,-97.2 212.46,-102.8"/>
</g>
<!-- one1 -->
<g id="node3" class="node">
<title>one1</title>
<path fill="#11161f" stroke="#00e5ff" stroke-width="2" d="M967.5,-186C967.5,-186 836.5,-186 836.5,-186 830.5,-186 824.5,-180 824.5,-174 824.5,-174 824.5,-154 824.5,-154 824.5,-148 830.5,-142 836.5,-142 836.5,-142 967.5,-142 967.5,-142 973.5,-142 979.5,-148 979.5,-154 979.5,-154 979.5,-174 979.5,-174 979.5,-180 973.5,-186 967.5,-186"/>
<text text-anchor="middle" x="902" y="-173.2" font-family="Helvetica,sans-Serif" font-size="11.00" fill="#e6f7ff">wd&#45;backup&#45;spindown.service</text>
<text text-anchor="middle" x="902" y="-161.2" font-family="Helvetica,sans-Serif" font-size="11.00" fill="#e6f7ff">hdparm &#45;S 12 &#160;(1 min)</text>
<text text-anchor="middle" x="902" y="-149.2" font-family="Helvetica,sans-Serif" font-size="11.00" fill="#e6f7ff">by&#45;id → WD Black &#160;(sdg)</text>
</g>
<!-- decide&#45;&gt;one1 -->
<g id="edge2" class="edge">
<title>decide&#45;&gt;one1</title>
<path fill="none" stroke="#39ff14" stroke-width="1.6" d="M464.23,-112.73C493.94,-116.79 527.11,-121.21 557.5,-125 645.49,-135.97 746.33,-147.27 815.88,-154.86"/>
<polygon fill="#39ff14" stroke="#39ff14" stroke-width="1.6" points="815.95,-157.69 824.2,-155.77 816.55,-152.12 815.95,-157.69"/>
<text text-anchor="middle" x="589.5" y="-134.8" font-family="Times,serif" font-size="9.00" fill="#9fd8ff"> yes — short &#45;S</text>
</g>
<!-- one2 -->
<g id="node4" class="node">
<title>one2</title>
<path fill="#11161f" stroke="#00e5ff" stroke-width="2" d="M1291.5,-122C1291.5,-122 1174.5,-122 1174.5,-122 1168.5,-122 1162.5,-116 1162.5,-110 1162.5,-110 1162.5,-90 1162.5,-90 1162.5,-84 1168.5,-78 1174.5,-78 1174.5,-78 1291.5,-78 1291.5,-78 1297.5,-78 1303.5,-84 1303.5,-90 1303.5,-90 1303.5,-110 1303.5,-110 1303.5,-116 1297.5,-122 1291.5,-122"/>
<text text-anchor="middle" x="1233" y="-109.2" font-family="Helvetica,sans-Serif" font-size="11.00" fill="#e6f7ff">idle&#45;hdd&#45;spindown.service</text>
<text text-anchor="middle" x="1233" y="-97.2" font-family="Helvetica,sans-Serif" font-size="11.00" fill="#e6f7ff">hdparm &#45;S 12 &#160;(1 min)</text>
<text text-anchor="middle" x="1233" y="-85.2" font-family="Helvetica,sans-Serif" font-size="11.00" fill="#e6f7ff">by&#45;id → Hitachi &#160;(sde)</text>
</g>
<!-- decide&#45;&gt;one2 -->
<g id="edge3" class="edge">
<title>decide&#45;&gt;one2</title>
<path fill="none" stroke="#39ff14" stroke-width="1.6" d="M524.52,-100C708.37,-100 1011.89,-100 1154.03,-100"/>
<polygon fill="#39ff14" stroke="#39ff14" stroke-width="1.6" points="1154.33,-102.8 1162.33,-100 1154.33,-97.2 1154.33,-102.8"/>
<text text-anchor="middle" x="723" y="-102.8" font-family="Times,serif" font-size="9.00" fill="#9fd8ff"> yes</text>
</g>
<!-- timer -->
<g id="node5" class="node">
<title>timer</title>
<path fill="#11161f" stroke="#ff3ec9" stroke-width="2" d="M779.5,-36C779.5,-36 666.5,-36 666.5,-36 660.5,-36 654.5,-30 654.5,-24 654.5,-24 654.5,-12 654.5,-12 654.5,-6 660.5,0 666.5,0 666.5,0 779.5,0 779.5,0 785.5,0 791.5,-6 791.5,-12 791.5,-12 791.5,-24 791.5,-24 791.5,-30 785.5,-36 779.5,-36"/>
<text text-anchor="middle" x="723" y="-21.2" font-family="Helvetica,sans-Serif" font-size="11.00" fill="#ff9fe4">idle&#45;disk&#45;park.timer</text>
<text text-anchor="middle" x="723" y="-9.2" font-family="Helvetica,sans-Serif" font-size="11.00" fill="#ff9fe4">OnUnitActiveSec = 1 min</text>
</g>
<!-- decide&#45;&gt;timer -->
<g id="edge4" class="edge">
<title>decide&#45;&gt;timer</title>
<path fill="none" stroke="#ff3ec9" stroke-width="1.6" d="M442.89,-82.71C477.32,-74.21 519.56,-63.91 557.5,-55 586.42,-48.21 618.26,-40.99 646.17,-34.75"/>
<polygon fill="#ff3ec9" stroke="#ff3ec9" stroke-width="1.6" points="647.11,-37.41 654.31,-32.93 645.89,-31.94 647.11,-37.41"/>
<text text-anchor="middle" x="589.5" y="-67.8" font-family="Times,serif" font-size="9.00" fill="#ff9fe4"> no (AV&#45;GP) →</text>
<text text-anchor="middle" x="589.5" y="-57.8" font-family="Times,serif" font-size="9.00" fill="#ff9fe4"> software watcher</text>
</g>
<!-- parked -->
<g id="node9" class="node">
<title>parked</title>
<path fill="#11161f" stroke="#39ff14" stroke-width="3" d="M1898.5,-118C1898.5,-118 1787.5,-118 1787.5,-118 1781.5,-118 1775.5,-112 1775.5,-106 1775.5,-106 1775.5,-94 1775.5,-94 1775.5,-88 1781.5,-82 1787.5,-82 1787.5,-82 1898.5,-82 1898.5,-82 1904.5,-82 1910.5,-88 1910.5,-94 1910.5,-94 1910.5,-106 1910.5,-106 1910.5,-112 1904.5,-118 1898.5,-118"/>
<text text-anchor="middle" x="1843" y="-103.2" font-family="Helvetica,sans-Serif" font-size="11.00" fill="#8dff7a">DRIVE PARKED</text>
<text text-anchor="middle" x="1843" y="-91.2" font-family="Helvetica,sans-Serif" font-size="11.00" fill="#8dff7a">(standby — cool &amp; quiet)</text>
</g>
<!-- one1&#45;&gt;parked -->
<g id="edge8" class="edge">
<title>one1&#45;&gt;parked</title>
<path fill="none" stroke="#39ff14" stroke-width="1.6" d="M979.78,-164.73C1046.46,-165.3 1145.61,-166 1232,-166 1232,-166 1232,-166 1636,-166 1695.4,-166 1760.03,-140.81 1800.76,-121.55"/>
<polygon fill="#39ff14" stroke="#39ff14" stroke-width="1.6" points="1802.08,-124.02 1808.08,-118.03 1799.65,-118.98 1802.08,-124.02"/>
</g>
<!-- one2&#45;&gt;parked -->
<g id="edge9" class="edge">
<title>one2&#45;&gt;parked</title>
<path fill="none" stroke="#39ff14" stroke-width="1.6" d="M1303.75,-100C1419.04,-100 1648.4,-100 1767.03,-100"/>
<polygon fill="#39ff14" stroke="#39ff14" stroke-width="1.6" points="1767.38,-102.8 1775.38,-100 1767.38,-97.2 1767.38,-102.8"/>
</g>
<!-- svc -->
<g id="node6" class="node">
<title>svc</title>
<path fill="#11161f" stroke="#ff3ec9" stroke-width="2" d="M1117.5,-40C1117.5,-40 1024.5,-40 1024.5,-40 1018.5,-40 1012.5,-34 1012.5,-28 1012.5,-28 1012.5,-16 1012.5,-16 1012.5,-10 1018.5,-4 1024.5,-4 1024.5,-4 1117.5,-4 1117.5,-4 1123.5,-4 1129.5,-10 1129.5,-16 1129.5,-16 1129.5,-28 1129.5,-28 1129.5,-34 1123.5,-40 1117.5,-40"/>
<text text-anchor="middle" x="1071" y="-25.2" font-family="Helvetica,sans-Serif" font-size="11.00" fill="#ff9fe4">idle&#45;disk&#45;park.service</text>
<text text-anchor="middle" x="1071" y="-13.2" font-family="Helvetica,sans-Serif" font-size="11.00" fill="#ff9fe4">(oneshot)</text>
</g>
<!-- timer&#45;&gt;svc -->
<g id="edge5" class="edge">
<title>timer&#45;&gt;svc</title>
<path fill="none" stroke="#ff3ec9" stroke-width="1.6" d="M791.54,-18.78C853.08,-19.49 943.42,-20.54 1004.37,-21.24"/>
<polygon fill="#ff3ec9" stroke="#ff3ec9" stroke-width="1.6" points="1004.36,-24.04 1012.39,-21.33 1004.43,-18.44 1004.36,-24.04"/>
</g>
<!-- script -->
<g id="node7" class="node">
<title>script</title>
<polygon fill="#11161f" stroke="#ff3ec9" stroke-width="2" points="1488.5,-50 1336.5,-50 1336.5,-6 1494.5,-6 1494.5,-44 1488.5,-50"/>
<polyline fill="none" stroke="#ff3ec9" stroke-width="2" points="1488.5,-50 1488.5,-44 "/>
<polyline fill="none" stroke="#ff3ec9" stroke-width="2" points="1494.5,-44 1488.5,-44 "/>
<text text-anchor="middle" x="1415.5" y="-37.2" font-family="Helvetica,sans-Serif" font-size="11.00" fill="#ff9fe4">idle&#45;disk&#45;park.sh</text>
<text text-anchor="middle" x="1415.5" y="-25.2" font-family="Helvetica,sans-Serif" font-size="11.00" fill="#ff9fe4">no block I/O for ≥ 5 min ?</text>
<text text-anchor="middle" x="1415.5" y="-13.2" font-family="Helvetica,sans-Serif" font-size="11.00" fill="#ff9fe4">→ hdparm &#45;y &#160;(force standby)</text>
</g>
<!-- svc&#45;&gt;script -->
<g id="edge6" class="edge">
<title>svc&#45;&gt;script</title>
<path fill="none" stroke="#ff3ec9" stroke-width="1.6" d="M1129.71,-23.01C1183.99,-23.96 1265.97,-25.4 1328.06,-26.49"/>
<polygon fill="#ff3ec9" stroke="#ff3ec9" stroke-width="1.6" points="1328.25,-29.29 1336.29,-26.63 1328.34,-23.69 1328.25,-29.29"/>
</g>
<!-- sdc -->
<g id="node8" class="node">
<title>sdc</title>
<path fill="#11161f" stroke="#ffd300" stroke-width="2" d="M1696.5,-51C1696.5,-51 1573.5,-51 1573.5,-51 1567.5,-51 1561.5,-45 1561.5,-39 1561.5,-39 1561.5,-19 1561.5,-19 1561.5,-13 1567.5,-7 1573.5,-7 1573.5,-7 1696.5,-7 1696.5,-7 1702.5,-7 1708.5,-13 1708.5,-19 1708.5,-19 1708.5,-39 1708.5,-39 1708.5,-45 1702.5,-51 1696.5,-51"/>
<text text-anchor="middle" x="1635" y="-38.2" font-family="Helvetica,sans-Serif" font-size="11.00" fill="#ffe98a">WD10EURX &#160;(sdc, AV&#45;GP)</text>
<text text-anchor="middle" x="1635" y="-26.2" font-family="Helvetica,sans-Serif" font-size="11.00" fill="#ffe98a">ignores &#45;S · no APM</text>
<text text-anchor="middle" x="1635" y="-14.2" font-family="Helvetica,sans-Serif" font-size="11.00" fill="#ffe98a">but OBEYS forced &#45;y</text>
</g>
<!-- script&#45;&gt;sdc -->
<g id="edge7" class="edge">
<title>script&#45;&gt;sdc</title>
<path fill="none" stroke="#ff3ec9" stroke-width="1.6" d="M1494.72,-28.36C1513.68,-28.45 1534,-28.54 1553.09,-28.63"/>
<polygon fill="#ff3ec9" stroke="#ff3ec9" stroke-width="1.6" points="1553.18,-31.43 1561.19,-28.67 1553.2,-25.83 1553.18,-31.43"/>
</g>
<!-- sdc&#45;&gt;parked -->
<g id="edge10" class="edge">
<title>sdc&#45;&gt;parked</title>
<path fill="none" stroke="#39ff14" stroke-width="1.6" d="M1700.05,-51.08C1726.17,-60.08 1756.2,-70.43 1781.9,-79.29"/>
<polygon fill="#39ff14" stroke="#39ff14" stroke-width="1.6" points="1781.25,-82.02 1789.73,-81.98 1783.08,-76.73 1781.25,-82.02"/>
</g>
<!-- byid -->
<g id="node10" class="node">
<title>byid</title>
<path fill="transparent" stroke="transparent" stroke-width="2" d="M2276.5,-118C2276.5,-118 1955.5,-118 1955.5,-118 1949.5,-118 1943.5,-112 1943.5,-106 1943.5,-106 1943.5,-94 1943.5,-94 1943.5,-88 1949.5,-82 1955.5,-82 1955.5,-82 2276.5,-82 2276.5,-82 2282.5,-82 2288.5,-88 2288.5,-94 2288.5,-94 2288.5,-106 2288.5,-106 2288.5,-112 2282.5,-118 2276.5,-118"/>
<text text-anchor="middle" x="2116" y="-97.2" font-family="Helvetica,sans-Serif" font-size="11.00" fill="#7fa8c9">every device pinned by /dev/disk/by&#45;id/* &#160;— &#160;survives SATA letter drift</text>
</g>
</g>
</svg>
