<?xml version="1.0" encoding="UTF-8" standalone="no"?>
<!DOCTYPE svg PUBLIC "-//W3C//DTD SVG 1.1//EN"
 "http://www.w3.org/Graphics/SVG/1.1/DTD/svg11.dtd">
<!-- Generated by graphviz version 2.43.0 (0)
 -->
<!-- Title: future Pages: 1 -->
<svg width="516pt" height="445pt"
 viewBox="0.00 0.00 515.86 444.60" xmlns="http://www.w3.org/2000/svg" xmlns:xlink="http://www.w3.org/1999/xlink">
<g id="graph0" class="graph" transform="scale(1 1) rotate(0) translate(28.8 415.8)">
<title>future</title>
<polygon fill="#0b0e14" stroke="transparent" points="-28.8,28.8 -28.8,-415.8 487.06,-415.8 487.06,28.8 -28.8,28.8"/>
<text text-anchor="middle" x="229.13" y="-367" font-family="Helvetica,sans-Serif" font-size="20.00" fill="#e6f7ff">future directions</text>
<!-- now -->
<g id="node1" class="node">
<title>now</title>
<path fill="#11161f" stroke="#39ff14" stroke-width="2.5" d="M171.98,-177.44C171.98,-177.44 145.43,-198.41 145.43,-198.41 140.72,-202.13 130.01,-205.85 124.01,-205.85 124.01,-205.85 57.25,-205.85 57.25,-205.85 51.25,-205.85 40.54,-202.13 35.83,-198.41 35.83,-198.41 9.28,-177.44 9.28,-177.44 4.58,-173.72 4.58,-166.28 9.28,-162.56 9.28,-162.56 35.83,-141.59 35.83,-141.59 40.54,-137.87 51.25,-134.15 57.25,-134.15 57.25,-134.15 124.01,-134.15 124.01,-134.15 130.01,-134.15 140.72,-137.87 145.43,-141.59 145.43,-141.59 171.98,-162.56 171.98,-162.56 176.69,-166.28 176.69,-173.72 171.98,-177.44"/>
<text text-anchor="middle" x="90.63" y="-179.2" font-family="Helvetica,sans-Serif" font-size="11.00" fill="#8dff7a">NOW</text>
<text text-anchor="middle" x="90.63" y="-167.2" font-family="Helvetica,sans-Serif" font-size="11.00" fill="#8dff7a">3 idle HDDs parked</text>
<text text-anchor="middle" x="90.63" y="-155.2" font-family="Helvetica,sans-Serif" font-size="11.00" fill="#8dff7a">cage 33–43 °C</text>
</g>
<!-- f1 -->
<g id="node2" class="node">
<title>f1</title>
<path fill="#11161f" stroke="#ff7a18" stroke-width="2" d="M446.26,-357C446.26,-357 272.26,-357 272.26,-357 266.26,-357 260.26,-351 260.26,-345 260.26,-345 260.26,-325 260.26,-325 260.26,-319 266.26,-313 272.26,-313 272.26,-313 446.26,-313 446.26,-313 452.26,-313 458.26,-319 458.26,-325 458.26,-325 458.26,-345 458.26,-345 458.26,-351 452.26,-357 446.26,-357"/>
<text text-anchor="middle" x="359.26" y="-344.2" font-family="Helvetica,sans-Serif" font-size="11.00" fill="#ffb27a">HARDWARE: lower&#45;cage fan</text>
<text text-anchor="middle" x="359.26" y="-332.2" font-family="Helvetica,sans-Serif" font-size="11.00" fill="#ffb27a">for the always&#45;on RAID0 IronWolfs —</text>
<text text-anchor="middle" x="359.26" y="-320.2" font-family="Helvetica,sans-Serif" font-size="11.00" fill="#ffb27a">the only open thermal item</text>
</g>
<!-- now&#45;&gt;f1 -->
<g id="edge1" class="edge">
<title>now&#45;&gt;f1</title>
<path fill="none" stroke="#39ff14" stroke-width="1.4" d="M130.27,-206.01C162.88,-234.87 211.88,-274.74 260.26,-301 266.32,-304.29 272.75,-307.35 279.31,-310.18"/>
<polygon fill="#39ff14" stroke="#39ff14" stroke-width="1.4" points="278.51,-312.5 285.91,-312.94 280.4,-307.98 278.51,-312.5"/>
</g>
<!-- f2 -->
<g id="node3" class="node">
<title>f2</title>
<path fill="#11161f" stroke="#00e5ff" stroke-width="2" d="M436.76,-288C436.76,-288 281.76,-288 281.76,-288 275.76,-288 269.76,-282 269.76,-276 269.76,-276 269.76,-256 269.76,-256 269.76,-250 275.76,-244 281.76,-244 281.76,-244 436.76,-244 436.76,-244 442.76,-244 448.76,-250 448.76,-256 448.76,-256 448.76,-276 448.76,-276 448.76,-282 442.76,-288 436.76,-288"/>
<text text-anchor="middle" x="359.26" y="-275.2" font-family="Helvetica,sans-Serif" font-size="11.00" fill="#e6f7ff">Generalize the watcher</text>
<text text-anchor="middle" x="359.26" y="-263.2" font-family="Helvetica,sans-Serif" font-size="11.00" fill="#e6f7ff">config&#45;file drive list + per&#45;drive idle</text>
<text text-anchor="middle" x="359.26" y="-251.2" font-family="Helvetica,sans-Serif" font-size="11.00" fill="#e6f7ff">(any timer&#45;ignoring drive)</text>
</g>
<!-- now&#45;&gt;f2 -->
<g id="edge2" class="edge">
<title>now&#45;&gt;f2</title>
<path fill="none" stroke="#39ff14" stroke-width="1.4" d="M152.81,-192.8C184.78,-204.64 224.57,-219.25 260.26,-232 269.06,-235.14 278.33,-238.41 287.5,-241.62"/>
<polygon fill="#39ff14" stroke="#39ff14" stroke-width="1.4" points="286.74,-243.95 294.15,-243.95 288.35,-239.33 286.74,-243.95"/>
</g>
<!-- f3 -->
<g id="node4" class="node">
<title>f3</title>
<path fill="#11161f" stroke="#b56bff" stroke-width="2" d="M441.26,-219C441.26,-219 277.26,-219 277.26,-219 271.26,-219 265.26,-213 265.26,-207 265.26,-207 265.26,-195 265.26,-195 265.26,-189 271.26,-183 277.26,-183 277.26,-183 441.26,-183 441.26,-183 447.26,-183 453.26,-189 453.26,-195 453.26,-195 453.26,-207 453.26,-207 453.26,-213 447.26,-219 441.26,-219"/>
<text text-anchor="middle" x="359.26" y="-204.2" font-family="Helvetica,sans-Serif" font-size="11.00" fill="#e0c8ff">Park&#45;ratio + temp telemetry</text>
<text text-anchor="middle" x="359.26" y="-192.2" font-family="Helvetica,sans-Serif" font-size="11.00" fill="#e0c8ff">export metrics · alert on regressions</text>
</g>
<!-- now&#45;&gt;f3 -->
<g id="edge3" class="edge">
<title>now&#45;&gt;f3</title>
<path fill="none" stroke="#39ff14" stroke-width="1.4" d="M170.19,-179.13C197.78,-182.34 229.15,-185.99 258.26,-189.37"/>
<polygon fill="#39ff14" stroke="#39ff14" stroke-width="1.4" points="257.98,-191.81 265.22,-190.18 258.55,-186.94 257.98,-191.81"/>
</g>
<!-- f4 -->
<g id="node5" class="node">
<title>f4</title>
<path fill="#11161f" stroke="#00e5ff" stroke-width="2" d="M420.26,-158C420.26,-158 298.26,-158 298.26,-158 292.26,-158 286.26,-152 286.26,-146 286.26,-146 286.26,-134 286.26,-134 286.26,-128 292.26,-122 298.26,-122 298.26,-122 420.26,-122 420.26,-122 426.26,-122 432.26,-128 432.26,-134 432.26,-134 432.26,-146 432.26,-146 432.26,-152 426.26,-158 420.26,-158"/>
<text text-anchor="middle" x="359.26" y="-143.2" font-family="Helvetica,sans-Serif" font-size="11.00" fill="#e6f7ff">smartd &#45;W threshold tuning</text>
<text text-anchor="middle" x="359.26" y="-131.2" font-family="Helvetica,sans-Serif" font-size="11.00" fill="#e6f7ff">once airflow is addressed</text>
</g>
<!-- now&#45;&gt;f4 -->
<g id="edge4" class="edge">
<title>now&#45;&gt;f4</title>
<path fill="none" stroke="#39ff14" stroke-width="1.4" d="M170.55,-161.12C204.67,-157.28 244.53,-152.8 278.72,-148.95"/>
<polygon fill="#39ff14" stroke="#39ff14" stroke-width="1.4" points="279.24,-151.36 285.92,-148.14 278.69,-146.49 279.24,-151.36"/>
</g>
<!-- f5 -->
<g id="node6" class="node">
<title>f5</title>
<path fill="#11161f" stroke="#ff3ec9" stroke-width="2" d="M444.26,-97C444.26,-97 274.26,-97 274.26,-97 268.26,-97 262.26,-91 262.26,-85 262.26,-85 262.26,-73 262.26,-73 262.26,-67 268.26,-61 274.26,-61 274.26,-61 444.26,-61 444.26,-61 450.26,-61 456.26,-67 456.26,-73 456.26,-73 456.26,-85 456.26,-85 456.26,-91 450.26,-97 444.26,-97"/>
<text text-anchor="middle" x="359.26" y="-82.2" font-family="Helvetica,sans-Serif" font-size="11.00" fill="#ff9fe4">Package as an installer</text>
<text text-anchor="middle" x="359.26" y="-70.2" font-family="Helvetica,sans-Serif" font-size="11.00" fill="#ff9fe4">by&#45;id discovery wizard + drop&#45;in units</text>
</g>
<!-- now&#45;&gt;f5 -->
<g id="edge5" class="edge">
<title>now&#45;&gt;f5</title>
<path fill="none" stroke="#39ff14" stroke-width="1.4" d="M153.12,-147.53C185,-136.03 224.62,-121.97 260.26,-110 270.91,-106.42 282.24,-102.73 293.28,-99.2"/>
<polygon fill="#39ff14" stroke="#39ff14" stroke-width="1.4" points="294.19,-101.48 300.11,-97.02 292.7,-96.81 294.19,-101.48"/>
</g>
<!-- f6 -->
<g id="node7" class="node">
<title>f6</title>
<path fill="#11161f" stroke="#ffd300" stroke-width="2" d="M436.76,-36C436.76,-36 281.76,-36 281.76,-36 275.76,-36 269.76,-30 269.76,-24 269.76,-24 269.76,-12 269.76,-12 269.76,-6 275.76,0 281.76,0 281.76,0 436.76,0 436.76,0 442.76,0 448.76,-6 448.76,-12 448.76,-12 448.76,-24 448.76,-24 448.76,-30 442.76,-36 436.76,-36"/>
<text text-anchor="middle" x="359.26" y="-21.2" font-family="Helvetica,sans-Serif" font-size="11.00" fill="#ffe98a">Evaluate RAID0 spin&#45;down</text>
<text text-anchor="middle" x="359.26" y="-9.2" font-family="Helvetica,sans-Serif" font-size="11.00" fill="#ffe98a">(risky: md polling, spin&#45;up latency)</text>
</g>
<!-- now&#45;&gt;f6 -->
<g id="edge6" class="edge">
<title>now&#45;&gt;f6</title>
<path fill="none" stroke="#39ff14" stroke-width="1.4" d="M133.58,-134.13C166.31,-107.62 213.87,-72.24 260.26,-49 267.87,-45.19 276.03,-41.73 284.29,-38.61"/>
<polygon fill="#39ff14" stroke="#39ff14" stroke-width="1.4" points="285.51,-40.77 291.24,-36.07 283.83,-36.17 285.51,-40.77"/>
</g>
</g>
</svg>
