<?xml version="1.0" encoding="UTF-8" standalone="no"?>
<!DOCTYPE svg PUBLIC "-//W3C//DTD SVG 1.1//EN"
 "http://www.w3.org/Graphics/SVG/1.1/DTD/svg11.dtd">
<!-- Generated by graphviz version 2.43.0 (0)
 -->
<!-- Title: lessons Pages: 1 -->
<svg width="464pt" height="477pt"
 viewBox="0.00 0.00 464.28 476.60" xmlns="http://www.w3.org/2000/svg" xmlns:xlink="http://www.w3.org/1999/xlink">
<g id="graph0" class="graph" transform="scale(1 1) rotate(0) translate(28.8 447.8)">
<title>lessons</title>
<polygon fill="#0b0e14" stroke="transparent" points="-28.8,28.8 -28.8,-447.8 435.48,-447.8 435.48,28.8 -28.8,28.8"/>
<text text-anchor="middle" x="203.34" y="-399" font-family="Helvetica,sans-Serif" font-size="20.00" fill="#e6f7ff">lessons learned</text>
<!-- core -->
<g id="node1" class="node">
<title>core</title>
<ellipse fill="#1a0a16" stroke="#ff3ec9" stroke-width="2.5" cx="47.84" cy="-194" rx="43.7" ry="43.7"/>
<ellipse fill="none" stroke="#ff3ec9" stroke-width="2.5" cx="47.84" cy="-194" rx="47.68" ry="47.68"/>
<text text-anchor="middle" x="47.84" y="-197.2" font-family="Helvetica,sans-Serif" font-size="11.00" fill="#ff9fe4">quiescent</text>
<text text-anchor="middle" x="47.84" y="-185.2" font-family="Helvetica,sans-Serif" font-size="11.00" fill="#ff9fe4">lessons</text>
</g>
<!-- l1 -->
<g id="node2" class="node">
<title>l1</title>
<path fill="#11161f" stroke="#00e5ff" stroke-width="2" d="M394.68,-389C394.68,-389 186.68,-389 186.68,-389 180.68,-389 174.68,-383 174.68,-377 174.68,-377 174.68,-357 174.68,-357 174.68,-351 180.68,-345 186.68,-345 186.68,-345 394.68,-345 394.68,-345 400.68,-345 406.68,-351 406.68,-357 406.68,-357 406.68,-377 406.68,-377 406.68,-383 400.68,-389 394.68,-389"/>
<text text-anchor="middle" x="290.68" y="-376.2" font-family="Helvetica,sans-Serif" font-size="11.00" fill="#e6f7ff">Pin to IDENTITY, not POSITION</text>
<text text-anchor="middle" x="290.68" y="-364.2" font-family="Helvetica,sans-Serif" font-size="11.00" fill="#e6f7ff">/dev/sdX and enpXsY drift after any</text>
<text text-anchor="middle" x="290.68" y="-352.2" font-family="Helvetica,sans-Serif" font-size="11.00" fill="#e6f7ff">hardware change → use by&#45;id / UUID / MAC</text>
</g>
<!-- core&#45;&gt;l1 -->
<g id="edge1" class="edge">
<title>core&#45;&gt;l1</title>
<path fill="none" stroke="#39ff14" stroke-width="1.4" d="M75.13,-233.34C97.97,-264.62 133.76,-307.27 174.68,-333 179.99,-336.34 185.64,-339.36 191.48,-342.09"/>
<polygon fill="#39ff14" stroke="#39ff14" stroke-width="1.4" points="190.49,-344.34 197.88,-344.95 192.48,-339.86 190.49,-344.34"/>
</g>
<!-- l2 -->
<g id="node3" class="node">
<title>l2</title>
<path fill="#11161f" stroke="#00e5ff" stroke-width="2" d="M387.68,-320C387.68,-320 193.68,-320 193.68,-320 187.68,-320 181.68,-314 181.68,-308 181.68,-308 181.68,-288 181.68,-288 181.68,-282 187.68,-276 193.68,-276 193.68,-276 387.68,-276 387.68,-276 393.68,-276 399.68,-282 399.68,-288 399.68,-288 399.68,-308 399.68,-308 399.68,-314 393.68,-320 387.68,-320"/>
<text text-anchor="middle" x="290.68" y="-307.2" font-family="Helvetica,sans-Serif" font-size="11.00" fill="#e6f7ff">pm&#45;utils is dead</text>
<text text-anchor="middle" x="290.68" y="-295.2" font-family="Helvetica,sans-Serif" font-size="11.00" fill="#e6f7ff">hdparm.conf &#45;S/&#45;B silently never applies</text>
<text text-anchor="middle" x="290.68" y="-283.2" font-family="Helvetica,sans-Serif" font-size="11.00" fill="#e6f7ff">under systemd&#45;udevd → own it with a unit</text>
</g>
<!-- core&#45;&gt;l2 -->
<g id="edge2" class="edge">
<title>core&#45;&gt;l2</title>
<path fill="none" stroke="#39ff14" stroke-width="1.4" d="M88.79,-219.2C112.98,-233.7 144.83,-251.47 174.68,-264 182.86,-267.44 191.51,-270.67 200.24,-273.68"/>
<polygon fill="#39ff14" stroke="#39ff14" stroke-width="1.4" points="199.51,-276.02 206.93,-275.93 201.08,-271.37 199.51,-276.02"/>
</g>
<!-- l3 -->
<g id="node4" class="node">
<title>l3</title>
<path fill="#11161f" stroke="#ffd300" stroke-width="2" d="M382.18,-251C382.18,-251 199.18,-251 199.18,-251 193.18,-251 187.18,-245 187.18,-239 187.18,-239 187.18,-219 187.18,-219 187.18,-213 193.18,-207 199.18,-207 199.18,-207 382.18,-207 382.18,-207 388.18,-207 394.18,-213 394.18,-219 394.18,-219 394.18,-239 394.18,-239 394.18,-245 388.18,-251 382.18,-251"/>
<text text-anchor="middle" x="290.68" y="-238.2" font-family="Helvetica,sans-Serif" font-size="11.00" fill="#ffe98a">Drive firmware varies wildly</text>
<text text-anchor="middle" x="290.68" y="-226.2" font-family="Helvetica,sans-Serif" font-size="11.00" fill="#ffe98a">WD Black ignores long &#45;S timers ·</text>
<text text-anchor="middle" x="290.68" y="-214.2" font-family="Helvetica,sans-Serif" font-size="11.00" fill="#ffe98a">WD AV&#45;GP ignores &#45;S entirely (force &#45;y)</text>
</g>
<!-- core&#45;&gt;l3 -->
<g id="edge3" class="edge">
<title>core&#45;&gt;l3</title>
<path fill="none" stroke="#39ff14" stroke-width="1.4" d="M95.28,-200.75C119.45,-204.26 150.11,-208.72 179.9,-213.05"/>
<polygon fill="#39ff14" stroke="#39ff14" stroke-width="1.4" points="179.76,-215.5 187.04,-214.08 180.47,-210.65 179.76,-215.5"/>
</g>
<!-- l4 -->
<g id="node5" class="node">
<title>l4</title>
<path fill="#11161f" stroke="#b56bff" stroke-width="2" d="M389.68,-182C389.68,-182 191.68,-182 191.68,-182 185.68,-182 179.68,-176 179.68,-170 179.68,-170 179.68,-150 179.68,-150 179.68,-144 185.68,-138 191.68,-138 191.68,-138 389.68,-138 389.68,-138 395.68,-138 401.68,-144 401.68,-150 401.68,-150 401.68,-170 401.68,-170 401.68,-176 395.68,-182 389.68,-182"/>
<text text-anchor="middle" x="290.68" y="-169.2" font-family="Helvetica,sans-Serif" font-size="11.00" fill="#e0c8ff">Measure, don&#39;t assume</text>
<text text-anchor="middle" x="290.68" y="-157.2" font-family="Helvetica,sans-Serif" font-size="11.00" fill="#e0c8ff">APM 254 was a red herring · beware the</text>
<text text-anchor="middle" x="290.68" y="-145.2" font-family="Helvetica,sans-Serif" font-size="11.00" fill="#e0c8ff">observer effect (fuser / &#45;C reset idle timers)</text>
</g>
<!-- core&#45;&gt;l4 -->
<g id="edge4" class="edge">
<title>core&#45;&gt;l4</title>
<path fill="none" stroke="#39ff14" stroke-width="1.4" d="M95.28,-187.44C117.46,-184.31 145.1,-180.41 172.52,-176.54"/>
<polygon fill="#39ff14" stroke="#39ff14" stroke-width="1.4" points="172.89,-178.96 179.48,-175.56 172.21,-174.11 172.89,-178.96"/>
</g>
<!-- l5 -->
<g id="node6" class="node">
<title>l5</title>
<path fill="#11161f" stroke="#ff7a18" stroke-width="2" d="M369.68,-113C369.68,-113 211.68,-113 211.68,-113 205.68,-113 199.68,-107 199.68,-101 199.68,-101 199.68,-81 199.68,-81 199.68,-75 205.68,-69 211.68,-69 211.68,-69 369.68,-69 369.68,-69 375.68,-69 381.68,-75 381.68,-81 381.68,-81 381.68,-101 381.68,-101 381.68,-107 375.68,-113 369.68,-113"/>
<text text-anchor="middle" x="290.68" y="-100.2" font-family="Helvetica,sans-Serif" font-size="11.00" fill="#ffb27a">Mind your own processes</text>
<text text-anchor="middle" x="290.68" y="-88.2" font-family="Helvetica,sans-Serif" font-size="11.00" fill="#ffb27a">a runaway 75&#45;min grep kept a disk</text>
<text text-anchor="middle" x="290.68" y="-76.2" font-family="Helvetica,sans-Serif" font-size="11.00" fill="#ffb27a">spinning (and hot) for nothing</text>
</g>
<!-- core&#45;&gt;l5 -->
<g id="edge5" class="edge">
<title>core&#45;&gt;l5</title>
<path fill="none" stroke="#39ff14" stroke-width="1.4" d="M89.2,-169.51C113.4,-155.51 145.12,-138.34 174.68,-126 183.76,-122.21 193.39,-118.63 203.06,-115.31"/>
<polygon fill="#39ff14" stroke="#39ff14" stroke-width="1.4" points="203.91,-117.61 209.76,-113.06 202.35,-112.97 203.91,-117.61"/>
</g>
<!-- l6 -->
<g id="node7" class="node">
<title>l6</title>
<path fill="#11161f" stroke="#39ff14" stroke-width="2" d="M352.18,-44C352.18,-44 229.18,-44 229.18,-44 223.18,-44 217.18,-38 217.18,-32 217.18,-32 217.18,-12 217.18,-12 217.18,-6 223.18,0 229.18,0 229.18,0 352.18,0 352.18,0 358.18,0 364.18,-6 364.18,-12 364.18,-12 364.18,-32 364.18,-32 364.18,-38 358.18,-44 352.18,-44"/>
<text text-anchor="middle" x="290.68" y="-31.2" font-family="Helvetica,sans-Serif" font-size="11.00" fill="#8dff7a">Fewer spinning platters</text>
<text text-anchor="middle" x="290.68" y="-19.2" font-family="Helvetica,sans-Serif" font-size="11.00" fill="#8dff7a">cools the NEIGHBORS too</text>
<text text-anchor="middle" x="290.68" y="-7.2" font-family="Helvetica,sans-Serif" font-size="11.00" fill="#8dff7a">(shared drive&#45;cage heat)</text>
</g>
<!-- core&#45;&gt;l6 -->
<g id="edge6" class="edge">
<title>core&#45;&gt;l6</title>
<path fill="none" stroke="#39ff14" stroke-width="1.4" d="M75.77,-154.7C98.73,-123.99 134.36,-82.37 174.68,-57 185.56,-50.15 197.86,-44.58 210.27,-40.05"/>
<polygon fill="#39ff14" stroke="#39ff14" stroke-width="1.4" points="211.37,-42.27 217.17,-37.65 209.75,-37.64 211.37,-42.27"/>
</g>
</g>
</svg>
