<?xml version="1.0" encoding="UTF-8" standalone="no"?>
<!DOCTYPE svg PUBLIC "-//W3C//DTD SVG 1.1//EN"
 "http://www.w3.org/Graphics/SVG/1.1/DTD/svg11.dtd">
<!-- Generated by graphviz version 2.43.0 (0)
 -->
<!-- Title: system_schematic Pages: 1 -->
<svg width="1436pt" height="349pt"
 viewBox="0.00 0.00 1435.60 348.60" xmlns="http://www.w3.org/2000/svg" xmlns:xlink="http://www.w3.org/1999/xlink">
<g id="graph0" class="graph" transform="scale(1 1) rotate(0) translate(28.8 319.8)">
<title>system_schematic</title>
<polygon fill="#0b0e14" stroke="transparent" points="-28.8,28.8 -28.8,-319.8 1406.8,-319.8 1406.8,28.8 -28.8,28.8"/>
<text text-anchor="middle" x="689" y="-271" font-family="Helvetica,sans-Serif" font-size="20.00" fill="#e6f7ff">worlock &#160;— &#160;SATA storage map &amp; spin&#45;down policy</text>
<g id="clust1" class="cluster">
<title>cluster_ssd</title>
<path fill="#0b0e14" stroke="#3a4a5a" d="M20,-97C20,-97 343,-97 343,-97 349,-97 355,-103 355,-109 355,-109 355,-167 355,-167 355,-173 349,-179 343,-179 343,-179 20,-179 20,-179 14,-179 8,-173 8,-167 8,-167 8,-109 8,-109 8,-103 14,-97 20,-97"/>
<text text-anchor="middle" x="181.5" y="-159" font-family="Helvetica,sans-Serif" font-size="20.00" fill="#7fa8c9">SSD — no platters, nothing to park</text>
</g>
<g id="clust2" class="cluster">
<title>cluster_parked</title>
<path fill="#0b0e14" stroke="#39ff14" d="M380,-93C380,-93 947,-93 947,-93 953,-93 959,-99 959,-105 959,-105 959,-171 959,-171 959,-177 953,-183 947,-183 947,-183 380,-183 380,-183 374,-183 368,-177 368,-171 368,-171 368,-105 368,-105 368,-99 374,-93 380,-93"/>
<text text-anchor="middle" x="663.5" y="-163" font-family="Helvetica,sans-Serif" font-size="20.00" fill="#8dff7a">idle HDD — PARKED by quiescent</text>
</g>
<g id="clust3" class="cluster">
<title>cluster_raid</title>
<path fill="#0b0e14" stroke="#ff7a18" d="M981,-97C981,-97 1358,-97 1358,-97 1364,-97 1370,-103 1370,-109 1370,-109 1370,-167 1370,-167 1370,-173 1364,-179 1358,-179 1358,-179 981,-179 981,-179 975,-179 969,-173 969,-167 969,-167 969,-109 969,-109 969,-103 975,-97 981,-97"/>
<text text-anchor="middle" x="1169.5" y="-159" font-family="Helvetica,sans-Serif" font-size="20.00" fill="#ffb27a">RAID0 md0 — ALWAYS ON (needs airflow)</text>
</g>
<!-- hba -->
<g id="node1" class="node">
<title>hba</title>
<path fill="#11161f" stroke="#b56bff" stroke-width="2" d="M751,-257C751,-259.21 695.42,-261 627,-261 558.58,-261 503,-259.21 503,-257 503,-257 503,-221 503,-221 503,-218.79 558.58,-217 627,-217 695.42,-217 751,-218.79 751,-221 751,-221 751,-257 751,-257"/>
<path fill="none" stroke="#b56bff" stroke-width="2" d="M751,-257C751,-254.79 695.42,-253 627,-253 558.58,-253 503,-254.79 503,-257"/>
<text text-anchor="middle" x="627" y="-242.2" font-family="Helvetica,sans-Serif" font-size="11.00" fill="#e0c8ff">AMD SATA controller</text>
<text text-anchor="middle" x="627" y="-230.2" font-family="Helvetica,sans-Serif" font-size="11.00" fill="#e0c8ff">/dev/sd? &#160;— &#160;letters DRIFT after PCIe renumber</text>
</g>
<!-- sda -->
<g id="node2" class="node">
<title>sda</title>
<path fill="#11161f" stroke="#5fd0ff" stroke-width="2" d="M169.5,-141C169.5,-141 28.5,-141 28.5,-141 22.5,-141 16.5,-135 16.5,-129 16.5,-129 16.5,-117 16.5,-117 16.5,-111 22.5,-105 28.5,-105 28.5,-105 169.5,-105 169.5,-105 175.5,-105 181.5,-111 181.5,-117 181.5,-117 181.5,-129 181.5,-129 181.5,-135 175.5,-141 169.5,-141"/>
<text text-anchor="middle" x="99" y="-126.2" font-family="Helvetica,sans-Serif" font-size="11.00" fill="#e6f7ff">sda · Samsung 870 EVO 500G</text>
<text text-anchor="middle" x="99" y="-114.2" font-family="Helvetica,sans-Serif" font-size="11.00" fill="#e6f7ff">/mnt/samsung_ssd</text>
</g>
<!-- hba&#45;&gt;sda -->
<g id="edge1" class="edge">
<title>hba&#45;&gt;sda</title>
<path fill="none" stroke="#39ff14" stroke-width="1.6" d="M502.64,-235.82C414.81,-231.02 295.5,-217.83 196,-183 171.53,-174.43 146.6,-159.09 128.14,-146.2"/>
<polygon fill="#39ff14" stroke="#39ff14" stroke-width="1.6" points="129.28,-143.58 121.14,-141.22 126.03,-148.14 129.28,-143.58"/>
</g>
<!-- sdb -->
<g id="node3" class="node">
<title>sdb</title>
<path fill="#11161f" stroke="#5fd0ff" stroke-width="2" d="M335,-141C335,-141 223,-141 223,-141 217,-141 211,-135 211,-129 211,-129 211,-117 211,-117 211,-111 217,-105 223,-105 223,-105 335,-105 335,-105 341,-105 347,-111 347,-117 347,-117 347,-129 347,-129 347,-135 341,-141 335,-141"/>
<text text-anchor="middle" x="279" y="-126.2" font-family="Helvetica,sans-Serif" font-size="11.00" fill="#e6f7ff">sdb · WD Blue 1TB SSD</text>
<text text-anchor="middle" x="279" y="-114.2" font-family="Helvetica,sans-Serif" font-size="11.00" fill="#e6f7ff">(unmounted)</text>
</g>
<!-- hba&#45;&gt;sdb -->
<g id="edge2" class="edge">
<title>hba&#45;&gt;sdb</title>
<path fill="none" stroke="#39ff14" stroke-width="1.6" d="M502.85,-223.41C456.97,-215.19 405.36,-202.48 361,-183 340.2,-173.87 319.47,-158.88 304.05,-146.29"/>
<polygon fill="#39ff14" stroke="#39ff14" stroke-width="1.6" points="305.72,-144.04 297.78,-141.07 302.13,-148.34 305.72,-144.04"/>
</g>
<!-- sdg -->
<g id="node4" class="node">
<title>sdg</title>
<path fill="#11161f" stroke="#39ff14" stroke-width="2" d="M512,-145C512,-145 388,-145 388,-145 382,-145 376,-139 376,-133 376,-133 376,-113 376,-113 376,-107 382,-101 388,-101 388,-101 512,-101 512,-101 518,-101 524,-107 524,-113 524,-113 524,-133 524,-133 524,-139 518,-145 512,-145"/>
<text text-anchor="middle" x="450" y="-132.2" font-family="Helvetica,sans-Serif" font-size="11.00" fill="#e6f7ff">sdg · WD Black 4TB</text>
<text text-anchor="middle" x="450" y="-120.2" font-family="Helvetica,sans-Serif" font-size="11.00" fill="#e6f7ff">backup (unmounted)</text>
<text text-anchor="middle" x="450" y="-108.2" font-family="Helvetica,sans-Serif" font-size="11.00" fill="#e6f7ff">&#45;S 12 timer &#160;&#160;· &#160;&#160;53 → 33 °C</text>
</g>
<!-- hba&#45;&gt;sdg -->
<g id="edge3" class="edge">
<title>hba&#45;&gt;sdg</title>
<path fill="none" stroke="#39ff14" stroke-width="1.6" d="M592.6,-216.79C576.29,-206.67 556.57,-194.31 539,-183 522.37,-172.3 504.15,-160.27 488.55,-149.88"/>
<polygon fill="#39ff14" stroke="#39ff14" stroke-width="1.6" points="489.79,-147.34 481.58,-145.23 486.68,-152 489.79,-147.34"/>
</g>
<!-- sde -->
<g id="node5" class="node">
<title>sde</title>
<path fill="#11161f" stroke="#39ff14" stroke-width="2" d="M689,-145C689,-145 565,-145 565,-145 559,-145 553,-139 553,-133 553,-133 553,-113 553,-113 553,-107 559,-101 565,-101 565,-101 689,-101 689,-101 695,-101 701,-107 701,-113 701,-113 701,-133 701,-133 701,-139 695,-145 689,-145"/>
<text text-anchor="middle" x="627" y="-132.2" font-family="Helvetica,sans-Serif" font-size="11.00" fill="#e6f7ff">sde · Hitachi 2TB</text>
<text text-anchor="middle" x="627" y="-120.2" font-family="Helvetica,sans-Serif" font-size="11.00" fill="#e6f7ff">/mnt/hitachi_2tb</text>
<text text-anchor="middle" x="627" y="-108.2" font-family="Helvetica,sans-Serif" font-size="11.00" fill="#e6f7ff">&#45;S 12 timer &#160;&#160;· &#160;&#160;40 → 34 °C</text>
</g>
<!-- hba&#45;&gt;sde -->
<g id="edge4" class="edge">
<title>hba&#45;&gt;sde</title>
<path fill="none" stroke="#39ff14" stroke-width="1.6" d="M627,-216.82C627,-198.91 627,-173.05 627,-153.17"/>
<polygon fill="#39ff14" stroke="#39ff14" stroke-width="1.6" points="629.8,-153.06 627,-145.06 624.2,-153.06 629.8,-153.06"/>
</g>
<!-- sdc -->
<g id="node6" class="node">
<title>sdc</title>
<path fill="#11161f" stroke="#ffd300" stroke-width="2" d="M939.5,-145C939.5,-145 742.5,-145 742.5,-145 736.5,-145 730.5,-139 730.5,-133 730.5,-133 730.5,-113 730.5,-113 730.5,-107 736.5,-101 742.5,-101 742.5,-101 939.5,-101 939.5,-101 945.5,-101 951.5,-107 951.5,-113 951.5,-113 951.5,-133 951.5,-133 951.5,-139 945.5,-145 939.5,-145"/>
<text text-anchor="middle" x="841" y="-132.2" font-family="Helvetica,sans-Serif" font-size="11.00" fill="#ffe98a">sdc · WD10EURX 1TB &#160;(AV&#45;GP)</text>
<text text-anchor="middle" x="841" y="-120.2" font-family="Helvetica,sans-Serif" font-size="11.00" fill="#ffe98a">/mnt/sda1</text>
<text text-anchor="middle" x="841" y="-108.2" font-family="Helvetica,sans-Serif" font-size="11.00" fill="#ffe98a">watcher: forced hdparm &#45;y &#160;&#160;· &#160;&#160;42 → 33 °C</text>
</g>
<!-- hba&#45;&gt;sdc -->
<g id="edge5" class="edge">
<title>hba&#45;&gt;sdc</title>
<path fill="none" stroke="#39ff14" stroke-width="1.6" d="M666.5,-216.96C702.5,-197.78 755.74,-169.42 793.94,-149.07"/>
<polygon fill="#39ff14" stroke="#39ff14" stroke-width="1.6" points="795.62,-151.34 801.37,-145.11 792.99,-146.4 795.62,-151.34"/>
</g>
<!-- sdd -->
<g id="node7" class="node">
<title>sdd</title>
<path fill="#11161f" stroke="#ff7a18" stroke-width="2" d="M1141.5,-141C1141.5,-141 992.5,-141 992.5,-141 986.5,-141 980.5,-135 980.5,-129 980.5,-129 980.5,-117 980.5,-117 980.5,-111 986.5,-105 992.5,-105 992.5,-105 1141.5,-105 1141.5,-105 1147.5,-105 1153.5,-111 1153.5,-117 1153.5,-117 1153.5,-129 1153.5,-129 1153.5,-135 1147.5,-141 1141.5,-141"/>
<text text-anchor="middle" x="1067" y="-126.2" font-family="Helvetica,sans-Serif" font-size="11.00" fill="#e6f7ff">sdd · IronWolf 12TB</text>
<text text-anchor="middle" x="1067" y="-114.2" font-family="Helvetica,sans-Serif" font-size="11.00" fill="#e6f7ff">md0 + /mnt/sdf1 &#160;&#160;· &#160;&#160;46 → 43 °C</text>
</g>
<!-- hba&#45;&gt;sdd -->
<g id="edge6" class="edge">
<title>hba&#45;&gt;sdd</title>
<path fill="none" stroke="#39ff14" stroke-width="1.6" d="M751.09,-218.96C843.56,-204.59 955.6,-186.73 966,-183 991.19,-173.95 1017.22,-158.58 1036.54,-145.8"/>
<polygon fill="#39ff14" stroke="#39ff14" stroke-width="1.6" points="1038.27,-148.01 1043.34,-141.22 1035.14,-143.36 1038.27,-148.01"/>
</g>
<!-- sdf -->
<g id="node8" class="node">
<title>sdf</title>
<path fill="#11161f" stroke="#ff7a18" stroke-width="2" d="M1287,-141C1287,-141 1195,-141 1195,-141 1189,-141 1183,-135 1183,-129 1183,-129 1183,-117 1183,-117 1183,-111 1189,-105 1195,-105 1195,-105 1287,-105 1287,-105 1293,-105 1299,-111 1299,-117 1299,-117 1299,-129 1299,-129 1299,-135 1293,-141 1287,-141"/>
<text text-anchor="middle" x="1241" y="-126.2" font-family="Helvetica,sans-Serif" font-size="11.00" fill="#e6f7ff">sdf · IronWolf 12TB</text>
<text text-anchor="middle" x="1241" y="-114.2" font-family="Helvetica,sans-Serif" font-size="11.00" fill="#e6f7ff">md0 &#160;&#160;· &#160;&#160;49 → 42 °C</text>
</g>
<!-- hba&#45;&gt;sdf -->
<g id="edge7" class="edge">
<title>hba&#45;&gt;sdf</title>
<path fill="none" stroke="#39ff14" stroke-width="1.6" d="M751.23,-218.82C756.21,-218.18 761.15,-217.57 766,-217 855.04,-206.52 1084.81,-216.42 1168,-183 1187.8,-175.04 1206.44,-159.79 1219.93,-146.79"/>
<polygon fill="#39ff14" stroke="#39ff14" stroke-width="1.6" points="1222.05,-148.63 1225.75,-141 1218.11,-144.66 1222.05,-148.63"/>
</g>
<!-- md0 -->
<g id="node9" class="node">
<title>md0</title>
<polygon fill="#11161f" stroke="#ff3ec9" stroke-width="2" points="1223,-36 1089,-36 1085,-32 1085,0 1219,0 1223,-4 1223,-36"/>
<polyline fill="none" stroke="#ff3ec9" stroke-width="2" points="1219,-32 1085,-32 "/>
<polyline fill="none" stroke="#ff3ec9" stroke-width="2" points="1219,-32 1219,0 "/>
<polyline fill="none" stroke="#ff3ec9" stroke-width="2" points="1219,-32 1223,-36 "/>
<text text-anchor="middle" x="1154" y="-21.2" font-family="Helvetica,sans-Serif" font-size="11.00" fill="#ff9fe4">md0 &#160;(RAID0, /mnt/raid0)</text>
<text text-anchor="middle" x="1154" y="-9.2" font-family="Helvetica,sans-Serif" font-size="11.00" fill="#ff9fe4">monolithic_pdf archive</text>
</g>
<!-- sdd&#45;&gt;md0 -->
<g id="edge8" class="edge">
<title>sdd&#45;&gt;md0</title>
<path fill="none" stroke="#ff3ec9" stroke-width="1.6" stroke-dasharray="5,2" d="M1081.37,-104.99C1095.85,-87.85 1118.31,-61.26 1134.41,-42.19"/>
<polygon fill="#ff3ec9" stroke="#ff3ec9" stroke-width="1.6" points="1136.59,-43.95 1139.61,-36.03 1132.31,-40.34 1136.59,-43.95"/>
<text text-anchor="middle" x="1133" y="-64.8" font-family="Times,serif" font-size="14.00" fill="#ff9fe4"> sdd2</text>
</g>
<!-- sdf&#45;&gt;md0 -->
<g id="edge9" class="edge">
<title>sdf&#45;&gt;md0</title>
<path fill="none" stroke="#ff3ec9" stroke-width="1.6" stroke-dasharray="5,2" d="M1226.63,-104.99C1212.15,-87.85 1189.69,-61.26 1173.59,-42.19"/>
<polygon fill="#ff3ec9" stroke="#ff3ec9" stroke-width="1.6" points="1175.69,-40.34 1168.39,-36.03 1171.41,-43.95 1175.69,-40.34"/>
<text text-anchor="middle" x="1214" y="-64.8" font-family="Times,serif" font-size="14.00" fill="#ff9fe4"> sdf2</text>
</g>
<!-- legend -->
<g id="node10" class="node">
<title>legend</title>
<path fill="transparent" stroke="transparent" stroke-width="2" d="M1241.5,-257C1241.5,-257 792.5,-257 792.5,-257 786.5,-257 780.5,-251 780.5,-245 780.5,-245 780.5,-233 780.5,-233 780.5,-227 786.5,-221 792.5,-221 792.5,-221 1241.5,-221 1241.5,-221 1247.5,-221 1253.5,-227 1253.5,-233 1253.5,-233 1253.5,-245 1253.5,-245 1253.5,-251 1247.5,-257 1241.5,-257"/>
<text text-anchor="start" x="788.5" y="-237.2" font-family="Helvetica,sans-Serif" font-size="11.00" fill="#39ff14">green</text>
<text text-anchor="start" x="816.5" y="-237.2" font-family="Helvetica,sans-Serif" font-size="11.00" fill="#7fa8c9"> = parked via ATA &#45;S timer  </text>
<text text-anchor="start" x="949.5" y="-237.2" font-family="Helvetica,sans-Serif" font-size="11.00" fill="#ffd300">amber</text>
<text text-anchor="start" x="980.5" y="-237.2" font-family="Helvetica,sans-Serif" font-size="11.00" fill="#7fa8c9"> = parked via software watcher  </text>
<text text-anchor="start" x="1134.5" y="-237.2" font-family="Helvetica,sans-Serif" font-size="11.00" fill="#ff7a18">orange</text>
<text text-anchor="start" x="1168.5" y="-237.2" font-family="Helvetica,sans-Serif" font-size="11.00" fill="#7fa8c9"> = active RAID0</text>
</g>
</g>
</svg>
