<?xml version="1.0" encoding="UTF-8" standalone="no"?>
<!DOCTYPE svg PUBLIC "-//W3C//DTD SVG 1.1//EN"
 "http://www.w3.org/Graphics/SVG/1.1/DTD/svg11.dtd">
<!-- Generated by graphviz version 2.43.0 (0)
 -->
<!-- Title: what_we_did Pages: 1 -->
<svg width="582pt" height="862pt"
 viewBox="0.00 0.00 581.60 862.32" xmlns="http://www.w3.org/2000/svg" xmlns:xlink="http://www.w3.org/1999/xlink">
<g id="graph0" class="graph" transform="scale(1 1) rotate(0) translate(28.8 833.52)">
<title>what_we_did</title>
<polygon fill="#0b0e14" stroke="transparent" points="-28.8,28.8 -28.8,-833.52 552.8,-833.52 552.8,28.8 -28.8,28.8"/>
<text text-anchor="middle" x="262" y="-784.72" font-family="Helvetica,sans-Serif" font-size="20.00" fill="#e6f7ff">what we did &#160;— &#160;one root cause, six fixes, one cooling win</text>
<!-- a -->
<g id="node1" class="node">
<title>a</title>
<path fill="#11161f" stroke="#00e5ff" stroke-width="2" d="M344.71,-774.72C344.71,-774.72 131.71,-774.72 131.71,-774.72 125.71,-774.72 119.71,-768.72 119.71,-762.72 119.71,-762.72 119.71,-750.72 119.71,-750.72 119.71,-744.72 125.71,-738.72 131.71,-738.72 131.71,-738.72 344.71,-738.72 344.71,-738.72 350.71,-738.72 356.71,-744.72 356.71,-750.72 356.71,-750.72 356.71,-762.72 356.71,-762.72 356.71,-768.72 350.71,-774.72 344.71,-774.72"/>
<text text-anchor="middle" x="238.21" y="-759.92" font-family="Helvetica,sans-Serif" font-size="11.00" fill="#e6f7ff">boot&#45;log audit</text>
<text text-anchor="middle" x="238.21" y="-747.92" font-family="Helvetica,sans-Serif" font-size="11.00" fill="#e6f7ff">0 failed units · 3 reboots were a BIOS reconfig</text>
</g>
<!-- b -->
<g id="node2" class="node">
<title>b</title>
<path fill="#11161f" stroke="#ff7a18" stroke-width="2" d="M366.71,-697.72C366.71,-697.72 109.71,-697.72 109.71,-697.72 103.71,-697.72 97.71,-691.72 97.71,-685.72 97.71,-685.72 97.71,-673.72 97.71,-673.72 97.71,-667.72 103.71,-661.72 109.71,-661.72 109.71,-661.72 366.71,-661.72 366.71,-661.72 372.71,-661.72 378.71,-667.72 378.71,-673.72 378.71,-673.72 378.71,-685.72 378.71,-685.72 378.71,-691.72 372.71,-697.72 366.71,-697.72"/>
<text text-anchor="middle" x="238.21" y="-682.92" font-family="Helvetica,sans-Serif" font-size="11.00" fill="#ffb27a">found: stale &#160;ethtool@enp8s0</text>
<text text-anchor="middle" x="238.21" y="-670.92" font-family="Helvetica,sans-Serif" font-size="11.00" fill="#ffb27a">→ ~90 s boot timeout (NIC renamed enp8s0→enp9s0)</text>
</g>
<!-- a&#45;&gt;b -->
<g id="edge1" class="edge">
<title>a&#45;&gt;b</title>
<path fill="none" stroke="#39ff14" stroke-width="1.7" d="M238.21,-738.7C238.21,-729.18 238.21,-717.12 238.21,-706.46"/>
<polygon fill="#39ff14" stroke="#39ff14" stroke-width="1.7" points="241.18,-706.43 238.21,-697.93 235.23,-706.43 241.18,-706.43"/>
</g>
<!-- c -->
<g id="node3" class="node">
<title>c</title>
<path fill="#1a0a16" stroke="#ff3ec9" stroke-width="3" d="M383.55,-571.96C383.55,-571.96 383.55,-583.76 383.55,-583.76 383.55,-589.66 377.89,-597.22 372.23,-598.88 372.23,-598.88 309.73,-617.26 309.73,-617.26 304.07,-618.92 292.51,-620.58 286.61,-620.58 286.61,-620.58 189.81,-620.58 189.81,-620.58 183.91,-620.58 172.35,-618.92 166.69,-617.26 166.69,-617.26 104.19,-598.88 104.19,-598.88 98.53,-597.22 92.87,-589.66 92.87,-583.76 92.87,-583.76 92.87,-571.96 92.87,-571.96 92.87,-566.06 98.53,-558.5 104.19,-556.84 104.19,-556.84 166.69,-538.47 166.69,-538.47 172.35,-536.8 183.91,-535.14 189.81,-535.14 189.81,-535.14 286.61,-535.14 286.61,-535.14 292.51,-535.14 304.07,-536.8 309.73,-538.47 309.73,-538.47 372.23,-556.84 372.23,-556.84 377.89,-558.5 383.55,-566.06 383.55,-571.96"/>
<text text-anchor="middle" x="238.21" y="-593.06" font-family="Helvetica,sans-Serif" font-size="11.00" fill="#ff9fe4">★ &#160;ROOT CAUSE</text>
<text text-anchor="middle" x="238.21" y="-581.06" font-family="Helvetica,sans-Serif" font-size="11.00" fill="#ff9fe4">positional names DRIFT after the</text>
<text text-anchor="middle" x="238.21" y="-569.06" font-family="Helvetica,sans-Serif" font-size="11.00" fill="#ff9fe4">RTX 5080 / 3080 PCIe renumbering</text>
<text text-anchor="middle" x="238.21" y="-557.06" font-family="Helvetica,sans-Serif" font-size="11.00" fill="#ff9fe4">(/dev/sdX &#160;&amp; &#160;enpXsY)</text>
</g>
<!-- b&#45;&gt;c -->
<g id="edge2" class="edge">
<title>b&#45;&gt;c</title>
<path fill="none" stroke="#39ff14" stroke-width="1.7" d="M238.21,-661.33C238.21,-652.42 238.21,-641.07 238.21,-629.66"/>
<polygon fill="#39ff14" stroke="#39ff14" stroke-width="1.7" points="241.18,-629.46 238.21,-620.96 235.23,-629.46 241.18,-629.46"/>
</g>
<!-- d -->
<g id="node4" class="node">
<title>d</title>
<path fill="#11161f" stroke="#00e5ff" stroke-width="2" d="M339.71,-494C339.71,-494 136.71,-494 136.71,-494 130.71,-494 124.71,-488 124.71,-482 124.71,-482 124.71,-470 124.71,-470 124.71,-464 130.71,-458 136.71,-458 136.71,-458 339.71,-458 339.71,-458 345.71,-458 351.71,-464 351.71,-470 351.71,-470 351.71,-482 351.71,-482 351.71,-488 345.71,-494 339.71,-494"/>
<text text-anchor="middle" x="238.21" y="-479.2" font-family="Helvetica,sans-Serif" font-size="11.00" fill="#e6f7ff">smartd.conf &#160;→ &#160;by&#45;id</text>
<text text-anchor="middle" x="238.21" y="-467.2" font-family="Helvetica,sans-Serif" font-size="11.00" fill="#e6f7ff">(it had been monitoring the WRONG drives)</text>
</g>
<!-- c&#45;&gt;d -->
<g id="edge3" class="edge">
<title>c&#45;&gt;d</title>
<path fill="none" stroke="#39ff14" stroke-width="1.7" d="M238.21,-535.09C238.21,-524.12 238.21,-512.62 238.21,-502.76"/>
<polygon fill="#39ff14" stroke="#39ff14" stroke-width="1.7" points="241.18,-502.74 238.21,-494.24 235.23,-502.74 241.18,-502.74"/>
</g>
<!-- h -->
<g id="node8" class="node">
<title>h</title>
<path fill="#11161f" stroke="#ffd300" stroke-width="2" d="M352.21,-141C352.21,-141 124.21,-141 124.21,-141 118.21,-141 112.21,-135 112.21,-129 112.21,-129 112.21,-97 112.21,-97 112.21,-91 118.21,-85 124.21,-85 124.21,-85 352.21,-85 352.21,-85 358.21,-85 364.21,-91 364.21,-97 364.21,-97 364.21,-129 364.21,-129 364.21,-135 358.21,-141 352.21,-141"/>
<text text-anchor="middle" x="238.21" y="-128.2" font-family="Helvetica,sans-Serif" font-size="11.00" fill="#ffe98a">spin&#45;down saga</text>
<text text-anchor="middle" x="238.21" y="-116.2" font-family="Helvetica,sans-Serif" font-size="11.00" fill="#ffe98a">WD Black: firmware ignores long &#45;S timers</text>
<text text-anchor="middle" x="238.21" y="-104.2" font-family="Helvetica,sans-Serif" font-size="11.00" fill="#ffe98a">Hitachi: &#45;S 12 works</text>
<text text-anchor="middle" x="238.21" y="-92.2" font-family="Helvetica,sans-Serif" font-size="11.00" fill="#ffe98a">WD10EURX (AV&#45;GP): needs a forced &#45;y watcher</text>
</g>
<!-- c&#45;&gt;h -->
<g id="edge9" class="edge">
<title>c&#45;&gt;h</title>
<path fill="none" stroke="#7fa8c9" stroke-width="1.7" stroke-dasharray="1,5" d="M317.05,-540.33C334.71,-528.21 351.17,-512.87 361.21,-494 368.73,-479.88 361.59,-474 361.21,-458 358.31,-335.01 405.72,-286.13 340.21,-182 331.19,-167.66 317.91,-155.66 303.9,-145.93"/>
<polygon fill="#7fa8c9" stroke="#7fa8c9" stroke-width="1.7" points="305.25,-143.26 296.52,-141.05 301.97,-148.22 305.25,-143.26"/>
<text text-anchor="middle" x="401.21" y="-349.8" font-family="Times,serif" font-size="14.00" fill="#7fa8c9"> same</text>
<text text-anchor="middle" x="401.21" y="-334.8" font-family="Times,serif" font-size="14.00" fill="#7fa8c9"> root cause</text>
</g>
<!-- e -->
<g id="node5" class="node">
<title>e</title>
<path fill="#11161f" stroke="#00e5ff" stroke-width="2" d="M318.71,-417C318.71,-417 157.71,-417 157.71,-417 151.71,-417 145.71,-411 145.71,-405 145.71,-405 145.71,-393 145.71,-393 145.71,-387 151.71,-381 157.71,-381 157.71,-381 318.71,-381 318.71,-381 324.71,-381 330.71,-387 330.71,-393 330.71,-393 330.71,-405 330.71,-405 330.71,-411 324.71,-417 318.71,-417"/>
<text text-anchor="middle" x="238.21" y="-402.2" font-family="Helvetica,sans-Serif" font-size="11.00" fill="#e6f7ff">nvme0n1 udev nr_requests</text>
<text text-anchor="middle" x="238.21" y="-390.2" font-family="Helvetica,sans-Serif" font-size="11.00" fill="#e6f7ff">EINVAL every boot &#160;→ &#160;1022→255</text>
</g>
<!-- d&#45;&gt;e -->
<g id="edge4" class="edge">
<title>d&#45;&gt;e</title>
<path fill="none" stroke="#39ff14" stroke-width="1.7" d="M238.21,-457.98C238.21,-448.46 238.21,-436.4 238.21,-425.74"/>
<polygon fill="#39ff14" stroke="#39ff14" stroke-width="1.7" points="241.18,-425.71 238.21,-417.21 235.23,-425.71 241.18,-425.71"/>
</g>
<!-- f -->
<g id="node6" class="node">
<title>f</title>
<path fill="#11161f" stroke="#00e5ff" stroke-width="2" d="M330.71,-311C330.71,-311 145.71,-311 145.71,-311 139.71,-311 133.71,-305 133.71,-299 133.71,-299 133.71,-279 133.71,-279 133.71,-273 139.71,-267 145.71,-267 145.71,-267 330.71,-267 330.71,-267 336.71,-267 342.71,-273 342.71,-279 342.71,-279 342.71,-299 342.71,-299 342.71,-305 336.71,-311 330.71,-311"/>
<text text-anchor="middle" x="238.21" y="-298.2" font-family="Helvetica,sans-Serif" font-size="11.00" fill="#e6f7ff">stale&#45;ref cleanup</text>
<text text-anchor="middle" x="238.21" y="-286.2" font-family="Helvetica,sans-Serif" font-size="11.00" fill="#e6f7ff">firewall · netplan · sysctl · NM dispatcher</text>
<text text-anchor="middle" x="238.21" y="-274.2" font-family="Helvetica,sans-Serif" font-size="11.00" fill="#e6f7ff">(all still naming dead enp7s0)</text>
</g>
<!-- e&#45;&gt;f -->
<g id="edge5" class="edge">
<title>e&#45;&gt;f</title>
<path fill="none" stroke="#39ff14" stroke-width="1.7" d="M238.21,-380.65C238.21,-364.2 238.21,-339.18 238.21,-319.58"/>
<polygon fill="#39ff14" stroke="#39ff14" stroke-width="1.7" points="241.18,-319.51 238.21,-311.01 235.23,-319.51 241.18,-319.51"/>
</g>
<!-- g -->
<g id="node7" class="node">
<title>g</title>
<path fill="#11161f" stroke="#00e5ff" stroke-width="2" d="M319.21,-226C319.21,-226 157.21,-226 157.21,-226 151.21,-226 145.21,-220 145.21,-214 145.21,-214 145.21,-194 145.21,-194 145.21,-188 151.21,-182 157.21,-182 157.21,-182 319.21,-182 319.21,-182 325.21,-182 331.21,-188 331.21,-194 331.21,-194 331.21,-214 331.21,-214 331.21,-220 325.21,-226 319.21,-226"/>
<text text-anchor="middle" x="238.21" y="-213.2" font-family="Helvetica,sans-Serif" font-size="11.00" fill="#e6f7ff">igb ring&#45;buffer awk bug</text>
<text text-anchor="middle" x="238.21" y="-201.2" font-family="Helvetica,sans-Serif" font-size="11.00" fill="#e6f7ff">rmax read past &#39;Pre&#45;set maximums&#39;</text>
<text text-anchor="middle" x="238.21" y="-189.2" font-family="Helvetica,sans-Serif" font-size="11.00" fill="#e6f7ff">→ ring now 4096</text>
</g>
<!-- f&#45;&gt;g -->
<g id="edge6" class="edge">
<title>f&#45;&gt;g</title>
<path fill="none" stroke="#39ff14" stroke-width="1.7" d="M238.21,-266.63C238.21,-256.87 238.21,-245.15 238.21,-234.57"/>
<polygon fill="#39ff14" stroke="#39ff14" stroke-width="1.7" points="241.18,-234.51 238.21,-226.01 235.23,-234.51 241.18,-234.51"/>
</g>
<!-- g&#45;&gt;h -->
<g id="edge7" class="edge">
<title>g&#45;&gt;h</title>
<path fill="none" stroke="#39ff14" stroke-width="1.7" d="M238.21,-181.91C238.21,-172.25 238.21,-160.55 238.21,-149.59"/>
<polygon fill="#39ff14" stroke="#39ff14" stroke-width="1.7" points="241.18,-149.52 238.21,-141.02 235.23,-149.52 241.18,-149.52"/>
</g>
<!-- i -->
<g id="node9" class="node">
<title>i</title>
<path fill="#11161f" stroke="#39ff14" stroke-width="3" d="M352.71,-44C352.71,-44 123.71,-44 123.71,-44 117.71,-44 111.71,-38 111.71,-32 111.71,-32 111.71,-12 111.71,-12 111.71,-6 117.71,0 123.71,0 123.71,0 352.71,0 352.71,0 358.71,0 364.71,-6 364.71,-12 364.71,-12 364.71,-32 364.71,-32 364.71,-38 358.71,-44 352.71,-44"/>
<text text-anchor="middle" x="238.21" y="-31.2" font-family="Helvetica,sans-Serif" font-size="11.00" fill="#8dff7a">✓ &#160;THERMAL VALIDATION</text>
<text text-anchor="middle" x="238.21" y="-19.2" font-family="Helvetica,sans-Serif" font-size="11.00" fill="#8dff7a">WD Black 53 → 33 °C · cage 40–53 → 33–43 °C</text>
<text text-anchor="middle" x="238.21" y="-7.2" font-family="Helvetica,sans-Serif" font-size="11.00" fill="#8dff7a">(active drives cooled too)</text>
</g>
<!-- h&#45;&gt;i -->
<g id="edge8" class="edge">
<title>h&#45;&gt;i</title>
<path fill="none" stroke="#39ff14" stroke-width="1.7" d="M238.21,-84.81C238.21,-74.69 238.21,-63.15 238.21,-52.81"/>
<polygon fill="#39ff14" stroke="#39ff14" stroke-width="1.7" points="241.18,-52.59 238.21,-44.09 235.23,-52.59 241.18,-52.59"/>
</g>
</g>
</svg>
