<?xml version="1.0" encoding="UTF-8" standalone="no"?>
<!DOCTYPE svg PUBLIC "-//W3C//DTD SVG 1.1//EN"
 "http://www.w3.org/Graphics/SVG/1.1/DTD/svg11.dtd">
<!-- Generated by graphviz version 2.43.0 (0)
 -->
<!-- Title: G Pages: 1 -->
<svg width="451pt" height="798pt"
 viewBox="0.00 0.00 450.60 797.60" xmlns="http://www.w3.org/2000/svg" xmlns:xlink="http://www.w3.org/1999/xlink">
<g id="graph0" class="graph" transform="scale(1 1) rotate(0) translate(28.8 768.8)">
<title>G</title>
<polygon fill="#0d0e15" stroke="transparent" points="-28.8,28.8 -28.8,-768.8 421.8,-768.8 421.8,28.8 -28.8,28.8"/>
<text text-anchor="middle" x="196.5" y="-7.8" font-family="Courier New" font-size="14.00" fill="#00ffcc">01. DAEMON WATCH LOOP FLOW (quiescentd)</text>
<!-- start -->
<g id="node1" class="node">
<title>start</title>
<polygon fill="#11241a" stroke="#00ff88" stroke-width="2" points="285.5,-740 184.5,-740 184.5,-704 285.5,-704 285.5,-740"/>
<text text-anchor="middle" x="235" y="-719.8" font-family="Courier New" font-size="9.00" fill="#ffffff">Start quiescentd</text>
</g>
<!-- init -->
<g id="node2" class="node">
<title>init</title>
<polygon fill="#161925" stroke="#00d2ff" stroke-width="2" points="309,-667 161,-667 161,-631 309,-631 309,-667"/>
<text text-anchor="middle" x="235" y="-651.8" font-family="Courier New" font-size="9.00" fill="#ffffff">Parse /etc/quiescent.conf</text>
<text text-anchor="middle" x="235" y="-641.8" font-family="Courier New" font-size="9.00" fill="#ffffff">Load drives into memory</text>
</g>
<!-- start&#45;&gt;init -->
<g id="edge1" class="edge">
<title>start&#45;&gt;init</title>
<path fill="none" stroke="#ff00cc" stroke-width="1.5" d="M235,-703.81C235,-695.79 235,-686.05 235,-677.07"/>
<polygon fill="#ff00cc" stroke="#ff00cc" stroke-width="1.5" points="238.5,-677.03 235,-667.03 231.5,-677.03 238.5,-677.03"/>
</g>
<!-- loop -->
<g id="node3" class="node">
<title>loop</title>
<polygon fill="#161925" stroke="#00d2ff" stroke-width="2" points="296,-594 174,-594 174,-558 296,-558 296,-594"/>
<text text-anchor="middle" x="235" y="-578.8" font-family="Courier New" font-size="9.00" fill="#ffffff">Watch loop tick</text>
<text text-anchor="middle" x="235" y="-568.8" font-family="Courier New" font-size="9.00" fill="#ffffff">(Sleep intervalSecs)</text>
</g>
<!-- init&#45;&gt;loop -->
<g id="edge2" class="edge">
<title>init&#45;&gt;loop</title>
<path fill="none" stroke="#ff00cc" stroke-width="1.5" d="M235,-630.81C235,-622.79 235,-613.05 235,-604.07"/>
<polygon fill="#ff00cc" stroke="#ff00cc" stroke-width="1.5" points="238.5,-604.03 235,-594.03 231.5,-604.03 238.5,-604.03"/>
</g>
<!-- poll -->
<g id="node4" class="node">
<title>poll</title>
<polygon fill="#161925" stroke="#00d2ff" stroke-width="2" points="311.5,-521 158.5,-521 158.5,-485 311.5,-485 311.5,-521"/>
<text text-anchor="middle" x="235" y="-500.8" font-family="Courier New" font-size="9.00" fill="#ffffff">Poll next watch&#45;mode drive</text>
</g>
<!-- loop&#45;&gt;poll -->
<g id="edge3" class="edge">
<title>loop&#45;&gt;poll</title>
<path fill="none" stroke="#ff00cc" stroke-width="1.5" d="M235,-557.81C235,-549.79 235,-540.05 235,-531.07"/>
<polygon fill="#ff00cc" stroke="#ff00cc" stroke-width="1.5" points="238.5,-531.03 235,-521.03 231.5,-531.03 238.5,-531.03"/>
</g>
<!-- check_pstate -->
<g id="node5" class="node">
<title>check_pstate</title>
<polygon fill="#161925" stroke="#00d2ff" stroke-width="2" points="306.5,-448 163.5,-448 163.5,-412 306.5,-412 306.5,-448"/>
<text text-anchor="middle" x="235" y="-432.8" font-family="Courier New" font-size="9.00" fill="#ffffff">Query drive.powerState()</text>
<text text-anchor="middle" x="235" y="-422.8" font-family="Courier New" font-size="9.00" fill="#ffffff">(hdparm &#45;C)</text>
</g>
<!-- poll&#45;&gt;check_pstate -->
<g id="edge4" class="edge">
<title>poll&#45;&gt;check_pstate</title>
<path fill="none" stroke="#ff00cc" stroke-width="1.5" d="M235,-484.81C235,-476.79 235,-467.05 235,-458.07"/>
<polygon fill="#ff00cc" stroke="#ff00cc" stroke-width="1.5" points="238.5,-458.03 235,-448.03 231.5,-458.03 238.5,-458.03"/>
</g>
<!-- is_asleep -->
<g id="node6" class="node">
<title>is_asleep</title>
<polygon fill="#161925" stroke="#00d2ff" stroke-width="2" points="288,-375 182,-375 182,-339 288,-339 288,-375"/>
<text text-anchor="middle" x="235" y="-359.8" font-family="Courier New" font-size="9.00" fill="#ffffff">Is drive already</text>
<text text-anchor="middle" x="235" y="-349.8" font-family="Courier New" font-size="9.00" fill="#ffffff">standby/sleeping?</text>
</g>
<!-- check_pstate&#45;&gt;is_asleep -->
<g id="edge5" class="edge">
<title>check_pstate&#45;&gt;is_asleep</title>
<path fill="none" stroke="#ff00cc" stroke-width="1.5" d="M235,-411.81C235,-403.79 235,-394.05 235,-385.07"/>
<polygon fill="#ff00cc" stroke="#ff00cc" stroke-width="1.5" points="238.5,-385.03 235,-375.03 231.5,-385.03 238.5,-385.03"/>
</g>
<!-- reset_window -->
<g id="node7" class="node">
<title>reset_window</title>
<polygon fill="#161925" stroke="#00d2ff" stroke-width="2" points="171.5,-294 28.5,-294 28.5,-258 171.5,-258 171.5,-294"/>
<text text-anchor="middle" x="100" y="-278.8" font-family="Courier New" font-size="9.00" fill="#ffffff">Reset haveSample = false</text>
<text text-anchor="middle" x="100" y="-268.8" font-family="Courier New" font-size="9.00" fill="#ffffff">(Never wake it)</text>
</g>
<!-- is_asleep&#45;&gt;reset_window -->
<g id="edge6" class="edge">
<title>is_asleep&#45;&gt;reset_window</title>
<path fill="none" stroke="#ff00cc" stroke-width="1.5" d="M205.71,-338.86C185.89,-327.26 159.53,-311.84 138.09,-299.29"/>
<polygon fill="#ff00cc" stroke="#ff00cc" stroke-width="1.5" points="139.63,-296.14 129.24,-294.11 136.1,-302.18 139.63,-296.14"/>
<text text-anchor="middle" x="178" y="-314.6" font-family="Courier New" font-size="8.00" fill="#ff00cc">Yes</text>
</g>
<!-- read_io -->
<g id="node8" class="node">
<title>read_io</title>
<polygon fill="#161925" stroke="#00d2ff" stroke-width="2" points="326.5,-294 189.5,-294 189.5,-258 326.5,-258 326.5,-294"/>
<text text-anchor="middle" x="258" y="-278.8" font-family="Courier New" font-size="9.00" fill="#ffffff">Read block I/O count</text>
<text text-anchor="middle" x="258" y="-268.8" font-family="Courier New" font-size="9.00" fill="#ffffff">(/sys/block/&lt;dev&gt;/stat)</text>
</g>
<!-- is_asleep&#45;&gt;read_io -->
<g id="edge7" class="edge">
<title>is_asleep&#45;&gt;read_io</title>
<path fill="none" stroke="#ff00cc" stroke-width="1.5" d="M239.99,-338.86C242.97,-328.61 246.83,-315.37 250.21,-303.76"/>
<polygon fill="#ff00cc" stroke="#ff00cc" stroke-width="1.5" points="253.58,-304.69 253.02,-294.11 246.86,-302.73 253.58,-304.69"/>
<text text-anchor="middle" x="252" y="-314.6" font-family="Courier New" font-size="8.00" fill="#ff00cc">No</text>
</g>
<!-- reset_window&#45;&gt;poll -->
<g id="edge13" class="edge">
<title>reset_window&#45;&gt;poll</title>
<path fill="none" stroke="#ff00cc" stroke-width="1.5" d="M101.79,-294.23C105.95,-327.12 118.86,-399.87 155,-448 164.4,-460.52 177.6,-471.09 190.57,-479.48"/>
<polygon fill="#ff00cc" stroke="#ff00cc" stroke-width="1.5" points="189.1,-482.68 199.46,-484.92 192.76,-476.72 189.1,-482.68"/>
</g>
<!-- io_changed -->
<g id="node9" class="node">
<title>io_changed</title>
<polygon fill="#161925" stroke="#00d2ff" stroke-width="2" points="326.5,-221 183.5,-221 183.5,-185 326.5,-185 326.5,-221"/>
<text text-anchor="middle" x="255" y="-205.8" font-family="Courier New" font-size="9.00" fill="#ffffff">Has block I/O</text>
<text text-anchor="middle" x="255" y="-195.8" font-family="Courier New" font-size="9.00" fill="#ffffff">changed since last tick?</text>
</g>
<!-- read_io&#45;&gt;io_changed -->
<g id="edge8" class="edge">
<title>read_io&#45;&gt;io_changed</title>
<path fill="none" stroke="#ff00cc" stroke-width="1.5" d="M257.27,-257.81C256.93,-249.79 256.52,-240.05 256.14,-231.07"/>
<polygon fill="#ff00cc" stroke="#ff00cc" stroke-width="1.5" points="259.64,-230.87 255.72,-221.03 252.64,-231.17 259.64,-230.87"/>
</g>
<!-- update_state -->
<g id="node10" class="node">
<title>update_state</title>
<polygon fill="#161925" stroke="#00d2ff" stroke-width="2" points="365,-140 217,-140 217,-104 365,-104 365,-140"/>
<text text-anchor="middle" x="291" y="-124.8" font-family="Courier New" font-size="9.00" fill="#ffffff">Update lastIo &amp; idleSince</text>
<text text-anchor="middle" x="291" y="-114.8" font-family="Courier New" font-size="9.00" fill="#ffffff">Set haveSample = true</text>
</g>
<!-- io_changed&#45;&gt;update_state -->
<g id="edge9" class="edge">
<title>io_changed&#45;&gt;update_state</title>
<path fill="none" stroke="#ff00cc" stroke-width="1.5" d="M262.81,-184.86C267.53,-174.51 273.64,-161.1 278.96,-149.41"/>
<polygon fill="#ff00cc" stroke="#ff00cc" stroke-width="1.5" points="282.24,-150.66 283.2,-140.11 275.87,-147.76 282.24,-150.66"/>
<text text-anchor="middle" x="281" y="-160.6" font-family="Courier New" font-size="8.00" fill="#ff00cc">Yes</text>
</g>
<!-- check_dur -->
<g id="node11" class="node">
<title>check_dur</title>
<polygon fill="#161925" stroke="#00d2ff" stroke-width="2" points="199,-140 67,-140 67,-104 199,-104 199,-140"/>
<text text-anchor="middle" x="133" y="-124.8" font-family="Courier New" font-size="9.00" fill="#ffffff">Has idleSince duration</text>
<text text-anchor="middle" x="133" y="-114.8" font-family="Courier New" font-size="9.00" fill="#ffffff">exceeded threshold?</text>
</g>
<!-- io_changed&#45;&gt;check_dur -->
<g id="edge10" class="edge">
<title>io_changed&#45;&gt;check_dur</title>
<path fill="none" stroke="#ff00cc" stroke-width="1.5" d="M228.53,-184.86C210.78,-173.37 187.22,-158.11 167.94,-145.63"/>
<polygon fill="#ff00cc" stroke="#ff00cc" stroke-width="1.5" points="169.72,-142.61 159.42,-140.11 165.91,-148.48 169.72,-142.61"/>
<text text-anchor="middle" x="202" y="-160.6" font-family="Courier New" font-size="8.00" fill="#ff00cc">No</text>
</g>
<!-- update_state&#45;&gt;poll -->
<g id="edge14" class="edge">
<title>update_state&#45;&gt;poll</title>
<path fill="none" stroke="#ff00cc" stroke-width="1.5" d="M316.66,-140.24C334.47,-154.46 355,-176.41 355,-202 355,-431 355,-431 355,-431 355,-454.19 338.19,-469.97 317.15,-480.63"/>
<polygon fill="#ff00cc" stroke="#ff00cc" stroke-width="1.5" points="315.53,-477.53 307.92,-484.9 318.46,-483.89 315.53,-477.53"/>
</g>
<!-- check_dur&#45;&gt;poll -->
<g id="edge12" class="edge">
<title>check_dur&#45;&gt;poll</title>
<path fill="none" stroke="#ff00cc" stroke-width="1.5" d="M66.89,-136.59C33.51,-147.72 0,-167.49 0,-202 0,-431 0,-431 0,-431 0,-463.08 81.24,-481.98 148.19,-492.11"/>
<polygon fill="#ff00cc" stroke="#ff00cc" stroke-width="1.5" points="147.98,-495.61 158.38,-493.6 148.99,-488.69 147.98,-495.61"/>
<text text-anchor="middle" x="5" y="-314.6" font-family="Courier New" font-size="8.00" fill="#ff00cc">No</text>
</g>
<!-- park -->
<g id="node12" class="node">
<title>park</title>
<polygon fill="#161925" stroke="#00d2ff" stroke-width="2" points="329,-59 197,-59 197,-23 329,-23 329,-59"/>
<text text-anchor="middle" x="263" y="-43.8" font-family="Courier New" font-size="9.00" fill="#ffffff">Call drive.forcePark()</text>
<text text-anchor="middle" x="263" y="-33.8" font-family="Courier New" font-size="9.00" fill="#ffffff">(hdparm &#45;y)</text>
</g>
<!-- check_dur&#45;&gt;park -->
<g id="edge11" class="edge">
<title>check_dur&#45;&gt;park</title>
<path fill="none" stroke="#ff00cc" stroke-width="1.5" d="M161.21,-103.86C180.2,-92.32 205.45,-76.97 226.04,-64.46"/>
<polygon fill="#ff00cc" stroke="#ff00cc" stroke-width="1.5" points="228.12,-67.29 234.85,-59.11 224.48,-61.31 228.12,-67.29"/>
<text text-anchor="middle" x="224" y="-79.6" font-family="Courier New" font-size="8.00" fill="#ff00cc">Yes (idle)</text>
</g>
<!-- park&#45;&gt;poll -->
<g id="edge15" class="edge">
<title>park&#45;&gt;poll</title>
<path fill="none" stroke="#ff00cc" stroke-width="1.5" d="M329.14,-56.55C361.26,-67.91 393,-87.59 393,-121 393,-431 393,-431 393,-431 393,-467.03 358.4,-484.88 321.59,-493.69"/>
<polygon fill="#ff00cc" stroke="#ff00cc" stroke-width="1.5" points="320.72,-490.29 311.69,-495.84 322.2,-497.13 320.72,-490.29"/>
</g>
</g>
</svg>
