<?xml version="1.0" encoding="UTF-8" standalone="no"?>
<!DOCTYPE svg PUBLIC "-//W3C//DTD SVG 1.1//EN"
 "http://www.w3.org/Graphics/SVG/1.1/DTD/svg11.dtd">
<!-- Generated by graphviz version 2.43.0 (0)
 -->
<!-- Title: G Pages: 1 -->
<svg width="811pt" height="286pt"
 viewBox="0.00 0.00 810.60 285.60" xmlns="http://www.w3.org/2000/svg" xmlns:xlink="http://www.w3.org/1999/xlink">
<g id="graph0" class="graph" transform="scale(1 1) rotate(0) translate(28.8 256.8)">
<title>G</title>
<polygon fill="#0d0e15" stroke="transparent" points="-28.8,28.8 -28.8,-256.8 781.8,-256.8 781.8,28.8 -28.8,28.8"/>
<text text-anchor="middle" x="376.5" y="-7.8" font-family="Courier New" font-size="14.00" fill="#00ffcc">02. DRIVE ENCAPSULATION BOUNDARIES (drive.nim)</text>
<g id="clust1" class="cluster">
<title>cluster_public</title>
<polygon fill="#0d0e15" stroke="#00ff88" points="143,-133 143,-220 745,-220 745,-133 143,-133"/>
<text text-anchor="middle" x="444" y="-204.8" font-family="Courier New" font-size="14.00" fill="#00ff88">Public API (* Exported)</text>
</g>
<g id="clust2" class="cluster">
<title>cluster_private</title>
<polygon fill="#0d0e15" stroke="#ff00cc" stroke-dasharray="5,2" points="8,-31 8,-106 633,-106 633,-31 8,-31"/>
<text text-anchor="middle" x="320.5" y="-90.8" font-family="Courier New" font-size="14.00" fill="#ff00cc">Encapsulated State (Module Private)</text>
</g>
<!-- drive_obj -->
<g id="node1" class="node">
<title>drive_obj</title>
<polygon fill="#11241a" stroke="#00ff88" stroke-width="2" points="737,-189 647,-189 647,-141 737,-141 737,-189"/>
<text text-anchor="middle" x="692" y="-177.8" font-family="Courier New" font-size="9.00" fill="#ffffff">Drive = object</text>
<text text-anchor="middle" x="692" y="-167.8" font-family="Courier New" font-size="9.00" fill="#ffffff">&#45; byId: string</text>
<text text-anchor="middle" x="692" y="-157.8" font-family="Courier New" font-size="9.00" fill="#ffffff">&#45; mode: Mode</text>
<text text-anchor="middle" x="692" y="-147.8" font-family="Courier New" font-size="9.00" fill="#ffffff">&#45; value: int</text>
</g>
<!-- pstate -->
<g id="node2" class="node">
<title>pstate</title>
<polygon fill="#11241a" stroke="#00ff88" stroke-width="2" points="628.5,-183 475.5,-183 475.5,-147 628.5,-147 628.5,-183"/>
<text text-anchor="middle" x="552" y="-162.8" font-family="Courier New" font-size="9.00" fill="#ffffff">powerState() &#45;&gt; PowerState</text>
</g>
<!-- present -->
<g id="node3" class="node">
<title>present</title>
<polygon fill="#11241a" stroke="#00ff88" stroke-width="2" points="457,-183 351,-183 351,-147 457,-147 457,-183"/>
<text text-anchor="middle" x="404" y="-162.8" font-family="Courier New" font-size="9.00" fill="#ffffff">present() &#45;&gt; bool</text>
</g>
<!-- poll -->
<g id="node4" class="node">
<title>poll</title>
<polygon fill="#11241a" stroke="#00ff88" stroke-width="2" points="333,-183 243,-183 243,-147 333,-147 333,-183"/>
<text text-anchor="middle" x="288" y="-162.8" font-family="Courier New" font-size="9.00" fill="#ffffff">poll() &#45;&gt; bool</text>
</g>
<!-- last_io -->
<g id="node6" class="node">
<title>last_io</title>
<polygon fill="#2b1426" stroke="#ff00cc" stroke-width="2" points="106,-75 16,-75 16,-39 106,-39 106,-75"/>
<text text-anchor="middle" x="61" y="-54.8" font-family="Courier New" font-size="9.00" fill="#ffffff">lastIo: string</text>
</g>
<!-- poll&#45;&gt;last_io -->
<g id="edge3" class="edge">
<title>poll&#45;&gt;last_io</title>
<path fill="none" stroke="#ff00cc" stroke-width="1.5" d="M261.87,-146.91C253.26,-141.86 243.47,-136.69 234,-133 183.48,-113.28 163.23,-130.8 115,-106 103.32,-100 92.16,-90.88 83.05,-82.19"/>
<polygon fill="#ff00cc" stroke="#ff00cc" stroke-width="1.5" points="85.47,-79.66 75.92,-75.08 80.53,-84.62 85.47,-79.66"/>
<text text-anchor="middle" x="209" y="-116.6" font-family="Courier New" font-size="8.00" fill="#ff00cc">Mutates</text>
</g>
<!-- idle_since -->
<g id="node7" class="node">
<title>idle_since</title>
<polygon fill="#2b1426" stroke="#ff00cc" stroke-width="2" points="219.5,-75 124.5,-75 124.5,-39 219.5,-39 219.5,-75"/>
<text text-anchor="middle" x="172" y="-54.8" font-family="Courier New" font-size="9.00" fill="#ffffff">idleSince: Time</text>
</g>
<!-- poll&#45;&gt;idle_since -->
<g id="edge4" class="edge">
<title>poll&#45;&gt;idle_since</title>
<path fill="none" stroke="#ff00cc" stroke-width="1.5" d="M269.36,-146.97C250.2,-129.46 220.18,-102.02 198.53,-82.25"/>
<polygon fill="#ff00cc" stroke="#ff00cc" stroke-width="1.5" points="200.72,-79.5 190.98,-75.34 196,-84.67 200.72,-79.5"/>
<text text-anchor="middle" x="257" y="-116.6" font-family="Courier New" font-size="8.00" fill="#ff00cc">Mutates</text>
</g>
<!-- have_sample -->
<g id="node8" class="node">
<title>have_sample</title>
<polygon fill="#2b1426" stroke="#ff00cc" stroke-width="2" points="338.5,-75 237.5,-75 237.5,-39 338.5,-39 338.5,-75"/>
<text text-anchor="middle" x="288" y="-54.8" font-family="Courier New" font-size="9.00" fill="#ffffff">haveSample: bool</text>
</g>
<!-- poll&#45;&gt;have_sample -->
<g id="edge5" class="edge">
<title>poll&#45;&gt;have_sample</title>
<path fill="none" stroke="#ff00cc" stroke-width="1.5" d="M288,-146.97C288,-130.38 288,-104.88 288,-85.43"/>
<polygon fill="#ff00cc" stroke="#ff00cc" stroke-width="1.5" points="291.5,-85.34 288,-75.34 284.5,-85.34 291.5,-85.34"/>
<text text-anchor="middle" x="304" y="-116.6" font-family="Courier New" font-size="8.00" fill="#ff00cc">Mutates</text>
</g>
<!-- block_dev -->
<g id="node9" class="node">
<title>block_dev</title>
<polygon fill="#2b1426" stroke="#ff00cc" stroke-width="2" points="479,-75 357,-75 357,-39 479,-39 479,-75"/>
<text text-anchor="middle" x="418" y="-59.8" font-family="Courier New" font-size="9.00" fill="#ffffff">blockDev() &#45;&gt; string</text>
<text text-anchor="middle" x="418" y="-49.8" font-family="Courier New" font-size="9.00" fill="#ffffff">(Resolves symlink)</text>
</g>
<!-- poll&#45;&gt;block_dev -->
<g id="edge2" class="edge">
<title>poll&#45;&gt;block_dev</title>
<path fill="none" stroke="#ff00cc" stroke-width="1.5" d="M308.89,-146.97C330.55,-129.3 364.6,-101.54 388.9,-81.73"/>
<polygon fill="#ff00cc" stroke="#ff00cc" stroke-width="1.5" points="391.19,-84.37 396.73,-75.34 386.77,-78.95 391.19,-84.37"/>
<text text-anchor="middle" x="395.5" y="-116.6" font-family="Courier New" font-size="8.00" fill="#ff00cc">Resolves kernel name</text>
</g>
<!-- io_counter -->
<g id="node10" class="node">
<title>io_counter</title>
<polygon fill="#2b1426" stroke="#ff00cc" stroke-width="2" points="624.5,-75 497.5,-75 497.5,-39 624.5,-39 624.5,-75"/>
<text text-anchor="middle" x="561" y="-59.8" font-family="Courier New" font-size="9.00" fill="#ffffff">ioCounter() &#45;&gt; string</text>
<text text-anchor="middle" x="561" y="-49.8" font-family="Courier New" font-size="9.00" fill="#ffffff">(Reads sysfs stat)</text>
</g>
<!-- poll&#45;&gt;io_counter -->
<g id="edge1" class="edge">
<title>poll&#45;&gt;io_counter</title>
<path fill="none" stroke="#ff00cc" stroke-width="1.5" d="M312.52,-146.99C321.42,-141.63 331.8,-136.25 342,-133 385.82,-119.01 400.29,-133.78 445,-123 464.98,-118.18 469.76,-115.47 488,-106 502.11,-98.67 516.9,-89.3 529.45,-80.78"/>
<polygon fill="#ff00cc" stroke="#ff00cc" stroke-width="1.5" points="531.5,-83.62 537.75,-75.06 527.53,-77.86 531.5,-83.62"/>
<text text-anchor="middle" x="517.5" y="-116.6" font-family="Courier New" font-size="8.00" fill="#ff00cc">Calls private helper</text>
</g>
<!-- force_park -->
<g id="node5" class="node">
<title>force_park</title>
<polygon fill="#11241a" stroke="#00ff88" stroke-width="2" points="225,-183 151,-183 151,-147 225,-147 225,-183"/>
<text text-anchor="middle" x="188" y="-162.8" font-family="Courier New" font-size="9.00" fill="#ffffff">forcePark()</text>
</g>
</g>
</svg>
