<?xml version="1.0" encoding="UTF-8" standalone="no"?>
<!DOCTYPE svg PUBLIC "-//W3C//DTD SVG 1.1//EN"
 "http://www.w3.org/Graphics/SVG/1.1/DTD/svg11.dtd">
<!-- Generated by graphviz version 2.43.0 (0)
 -->
<!-- Title: G Pages: 1 -->
<svg width="462pt" height="683pt"
 viewBox="0.00 0.00 461.60 682.60" xmlns="http://www.w3.org/2000/svg" xmlns:xlink="http://www.w3.org/1999/xlink">
<g id="graph0" class="graph" transform="scale(1 1) rotate(0) translate(28.8 653.8)">
<title>G</title>
<polygon fill="#0d0e15" stroke="transparent" points="-28.8,28.8 -28.8,-653.8 432.8,-653.8 432.8,28.8 -28.8,28.8"/>
<text text-anchor="middle" x="202" y="-7.8" font-family="Courier New" font-size="14.00" fill="#00ffcc">03. CONFIG SYNTAX PARSING PIPELINE (config.nim)</text>
<!-- raw_str -->
<g id="node1" class="node">
<title>raw_str</title>
<polygon fill="#242411" stroke="#ffff00" stroke-width="2" points="270.75,-625 70.75,-625 70.75,-589 270.75,-589 270.75,-625"/>
<text text-anchor="middle" x="170.75" y="-604.8" font-family="Courier New" font-size="9.00" fill="#ffffff">Raw Config File /etc/quiescent.conf</text>
</g>
<!-- split_lines -->
<g id="node2" class="node">
<title>split_lines</title>
<polygon fill="#161925" stroke="#00d2ff" stroke-width="2" points="221.25,-552 120.25,-552 120.25,-516 221.25,-516 221.25,-552"/>
<text text-anchor="middle" x="170.75" y="-536.8" font-family="Courier New" font-size="9.00" fill="#ffffff">splitLines()</text>
<text text-anchor="middle" x="170.75" y="-526.8" font-family="Courier New" font-size="9.00" fill="#ffffff">Strip whitespace</text>
</g>
<!-- raw_str&#45;&gt;split_lines -->
<g id="edge1" class="edge">
<title>raw_str&#45;&gt;split_lines</title>
<path fill="none" stroke="#ff00cc" stroke-width="1.5" d="M170.75,-588.81C170.75,-580.79 170.75,-571.05 170.75,-562.07"/>
<polygon fill="#ff00cc" stroke="#ff00cc" stroke-width="1.5" points="174.25,-562.03 170.75,-552.03 167.25,-562.03 174.25,-562.03"/>
</g>
<!-- filter -->
<g id="node3" class="node">
<title>filter</title>
<polygon fill="#161925" stroke="#00d2ff" stroke-width="2" points="276.25,-479 65.25,-479 65.25,-443 276.25,-443 276.25,-479"/>
<text text-anchor="middle" x="170.75" y="-458.8" font-family="Courier New" font-size="9.00" fill="#ffffff">Filter out blank lines &amp; &#39;#&#39; comments</text>
</g>
<!-- split_lines&#45;&gt;filter -->
<g id="edge2" class="edge">
<title>split_lines&#45;&gt;filter</title>
<path fill="none" stroke="#ff00cc" stroke-width="1.5" d="M170.75,-515.81C170.75,-507.79 170.75,-498.05 170.75,-489.07"/>
<polygon fill="#ff00cc" stroke="#ff00cc" stroke-width="1.5" points="174.25,-489.03 170.75,-479.03 167.25,-489.03 174.25,-489.03"/>
</g>
<!-- tokens -->
<g id="node4" class="node">
<title>tokens</title>
<polygon fill="#161925" stroke="#00d2ff" stroke-width="2" points="223.75,-406 117.75,-406 117.75,-370 223.75,-370 223.75,-406"/>
<text text-anchor="middle" x="170.75" y="-385.8" font-family="Courier New" font-size="9.00" fill="#ffffff">splitWhitespace()</text>
</g>
<!-- filter&#45;&gt;tokens -->
<g id="edge3" class="edge">
<title>filter&#45;&gt;tokens</title>
<path fill="none" stroke="#ff00cc" stroke-width="1.5" d="M170.75,-442.81C170.75,-434.79 170.75,-425.05 170.75,-416.07"/>
<polygon fill="#ff00cc" stroke="#ff00cc" stroke-width="1.5" points="174.25,-416.03 170.75,-406.03 167.25,-416.03 174.25,-416.03"/>
</g>
<!-- is_interval -->
<g id="node5" class="node">
<title>is_interval</title>
<polygon fill="#161925" stroke="#00d2ff" stroke-width="2" points="236.75,-333 104.75,-333 104.75,-297 236.75,-297 236.75,-333"/>
<text text-anchor="middle" x="170.75" y="-312.8" font-family="Courier New" font-size="9.00" fill="#ffffff">Token 0 == &#39;interval&#39;?</text>
</g>
<!-- tokens&#45;&gt;is_interval -->
<g id="edge4" class="edge">
<title>tokens&#45;&gt;is_interval</title>
<path fill="none" stroke="#ff00cc" stroke-width="1.5" d="M170.75,-369.81C170.75,-361.79 170.75,-352.05 170.75,-343.07"/>
<polygon fill="#ff00cc" stroke="#ff00cc" stroke-width="1.5" points="174.25,-343.03 170.75,-333.03 167.25,-343.03 174.25,-343.03"/>
</g>
<!-- set_int -->
<g id="node6" class="node">
<title>set_int</title>
<polygon fill="#161925" stroke="#00d2ff" stroke-width="2" points="231.25,-186 78.25,-186 78.25,-150 231.25,-150 231.25,-186"/>
<text text-anchor="middle" x="154.75" y="-170.8" font-family="Courier New" font-size="9.00" fill="#ffffff">parseInt(Token 1)</text>
<text text-anchor="middle" x="154.75" y="-160.8" font-family="Courier New" font-size="9.00" fill="#ffffff">Update Config.intervalSecs</text>
</g>
<!-- is_interval&#45;&gt;set_int -->
<g id="edge5" class="edge">
<title>is_interval&#45;&gt;set_int</title>
<path fill="none" stroke="#ff00cc" stroke-width="1.5" d="M168.85,-296.8C166.11,-271.94 161.01,-225.74 157.75,-196.23"/>
<polygon fill="#ff00cc" stroke="#ff00cc" stroke-width="1.5" points="161.22,-195.74 156.65,-186.18 154.26,-196.5 161.22,-195.74"/>
<text text-anchor="middle" x="173.75" y="-272.6" font-family="Courier New" font-size="8.00" fill="#ff00cc">Yes</text>
</g>
<!-- parse_drive -->
<g id="node7" class="node">
<title>parse_drive</title>
<polygon fill="#161925" stroke="#00d2ff" stroke-width="2" points="338.75,-252 180.75,-252 180.75,-204 338.75,-204 338.75,-252"/>
<text text-anchor="middle" x="259.75" y="-240.8" font-family="Courier New" font-size="9.00" fill="#ffffff">Parse Drive Object:</text>
<text text-anchor="middle" x="259.75" y="-230.8" font-family="Courier New" font-size="9.00" fill="#ffffff">&#45; byId = Token 0</text>
<text text-anchor="middle" x="259.75" y="-220.8" font-family="Courier New" font-size="9.00" fill="#ffffff">&#45; mode = parseMode(Token 1)</text>
<text text-anchor="middle" x="259.75" y="-210.8" font-family="Courier New" font-size="9.00" fill="#ffffff">&#45; value = parseInt(Token 2)</text>
</g>
<!-- is_interval&#45;&gt;parse_drive -->
<g id="edge6" class="edge">
<title>is_interval&#45;&gt;parse_drive</title>
<path fill="none" stroke="#ff00cc" stroke-width="1.5" d="M188.76,-296.8C199.97,-286.09 214.71,-272.02 227.84,-259.47"/>
<polygon fill="#ff00cc" stroke="#ff00cc" stroke-width="1.5" points="230.54,-261.73 235.36,-252.3 225.71,-256.67 230.54,-261.73"/>
<text text-anchor="middle" x="220.75" y="-272.6" font-family="Courier New" font-size="8.00" fill="#ff00cc">No</text>
</g>
<!-- result_cfg -->
<g id="node9" class="node">
<title>result_cfg</title>
<polygon fill="#11241a" stroke="#00ff88" stroke-width="2" points="246.25,-59 93.25,-59 93.25,-23 246.25,-23 246.25,-59"/>
<text text-anchor="middle" x="169.75" y="-43.8" font-family="Courier New" font-size="9.00" fill="#ffffff">Config Object</text>
<text text-anchor="middle" x="169.75" y="-33.8" font-family="Courier New" font-size="9.00" fill="#ffffff">(intervalSecs, seq[Drive])</text>
</g>
<!-- set_int&#45;&gt;result_cfg -->
<g id="edge8" class="edge">
<title>set_int&#45;&gt;result_cfg</title>
<path fill="none" stroke="#ff00cc" stroke-width="1.5" d="M156.8,-149.88C159.29,-129.15 163.52,-93.95 166.46,-69.42"/>
<polygon fill="#ff00cc" stroke="#ff00cc" stroke-width="1.5" points="169.96,-69.66 167.67,-59.31 163.01,-68.82 169.96,-69.66"/>
</g>
<!-- add_list -->
<g id="node8" class="node">
<title>add_list</title>
<polygon fill="#161925" stroke="#00d2ff" stroke-width="2" points="330.25,-132 187.25,-132 187.25,-96 330.25,-96 330.25,-132"/>
<text text-anchor="middle" x="258.75" y="-111.8" font-family="Courier New" font-size="9.00" fill="#ffffff">Add to Config.drives seq</text>
</g>
<!-- parse_drive&#45;&gt;add_list -->
<g id="edge7" class="edge">
<title>parse_drive&#45;&gt;add_list</title>
<path fill="none" stroke="#ff00cc" stroke-width="1.5" d="M259.54,-203.79C259.38,-185.93 259.16,-161.19 258.99,-142.36"/>
<polygon fill="#ff00cc" stroke="#ff00cc" stroke-width="1.5" points="262.49,-142.29 258.9,-132.32 255.49,-142.35 262.49,-142.29"/>
</g>
<!-- add_list&#45;&gt;result_cfg -->
<g id="edge9" class="edge">
<title>add_list&#45;&gt;result_cfg</title>
<path fill="none" stroke="#ff00cc" stroke-width="1.5" d="M237.21,-95.81C225.73,-86.66 211.44,-75.26 198.98,-65.32"/>
<polygon fill="#ff00cc" stroke="#ff00cc" stroke-width="1.5" points="201.1,-62.53 191.1,-59.03 196.73,-68 201.1,-62.53"/>
</g>
</g>
</svg>
