<?xml version="1.0" encoding="UTF-8" standalone="no"?>
<!DOCTYPE svg PUBLIC "-//W3C//DTD SVG 1.1//EN"
 "http://www.w3.org/Graphics/SVG/1.1/DTD/svg11.dtd">
<!-- Generated by graphviz version 2.43.0 (0)
 -->
<!-- Title: G Pages: 1 -->
<svg width="388pt" height="409pt"
 viewBox="0.00 0.00 387.60 408.60" xmlns="http://www.w3.org/2000/svg" xmlns:xlink="http://www.w3.org/1999/xlink">
<g id="graph0" class="graph" transform="scale(1 1) rotate(0) translate(28.8 379.8)">
<title>G</title>
<polygon fill="#0d0e15" stroke="transparent" points="-28.8,28.8 -28.8,-379.8 358.8,-379.8 358.8,28.8 -28.8,28.8"/>
<text text-anchor="middle" x="165" y="-7.8" font-family="Courier New" font-size="14.00" fill="#00ffcc">04. INTERVAL SCHEDULING &amp; SLEEP TIMING</text>
<!-- sched_tick -->
<g id="node1" class="node">
<title>sched_tick</title>
<polygon fill="#11241a" stroke="#00ff88" stroke-width="2" points="246,-351 98,-351 98,-315 246,-315 246,-351"/>
<text text-anchor="middle" x="172" y="-330.8" font-family="Courier New" font-size="9.00" fill="#ffffff">1. Watch Loop Tick Starts</text>
</g>
<!-- poll_drives -->
<g id="node2" class="node">
<title>poll_drives</title>
<polygon fill="#161925" stroke="#00d2ff" stroke-width="2" points="208,-278 8,-278 8,-242 208,-242 208,-278"/>
<text text-anchor="middle" x="108" y="-262.8" font-family="Courier New" font-size="9.00" fill="#ffffff">2. Poll all watch&#45;mode drives</text>
<text text-anchor="middle" x="108" y="-252.8" font-family="Courier New" font-size="9.00" fill="#ffffff">Queries sysfs/hdparm (takes ~2&#45;5ms)</text>
</g>
<!-- sched_tick&#45;&gt;poll_drives -->
<g id="edge1" class="edge">
<title>sched_tick&#45;&gt;poll_drives</title>
<path fill="none" stroke="#ff00cc" stroke-width="1.5" d="M156.51,-314.81C148.57,-306 138.76,-295.13 130.05,-285.46"/>
<polygon fill="#ff00cc" stroke="#ff00cc" stroke-width="1.5" points="132.65,-283.11 123.35,-278.03 127.45,-287.8 132.65,-283.11"/>
</g>
<!-- calc_sleep -->
<g id="node3" class="node">
<title>calc_sleep</title>
<polygon fill="#161925" stroke="#00d2ff" stroke-width="2" points="194.5,-205 51.5,-205 51.5,-169 194.5,-169 194.5,-205"/>
<text text-anchor="middle" x="123" y="-189.8" font-family="Courier New" font-size="9.00" fill="#ffffff">3. Calculate Sleep Delay</text>
<text text-anchor="middle" x="123" y="-179.8" font-family="Courier New" font-size="9.00" fill="#ffffff">intervalSecs * 1000 ms</text>
</g>
<!-- poll_drives&#45;&gt;calc_sleep -->
<g id="edge2" class="edge">
<title>poll_drives&#45;&gt;calc_sleep</title>
<path fill="none" stroke="#ff00cc" stroke-width="1.5" d="M111.63,-241.81C113.33,-233.79 115.38,-224.05 117.28,-215.07"/>
<polygon fill="#ff00cc" stroke="#ff00cc" stroke-width="1.5" points="120.76,-215.54 119.4,-205.03 113.91,-214.09 120.76,-215.54"/>
</g>
<!-- sleep_call -->
<g id="node4" class="node">
<title>sleep_call</title>
<polygon fill="#161925" stroke="#00d2ff" stroke-width="2" points="199.5,-132 88.5,-132 88.5,-96 199.5,-96 199.5,-132"/>
<text text-anchor="middle" x="144" y="-116.8" font-family="Courier New" font-size="9.00" fill="#ffffff">4. OS sleep() call</text>
<text text-anchor="middle" x="144" y="-106.8" font-family="Courier New" font-size="9.00" fill="#ffffff">Yields CPU slice</text>
</g>
<!-- calc_sleep&#45;&gt;sleep_call -->
<g id="edge3" class="edge">
<title>calc_sleep&#45;&gt;sleep_call</title>
<path fill="none" stroke="#ff00cc" stroke-width="1.5" d="M128.08,-168.81C130.48,-160.7 133.4,-150.84 136.08,-141.78"/>
<polygon fill="#ff00cc" stroke="#ff00cc" stroke-width="1.5" points="139.48,-142.61 138.96,-132.03 132.77,-140.63 139.48,-142.61"/>
</g>
<!-- wake_up -->
<g id="node5" class="node">
<title>wake_up</title>
<polygon fill="#242411" stroke="#ffff00" stroke-width="2" points="300.5,-59 79.5,-59 79.5,-23 300.5,-23 300.5,-59"/>
<text text-anchor="middle" x="190" y="-43.8" font-family="Courier New" font-size="9.00" fill="#ffffff">5. OS Wakeup</text>
<text text-anchor="middle" x="190" y="-33.8" font-family="Courier New" font-size="9.00" fill="#ffffff">Subject to scheduler latency (~0.1&#45;5ms)</text>
</g>
<!-- sleep_call&#45;&gt;wake_up -->
<g id="edge4" class="edge">
<title>sleep_call&#45;&gt;wake_up</title>
<path fill="none" stroke="#ff00cc" stroke-width="1.5" d="M155.14,-95.81C160.62,-87.35 167.33,-76.98 173.41,-67.61"/>
<polygon fill="#ff00cc" stroke="#ff00cc" stroke-width="1.5" points="176.47,-69.32 178.97,-59.03 170.59,-65.52 176.47,-69.32"/>
</g>
<!-- wake_up&#45;&gt;sched_tick -->
<g id="edge5" class="edge">
<title>wake_up&#45;&gt;sched_tick</title>
<path fill="none" stroke="#ff00cc" stroke-width="1.5" d="M208.98,-59.01C221.65,-72.3 236,-92 236,-113 236,-261 236,-261 236,-261 236,-280.18 222.95,-296.52 208.64,-308.67"/>
<polygon fill="#ff00cc" stroke="#ff00cc" stroke-width="1.5" points="206.32,-306.04 200.63,-314.98 210.65,-311.54 206.32,-306.04"/>
<text text-anchor="middle" x="279" y="-185.1" font-family="Courier New" font-size="8.00" fill="#ff00cc">Next loop iteration</text>
</g>
</g>
</svg>
