<?xml version="1.0" encoding="UTF-8" standalone="no"?>
<!DOCTYPE svg PUBLIC "-//W3C//DTD SVG 1.1//EN"
 "http://www.w3.org/Graphics/SVG/1.1/DTD/svg11.dtd">
<!-- Generated by graphviz version 2.43.0 (0)
 -->
<!-- Title: G Pages: 1 -->
<svg width="396pt" height="417pt"
 viewBox="0.00 0.00 395.60 416.60" xmlns="http://www.w3.org/2000/svg" xmlns:xlink="http://www.w3.org/1999/xlink">
<g id="graph0" class="graph" transform="scale(1 1) rotate(0) translate(28.8 387.8)">
<title>G</title>
<polygon fill="#0d0e15" stroke="transparent" points="-28.8,28.8 -28.8,-387.8 366.8,-387.8 366.8,28.8 -28.8,28.8"/>
<text text-anchor="middle" x="169" y="-7.8" font-family="Courier New" font-size="14.00" fill="#00ffcc">06. SYSFS BLOCK I/O TELEMETRY INTERFACE</text>
<!-- kernel_stat -->
<g id="node1" class="node">
<title>kernel_stat</title>
<polygon fill="#242411" stroke="#ffff00" stroke-width="2" points="232.75,-359 100.75,-359 100.75,-323 232.75,-323 232.75,-359"/>
<text text-anchor="middle" x="166.75" y="-343.8" font-family="Courier New" font-size="9.00" fill="#ffffff">Kernel Sysfs Stat File</text>
<text text-anchor="middle" x="166.75" y="-333.8" font-family="Courier New" font-size="9.00" fill="#ffffff">/sys/block/&lt;dev&gt;/stat</text>
</g>
<!-- raw_content -->
<g id="node2" class="node">
<title>raw_content</title>
<polygon fill="#161925" stroke="#00d2ff" stroke-width="2" points="280.25,-286 53.25,-286 53.25,-250 280.25,-250 280.25,-286"/>
<text text-anchor="middle" x="166.75" y="-270.8" font-family="Courier New" font-size="9.00" fill="#ffffff">Raw line content:</text>
<text text-anchor="middle" x="166.75" y="-260.8" font-family="Courier New" font-size="9.00" fill="#ffffff">&#39; &#160;28912 &#160;&#160;&#160;&#160;1982 &#160;&#160;892182 &#160;&#160;289218 ...&#39;</text>
</g>
<!-- kernel_stat&#45;&gt;raw_content -->
<g id="edge1" class="edge">
<title>kernel_stat&#45;&gt;raw_content</title>
<path fill="none" stroke="#ff00cc" stroke-width="1.5" d="M166.75,-322.81C166.75,-314.79 166.75,-305.05 166.75,-296.07"/>
<polygon fill="#ff00cc" stroke="#ff00cc" stroke-width="1.5" points="170.25,-296.03 166.75,-286.03 163.25,-296.03 170.25,-296.03"/>
</g>
<!-- split_fields -->
<g id="node3" class="node">
<title>split_fields</title>
<polygon fill="#161925" stroke="#00d2ff" stroke-width="2" points="219.75,-213 113.75,-213 113.75,-177 219.75,-177 219.75,-213"/>
<text text-anchor="middle" x="166.75" y="-192.8" font-family="Courier New" font-size="9.00" fill="#ffffff">splitWhitespace()</text>
</g>
<!-- raw_content&#45;&gt;split_fields -->
<g id="edge2" class="edge">
<title>raw_content&#45;&gt;split_fields</title>
<path fill="none" stroke="#ff00cc" stroke-width="1.5" d="M166.75,-249.81C166.75,-241.79 166.75,-232.05 166.75,-223.07"/>
<polygon fill="#ff00cc" stroke="#ff00cc" stroke-width="1.5" points="170.25,-223.03 166.75,-213.03 163.25,-223.03 170.25,-223.03"/>
</g>
<!-- field_0 -->
<g id="node4" class="node">
<title>field_0</title>
<polygon fill="#161925" stroke="#00d2ff" stroke-width="2" points="157.25,-132 14.25,-132 14.25,-96 157.25,-96 157.25,-132"/>
<text text-anchor="middle" x="85.75" y="-111.8" font-family="Courier New" font-size="9.00" fill="#ffffff">Field 0: Completed Reads</text>
</g>
<!-- split_fields&#45;&gt;field_0 -->
<g id="edge3" class="edge">
<title>split_fields&#45;&gt;field_0</title>
<path fill="none" stroke="#ff00cc" stroke-width="1.5" d="M149.17,-176.86C137.92,-165.88 123.15,-151.48 110.7,-139.33"/>
<polygon fill="#ff00cc" stroke="#ff00cc" stroke-width="1.5" points="112.89,-136.58 103.29,-132.11 108.01,-141.6 112.89,-136.58"/>
<text text-anchor="middle" x="144.75" y="-152.6" font-family="Courier New" font-size="8.00" fill="#ff00cc">Index 0</text>
</g>
<!-- field_4 -->
<g id="node5" class="node">
<title>field_4</title>
<polygon fill="#161925" stroke="#00d2ff" stroke-width="2" points="323.75,-132 175.75,-132 175.75,-96 323.75,-96 323.75,-132"/>
<text text-anchor="middle" x="249.75" y="-111.8" font-family="Courier New" font-size="9.00" fill="#ffffff">Field 4: Completed Writes</text>
</g>
<!-- split_fields&#45;&gt;field_4 -->
<g id="edge4" class="edge">
<title>split_fields&#45;&gt;field_4</title>
<path fill="none" stroke="#ff00cc" stroke-width="1.5" d="M184.76,-176.86C196.29,-165.88 211.42,-151.48 224.19,-139.33"/>
<polygon fill="#ff00cc" stroke="#ff00cc" stroke-width="1.5" points="226.94,-141.54 231.78,-132.11 222.12,-136.47 226.94,-141.54"/>
<text text-anchor="middle" x="225.75" y="-152.6" font-family="Courier New" font-size="8.00" fill="#ff00cc">Index 4</text>
</g>
<!-- concat -->
<g id="node6" class="node">
<title>concat</title>
<polygon fill="#161925" stroke="#00d2ff" stroke-width="2" points="240.75,-59 92.75,-59 92.75,-23 240.75,-23 240.75,-59"/>
<text text-anchor="middle" x="166.75" y="-43.8" font-family="Courier New" font-size="9.00" fill="#ffffff">Format string: Read&#45;Write</text>
<text text-anchor="middle" x="166.75" y="-33.8" font-family="Courier New" font-size="9.00" fill="#ffffff">e.g. &#39;28912&#45;289218&#39;</text>
</g>
<!-- field_0&#45;&gt;concat -->
<g id="edge5" class="edge">
<title>field_0&#45;&gt;concat</title>
<path fill="none" stroke="#ff00cc" stroke-width="1.5" d="M105.36,-95.81C115.61,-86.83 128.31,-75.69 139.5,-65.89"/>
<polygon fill="#ff00cc" stroke="#ff00cc" stroke-width="1.5" points="142.11,-68.25 147.32,-59.03 137.5,-62.99 142.11,-68.25"/>
</g>
<!-- field_4&#45;&gt;concat -->
<g id="edge6" class="edge">
<title>field_4&#45;&gt;concat</title>
<path fill="none" stroke="#ff00cc" stroke-width="1.5" d="M229.66,-95.81C219.06,-86.74 205.88,-75.48 194.34,-65.6"/>
<polygon fill="#ff00cc" stroke="#ff00cc" stroke-width="1.5" points="196.53,-62.87 186.66,-59.03 191.98,-68.19 196.53,-62.87"/>
</g>
</g>
</svg>
