<?xml version="1.0" encoding="UTF-8" standalone="no"?>
<!DOCTYPE svg PUBLIC "-//W3C//DTD SVG 1.1//EN"
 "http://www.w3.org/Graphics/SVG/1.1/DTD/svg11.dtd">
<!-- Generated by graphviz version 2.43.0 (0)
 -->
<!-- Title: G Pages: 1 -->
<svg width="516pt" height="189pt"
 viewBox="0.00 0.00 516.10 188.60" xmlns="http://www.w3.org/2000/svg" xmlns:xlink="http://www.w3.org/1999/xlink">
<g id="graph0" class="graph" transform="scale(1 1) rotate(0) translate(28.8 159.8)">
<title>G</title>
<polygon fill="#0d0e15" stroke="transparent" points="-28.8,28.8 -28.8,-159.8 487.3,-159.8 487.3,28.8 -28.8,28.8"/>
<text text-anchor="middle" x="229.25" y="-7.8" font-family="Courier New" font-size="14.00" fill="#00ffcc">07. HDPARM / ATA COMMANDS MAPPING</text>
<!-- pstate -->
<g id="node1" class="node">
<title>pstate</title>
<polygon fill="#11241a" stroke="#00ff88" stroke-width="2" points="106,-131 26,-131 26,-95 106,-95 106,-131"/>
<text text-anchor="middle" x="66" y="-110.8" font-family="Courier New" font-size="9.00" fill="#ffffff">powerState()</text>
</g>
<!-- c_cmd -->
<g id="node4" class="node">
<title>c_cmd</title>
<polygon fill="#161925" stroke="#00ff88" stroke-width="2" points="132,-59 0,-59 0,-23 132,-23 132,-59"/>
<text text-anchor="middle" x="66" y="-43.8" font-family="Courier New" font-size="9.00" fill="#ffffff">hdparm &#45;C &lt;device&gt;</text>
<text text-anchor="middle" x="66" y="-33.8" font-family="Courier New" font-size="9.00" fill="#ffffff">(ATA CHECK POWER MODE)</text>
</g>
<!-- pstate&#45;&gt;c_cmd -->
<g id="edge1" class="edge">
<title>pstate&#45;&gt;c_cmd</title>
<path fill="none" stroke="#ff00cc" stroke-width="1.5" d="M66,-94.7C66,-86.98 66,-77.71 66,-69.11"/>
<polygon fill="#ff00cc" stroke="#ff00cc" stroke-width="1.5" points="69.5,-69.1 66,-59.1 62.5,-69.1 69.5,-69.1"/>
</g>
<!-- fpark -->
<g id="node2" class="node">
<title>fpark</title>
<polygon fill="#2b1426" stroke="#ff00cc" stroke-width="2" points="256,-131 182,-131 182,-95 256,-95 256,-131"/>
<text text-anchor="middle" x="219" y="-110.8" font-family="Courier New" font-size="9.00" fill="#ffffff">forcePark()</text>
</g>
<!-- y_cmd -->
<g id="node5" class="node">
<title>y_cmd</title>
<polygon fill="#161925" stroke="#ff00cc" stroke-width="2" points="287.5,-59 150.5,-59 150.5,-23 287.5,-23 287.5,-59"/>
<text text-anchor="middle" x="219" y="-43.8" font-family="Courier New" font-size="9.00" fill="#ffffff">hdparm &#45;y &lt;device&gt;</text>
<text text-anchor="middle" x="219" y="-33.8" font-family="Courier New" font-size="9.00" fill="#ffffff">(ATA STANDBY IMMEDIATE)</text>
</g>
<!-- fpark&#45;&gt;y_cmd -->
<g id="edge2" class="edge">
<title>fpark&#45;&gt;y_cmd</title>
<path fill="none" stroke="#ff00cc" stroke-width="1.5" d="M219,-94.7C219,-86.98 219,-77.71 219,-69.11"/>
<polygon fill="#ff00cc" stroke="#ff00cc" stroke-width="1.5" points="222.5,-69.1 219,-59.1 215.5,-69.1 222.5,-69.1"/>
</g>
<!-- atimer -->
<g id="node3" class="node">
<title>atimer</title>
<polygon fill="#242411" stroke="#ffff00" stroke-width="2" points="416.5,-131 347.5,-131 347.5,-95 416.5,-95 416.5,-131"/>
<text text-anchor="middle" x="382" y="-110.8" font-family="Courier New" font-size="9.00" fill="#ffffff">armTimer()</text>
</g>
<!-- s_cmd -->
<g id="node6" class="node">
<title>s_cmd</title>
<polygon fill="#161925" stroke="#ffff00" stroke-width="2" points="458.5,-59 305.5,-59 305.5,-23 458.5,-23 458.5,-59"/>
<text text-anchor="middle" x="382" y="-43.8" font-family="Courier New" font-size="9.00" fill="#ffffff">hdparm &#45;S &lt;value&gt; &lt;device&gt;</text>
<text text-anchor="middle" x="382" y="-33.8" font-family="Courier New" font-size="9.00" fill="#ffffff">(ATA STANDBY TIMER)</text>
</g>
<!-- atimer&#45;&gt;s_cmd -->
<g id="edge3" class="edge">
<title>atimer&#45;&gt;s_cmd</title>
<path fill="none" stroke="#ff00cc" stroke-width="1.5" d="M382,-94.7C382,-86.98 382,-77.71 382,-69.11"/>
<polygon fill="#ff00cc" stroke="#ff00cc" stroke-width="1.5" points="385.5,-69.1 382,-59.1 378.5,-69.1 385.5,-69.1"/>
</g>
</g>
</svg>
