<?xml version="1.0" encoding="UTF-8" standalone="no"?>
<!DOCTYPE svg PUBLIC "-//W3C//DTD SVG 1.1//EN"
 "http://www.w3.org/Graphics/SVG/1.1/DTD/svg11.dtd">
<!-- Generated by graphviz version 2.43.0 (0)
 -->
<!-- Title: G Pages: 1 -->
<svg width="379pt" height="405pt"
 viewBox="0.00 0.00 378.60 404.60" xmlns="http://www.w3.org/2000/svg" xmlns:xlink="http://www.w3.org/1999/xlink">
<g id="graph0" class="graph" transform="scale(1 1) rotate(0) translate(28.8 375.8)">
<title>G</title>
<polygon fill="#0d0e15" stroke="transparent" points="-28.8,28.8 -28.8,-375.8 349.8,-375.8 349.8,28.8 -28.8,28.8"/>
<text text-anchor="middle" x="160.5" y="-7.8" font-family="Courier New" font-size="14.00" fill="#00ffcc">08. BY&#45;ID SYMLINK STABLE RESOLUTION</text>
<!-- symlink -->
<g id="node1" class="node">
<title>symlink</title>
<polygon fill="#11241a" stroke="#00ff88" stroke-width="2" points="321,-347 0,-347 0,-311 321,-311 321,-347"/>
<text text-anchor="middle" x="160.5" y="-331.8" font-family="Courier New" font-size="9.00" fill="#ffffff">Stable Identifier:</text>
<text text-anchor="middle" x="160.5" y="-321.8" font-family="Courier New" font-size="9.00" fill="#ffffff">/dev/disk/by&#45;id/ata&#45;Hitachi_HUA723020ALA640_MK0171YFJHSSDA</text>
</g>
<!-- expand -->
<g id="node2" class="node">
<title>expand</title>
<polygon fill="#161925" stroke="#00d2ff" stroke-width="2" points="255.5,-275 65.5,-275 65.5,-239 255.5,-239 255.5,-275"/>
<text text-anchor="middle" x="160.5" y="-259.8" font-family="Courier New" font-size="9.00" fill="#ffffff">expandSymlink()</text>
<text text-anchor="middle" x="160.5" y="-249.8" font-family="Courier New" font-size="9.00" fill="#ffffff">(Resolves udev directory symlink)</text>
</g>
<!-- symlink&#45;&gt;expand -->
<g id="edge1" class="edge">
<title>symlink&#45;&gt;expand</title>
<path fill="none" stroke="#ff00cc" stroke-width="1.5" d="M160.5,-310.7C160.5,-302.98 160.5,-293.71 160.5,-285.11"/>
<polygon fill="#ff00cc" stroke="#ff00cc" stroke-width="1.5" points="164,-285.1 160.5,-275.1 157,-285.1 164,-285.1"/>
</g>
<!-- raw_target -->
<g id="node3" class="node">
<title>raw_target</title>
<polygon fill="#161925" stroke="#00d2ff" stroke-width="2" points="211,-203 110,-203 110,-167 211,-167 211,-203"/>
<text text-anchor="middle" x="160.5" y="-187.8" font-family="Courier New" font-size="9.00" fill="#ffffff">Relative Target:</text>
<text text-anchor="middle" x="160.5" y="-177.8" font-family="Courier New" font-size="9.00" fill="#ffffff">../../sde</text>
</g>
<!-- expand&#45;&gt;raw_target -->
<g id="edge2" class="edge">
<title>expand&#45;&gt;raw_target</title>
<path fill="none" stroke="#ff00cc" stroke-width="1.5" d="M160.5,-238.7C160.5,-230.98 160.5,-221.71 160.5,-213.11"/>
<polygon fill="#ff00cc" stroke="#ff00cc" stroke-width="1.5" points="164,-213.1 160.5,-203.1 157,-213.1 164,-213.1"/>
</g>
<!-- filename -->
<g id="node4" class="node">
<title>filename</title>
<polygon fill="#161925" stroke="#00d2ff" stroke-width="2" points="229,-131 92,-131 92,-95 229,-95 229,-131"/>
<text text-anchor="middle" x="160.5" y="-115.8" font-family="Courier New" font-size="9.00" fill="#ffffff">extractFilename()</text>
<text text-anchor="middle" x="160.5" y="-105.8" font-family="Courier New" font-size="9.00" fill="#ffffff">(Strips relative paths)</text>
</g>
<!-- raw_target&#45;&gt;filename -->
<g id="edge3" class="edge">
<title>raw_target&#45;&gt;filename</title>
<path fill="none" stroke="#ff00cc" stroke-width="1.5" d="M160.5,-166.7C160.5,-158.98 160.5,-149.71 160.5,-141.11"/>
<polygon fill="#ff00cc" stroke="#ff00cc" stroke-width="1.5" points="164,-141.1 160.5,-131.1 157,-141.1 164,-141.1"/>
</g>
<!-- kernel_name -->
<g id="node5" class="node">
<title>kernel_name</title>
<polygon fill="#242411" stroke="#ffff00" stroke-width="2" points="216,-59 105,-59 105,-23 216,-23 216,-59"/>
<text text-anchor="middle" x="160.5" y="-43.8" font-family="Courier New" font-size="9.00" fill="#ffffff">Kernel block name:</text>
<text text-anchor="middle" x="160.5" y="-33.8" font-family="Courier New" font-size="9.00" fill="#ffffff">sde</text>
</g>
<!-- filename&#45;&gt;kernel_name -->
<g id="edge4" class="edge">
<title>filename&#45;&gt;kernel_name</title>
<path fill="none" stroke="#ff00cc" stroke-width="1.5" d="M160.5,-94.7C160.5,-86.98 160.5,-77.71 160.5,-69.11"/>
<polygon fill="#ff00cc" stroke="#ff00cc" stroke-width="1.5" points="164,-69.1 160.5,-59.1 157,-69.1 164,-69.1"/>
</g>
</g>
</svg>
