<?xml version="1.0" encoding="UTF-8" standalone="no"?>
<!DOCTYPE svg PUBLIC "-//W3C//DTD SVG 1.1//EN"
 "http://www.w3.org/Graphics/SVG/1.1/DTD/svg11.dtd">
<!-- Generated by graphviz version 2.43.0 (0)
 -->
<!-- Title: G Pages: 1 -->
<svg width="380pt" height="279pt"
 viewBox="0.00 0.00 379.60 278.60" xmlns="http://www.w3.org/2000/svg" xmlns:xlink="http://www.w3.org/1999/xlink">
<g id="graph0" class="graph" transform="scale(1 1) rotate(0) translate(28.8 249.8)">
<title>G</title>
<polygon fill="#0d0e15" stroke="transparent" points="-28.8,28.8 -28.8,-249.8 350.8,-249.8 350.8,28.8 -28.8,28.8"/>
<text text-anchor="middle" x="161" y="-7.8" font-family="Courier New" font-size="14.00" fill="#00ffcc">10. SYSTEMD SERVICE UNIT DEPENDENCIES</text>
<!-- local_fs -->
<g id="node1" class="node">
<title>local_fs</title>
<polygon fill="#242411" stroke="#ffff00" stroke-width="2" points="253.5,-221 68.5,-221 68.5,-185 253.5,-185 253.5,-221"/>
<text text-anchor="middle" x="161" y="-205.8" font-family="Courier New" font-size="9.00" fill="#ffffff">local&#45;fs.target</text>
<text text-anchor="middle" x="161" y="-195.8" font-family="Courier New" font-size="9.00" fill="#ffffff">(All local file systems mounted)</text>
</g>
<!-- q_service -->
<g id="node2" class="node">
<title>q_service</title>
<polygon fill="#11241a" stroke="#00ff88" stroke-width="2" points="216.5,-140 105.5,-140 105.5,-104 216.5,-104 216.5,-140"/>
<text text-anchor="middle" x="161" y="-124.8" font-family="Courier New" font-size="9.00" fill="#ffffff">quiescentd.service</text>
<text text-anchor="middle" x="161" y="-114.8" font-family="Courier New" font-size="9.00" fill="#ffffff">(Daemon process)</text>
</g>
<!-- local_fs&#45;&gt;q_service -->
<g id="edge1" class="edge">
<title>local_fs&#45;&gt;q_service</title>
<path fill="none" stroke="#ff00cc" stroke-width="1.5" d="M161,-184.86C161,-174.71 161,-161.63 161,-150.12"/>
<polygon fill="#ff00cc" stroke="#ff00cc" stroke-width="1.5" points="164.5,-150.11 161,-140.11 157.5,-150.11 164.5,-150.11"/>
<text text-anchor="middle" x="175" y="-160.6" font-family="Courier New" font-size="8.00" fill="#ff00cc">After=</text>
</g>
<!-- multi_user -->
<g id="node3" class="node">
<title>multi_user</title>
<polygon fill="#242411" stroke="#ffff00" stroke-width="2" points="235,-59 87,-59 87,-23 235,-23 235,-59"/>
<text text-anchor="middle" x="161" y="-43.8" font-family="Courier New" font-size="9.00" fill="#ffffff">multi&#45;user.target</text>
<text text-anchor="middle" x="161" y="-33.8" font-family="Courier New" font-size="9.00" fill="#ffffff">(System fully booted CLI)</text>
</g>
<!-- q_service&#45;&gt;multi_user -->
<g id="edge2" class="edge">
<title>q_service&#45;&gt;multi_user</title>
<path fill="none" stroke="#ff00cc" stroke-width="1.5" d="M161,-103.86C161,-93.71 161,-80.63 161,-69.12"/>
<polygon fill="#ff00cc" stroke="#ff00cc" stroke-width="1.5" points="164.5,-69.11 161,-59.11 157.5,-69.11 164.5,-69.11"/>
<text text-anchor="middle" x="181.5" y="-79.6" font-family="Courier New" font-size="8.00" fill="#ff00cc">WantedBy=</text>
</g>
</g>
</svg>
