<?xml version="1.0" encoding="UTF-8" standalone="no"?>
<!DOCTYPE svg PUBLIC "-//W3C//DTD SVG 1.1//EN"
 "http://www.w3.org/Graphics/SVG/1.1/DTD/svg11.dtd">
<!-- Generated by graphviz version 2.43.0 (0)
 -->
<!-- Title: G Pages: 1 -->
<svg width="414pt" height="189pt"
 viewBox="0.00 0.00 413.60 188.60" xmlns="http://www.w3.org/2000/svg" xmlns:xlink="http://www.w3.org/1999/xlink">
<g id="graph0" class="graph" transform="scale(1 1) rotate(0) translate(28.8 159.8)">
<title>G</title>
<polygon fill="#0d0e15" stroke="transparent" points="-28.8,28.8 -28.8,-159.8 384.8,-159.8 384.8,28.8 -28.8,28.8"/>
<text text-anchor="middle" x="178" y="-7.8" font-family="Courier New" font-size="14.00" fill="#00ffcc">12. SPINDOWN FATIGUE &amp; WEAR MATHEMATICS</text>
<!-- boots -->
<g id="node1" class="node">
<title>boots</title>
<polygon fill="#161925" stroke="#00d2ff" stroke-width="2" points="132,-131 0,-131 0,-95 132,-95 132,-131"/>
<text text-anchor="middle" x="66" y="-115.8" font-family="Courier New" font-size="9.00" fill="#ffffff">Power_Cycle_Count (PC)</text>
<text text-anchor="middle" x="66" y="-105.8" font-family="Courier New" font-size="9.00" fill="#ffffff">(Number of cold boots)</text>
</g>
<!-- formula -->
<g id="node3" class="node">
<title>formula</title>
<polygon fill="#161925" stroke="#00ffcc" stroke-width="2" points="142,-59 10,-59 10,-23 142,-23 142,-59"/>
<text text-anchor="middle" x="76" y="-43.8" font-family="Courier New" font-size="9.00" fill="#ffffff">Spin&#45;up Ratio Formula:</text>
<text text-anchor="middle" x="76" y="-33.8" font-family="Courier New" font-size="9.00" fill="#ffffff">Ratio = SS / PC</text>
</g>
<!-- boots&#45;&gt;formula -->
<g id="edge1" class="edge">
<title>boots&#45;&gt;formula</title>
<path fill="none" stroke="#ff00cc" stroke-width="1.5" d="M68.47,-94.7C69.57,-86.98 70.9,-77.71 72.13,-69.11"/>
<polygon fill="#ff00cc" stroke="#ff00cc" stroke-width="1.5" points="75.61,-69.5 73.56,-59.1 68.68,-68.51 75.61,-69.5"/>
</g>
<!-- wear_cal -->
<g id="node4" class="node">
<title>wear_cal</title>
<polygon fill="#161925" stroke="#ff00cc" stroke-width="2" points="303,-59 181,-59 181,-23 303,-23 303,-59"/>
<text text-anchor="middle" x="242" y="-43.8" font-family="Courier New" font-size="9.00" fill="#ffffff">Spindown Wear Count:</text>
<text text-anchor="middle" x="242" y="-33.8" font-family="Courier New" font-size="9.00" fill="#ffffff">Cycles = SS &#45; PC</text>
</g>
<!-- boots&#45;&gt;wear_cal -->
<g id="edge3" class="edge">
<title>boots&#45;&gt;wear_cal</title>
<path fill="none" stroke="#ff00cc" stroke-width="1.5" d="M109.05,-94.88C133.33,-85.22 163.84,-73.09 189.51,-62.88"/>
<polygon fill="#ff00cc" stroke="#ff00cc" stroke-width="1.5" points="191.09,-66.02 199.09,-59.07 188.5,-59.51 191.09,-66.02"/>
</g>
<!-- spinups -->
<g id="node2" class="node">
<title>spinups</title>
<polygon fill="#161925" stroke="#00d2ff" stroke-width="2" points="356,-131 150,-131 150,-95 356,-95 356,-131"/>
<text text-anchor="middle" x="253" y="-115.8" font-family="Courier New" font-size="9.00" fill="#ffffff">Start_Stop_Count (SS)</text>
<text text-anchor="middle" x="253" y="-105.8" font-family="Courier New" font-size="9.00" fill="#ffffff">(Total spin&#45;ups from standby + boot)</text>
</g>
<!-- spinups&#45;&gt;formula -->
<g id="edge2" class="edge">
<title>spinups&#45;&gt;formula</title>
<path fill="none" stroke="#ff00cc" stroke-width="1.5" d="M209.7,-94.88C185.29,-85.22 154.6,-73.09 128.79,-62.88"/>
<polygon fill="#ff00cc" stroke="#ff00cc" stroke-width="1.5" points="129.74,-59.49 119.16,-59.07 127.17,-66 129.74,-59.49"/>
</g>
<!-- spinups&#45;&gt;wear_cal -->
<g id="edge4" class="edge">
<title>spinups&#45;&gt;wear_cal</title>
<path fill="none" stroke="#ff00cc" stroke-width="1.5" d="M250.28,-94.7C249.07,-86.98 247.61,-77.71 246.26,-69.11"/>
<polygon fill="#ff00cc" stroke="#ff00cc" stroke-width="1.5" points="249.7,-68.44 244.69,-59.1 242.78,-69.53 249.7,-68.44"/>
</g>
</g>
</svg>
