<?xml version="1.0" encoding="UTF-8" standalone="no"?>
<!DOCTYPE svg PUBLIC "-//W3C//DTD SVG 1.1//EN"
 "http://www.w3.org/Graphics/SVG/1.1/DTD/svg11.dtd">
<!-- Generated by graphviz version 2.43.0 (0)
 -->
<!-- Title: G Pages: 1 -->
<svg width="586pt" height="244pt"
 viewBox="0.00 0.00 585.60 243.60" xmlns="http://www.w3.org/2000/svg" xmlns:xlink="http://www.w3.org/1999/xlink">
<g id="graph0" class="graph" transform="scale(1 1) rotate(0) translate(28.8 214.8)">
<title>G</title>
<polygon fill="#0d0e15" stroke="transparent" points="-28.8,28.8 -28.8,-214.8 556.8,-214.8 556.8,28.8 -28.8,28.8"/>
<text text-anchor="middle" x="264" y="-7.8" font-family="Courier New" font-size="14.00" fill="#00ffcc">13. PLATTER WEAR MECHANICS: STEADY STATE VS SPIN&#45;UP</text>
<g id="clust1" class="cluster">
<title>cluster_steady</title>
<polygon fill="#0d0e15" stroke="#00ff88" points="8,-31 8,-178 198,-178 198,-31 8,-31"/>
<text text-anchor="middle" x="103" y="-162.8" font-family="Courier New" font-size="14.00" fill="#00ff88">Steady&#45;State Rotation</text>
</g>
<g id="clust2" class="cluster">
<title>cluster_spinup</title>
<polygon fill="#0d0e15" stroke="#ff5252" points="206,-31 206,-178 520,-178 520,-31 206,-31"/>
<text text-anchor="middle" x="363" y="-162.8" font-family="Courier New" font-size="14.00" fill="#ff5252">Standby Spin&#45;Up Transition (FATIGUE)</text>
</g>
<!-- ss_bearing -->
<g id="node1" class="node">
<title>ss_bearing</title>
<polygon fill="#161925" stroke="#00d2ff" stroke-width="2" points="185,-147 21,-147 21,-111 185,-111 185,-147"/>
<text text-anchor="middle" x="103" y="-131.8" font-family="Courier New" font-size="9.00" fill="#ffffff">Fluid Dynamic Bearings (FDB)</text>
<text text-anchor="middle" x="103" y="-121.8" font-family="Courier New" font-size="9.00" fill="#ffffff">Maintain clean film barrier</text>
</g>
<!-- ss_friction -->
<g id="node2" class="node">
<title>ss_friction</title>
<polygon fill="#161925" stroke="#00d2ff" stroke-width="2" points="182,-75 24,-75 24,-39 182,-39 182,-75"/>
<text text-anchor="middle" x="103" y="-59.8" font-family="Courier New" font-size="9.00" fill="#ffffff">Very low wear friction</text>
<text text-anchor="middle" x="103" y="-49.8" font-family="Courier New" font-size="9.00" fill="#ffffff">Thermal equilibrium reached</text>
</g>
<!-- ss_bearing&#45;&gt;ss_friction -->
<g id="edge1" class="edge">
<title>ss_bearing&#45;&gt;ss_friction</title>
<path fill="none" stroke="#ff00cc" stroke-width="1.5" d="M103,-110.7C103,-102.98 103,-93.71 103,-85.11"/>
<polygon fill="#ff00cc" stroke="#ff00cc" stroke-width="1.5" points="106.5,-85.1 103,-75.1 99.5,-85.1 106.5,-85.1"/>
</g>
<!-- su_torque -->
<g id="node3" class="node">
<title>su_torque</title>
<polygon fill="#161925" stroke="#00d2ff" stroke-width="2" points="455.5,-147 270.5,-147 270.5,-111 455.5,-111 455.5,-147"/>
<text text-anchor="middle" x="363" y="-131.8" font-family="Courier New" font-size="9.00" fill="#ffffff">High starting torque</text>
<text text-anchor="middle" x="363" y="-121.8" font-family="Courier New" font-size="9.00" fill="#ffffff">Motor pulls peak current (~2.0A)</text>
</g>
<!-- su_contact -->
<g id="node4" class="node">
<title>su_contact</title>
<polygon fill="#161925" stroke="#00d2ff" stroke-width="2" points="473.5,-75 252.5,-75 252.5,-39 473.5,-39 473.5,-75"/>
<text text-anchor="middle" x="363" y="-59.8" font-family="Courier New" font-size="9.00" fill="#ffffff">Microscopic metal&#45;on&#45;metal wear</text>
<text text-anchor="middle" x="363" y="-49.8" font-family="Courier New" font-size="9.00" fill="#ffffff">before hydrodynamic lift is established</text>
</g>
<!-- su_torque&#45;&gt;su_contact -->
<g id="edge2" class="edge">
<title>su_torque&#45;&gt;su_contact</title>
<path fill="none" stroke="#ff00cc" stroke-width="1.5" d="M363,-110.7C363,-102.98 363,-93.71 363,-85.11"/>
<polygon fill="#ff00cc" stroke="#ff00cc" stroke-width="1.5" points="366.5,-85.1 363,-75.1 359.5,-85.1 366.5,-85.1"/>
</g>
</g>
</svg>
