<?xml version="1.0" encoding="UTF-8" standalone="no"?>
<!DOCTYPE svg PUBLIC "-//W3C//DTD SVG 1.1//EN"
 "http://www.w3.org/Graphics/SVG/1.1/DTD/svg11.dtd">
<!-- Generated by graphviz version 2.43.0 (0)
 -->
<!-- Title: G Pages: 1 -->
<svg width="413pt" height="333pt"
 viewBox="0.00 0.00 412.60 332.60" xmlns="http://www.w3.org/2000/svg" xmlns:xlink="http://www.w3.org/1999/xlink">
<g id="graph0" class="graph" transform="scale(1 1) rotate(0) translate(28.8 303.8)">
<title>G</title>
<polygon fill="#0d0e15" stroke="transparent" points="-28.8,28.8 -28.8,-303.8 383.8,-303.8 383.8,28.8 -28.8,28.8"/>
<text text-anchor="middle" x="177.5" y="-7.8" font-family="Courier New" font-size="14.00" fill="#00ffcc">14. WD AV&#45;GP SURVEILLANCE TIMER IGNORANCE</text>
<!-- firmware -->
<g id="node1" class="node">
<title>firmware</title>
<polygon fill="#242411" stroke="#ffff00" stroke-width="2" points="275,-275 80,-275 80,-239 275,-239 275,-275"/>
<text text-anchor="middle" x="177.5" y="-259.8" font-family="Courier New" font-size="9.00" fill="#ffffff">WD AV&#45;GP (WD10EURX) Firmware</text>
<text text-anchor="middle" x="177.5" y="-249.8" font-family="Courier New" font-size="9.00" fill="#ffffff">(Optimized for 24/7 DVR recording)</text>
</g>
<!-- apm_command -->
<g id="node2" class="node">
<title>apm_command</title>
<polygon fill="#161925" stroke="#00d2ff" stroke-width="2" points="262,-203 93,-203 93,-167 262,-167 262,-203"/>
<text text-anchor="middle" x="177.5" y="-182.8" font-family="Courier New" font-size="9.00" fill="#ffffff">Host sends APM &#45;B 127 / &#45;S 24</text>
</g>
<!-- firmware&#45;&gt;apm_command -->
<g id="edge1" class="edge">
<title>firmware&#45;&gt;apm_command</title>
<path fill="none" stroke="#ff00cc" stroke-width="1.5" d="M177.5,-238.7C177.5,-230.98 177.5,-221.71 177.5,-213.11"/>
<polygon fill="#ff00cc" stroke="#ff00cc" stroke-width="1.5" points="181,-213.1 177.5,-203.1 174,-213.1 181,-213.1"/>
</g>
<!-- ignored -->
<g id="node3" class="node">
<title>ignored</title>
<polygon fill="#161925" stroke="#00d2ff" stroke-width="2" points="283,-131 72,-131 72,-95 283,-95 283,-131"/>
<text text-anchor="middle" x="177.5" y="-115.8" font-family="Courier New" font-size="9.00" fill="#ffffff">ATA Standby Timer IGNORED by firmware</text>
<text text-anchor="middle" x="177.5" y="-105.8" font-family="Courier New" font-size="9.00" fill="#ffffff">(Prevents accidental footage loss)</text>
</g>
<!-- apm_command&#45;&gt;ignored -->
<g id="edge2" class="edge">
<title>apm_command&#45;&gt;ignored</title>
<path fill="none" stroke="#ff00cc" stroke-width="1.5" d="M177.5,-166.7C177.5,-158.98 177.5,-149.71 177.5,-141.11"/>
<polygon fill="#ff00cc" stroke="#ff00cc" stroke-width="1.5" points="181,-141.1 177.5,-131.1 174,-141.1 181,-141.1"/>
</g>
<!-- spin_constant -->
<g id="node4" class="node">
<title>spin_constant</title>
<polygon fill="#2d161a" stroke="#ff5252" stroke-width="2" points="285.5,-59 69.5,-59 69.5,-23 285.5,-23 285.5,-59"/>
<text text-anchor="middle" x="177.5" y="-43.8" font-family="Courier New" font-size="9.00" fill="#ffffff">Platters spin 24/7 constantly</text>
<text text-anchor="middle" x="177.5" y="-33.8" font-family="Courier New" font-size="9.00" fill="#ffffff">Generates continuous idle heat (~53°C)</text>
</g>
<!-- ignored&#45;&gt;spin_constant -->
<g id="edge3" class="edge">
<title>ignored&#45;&gt;spin_constant</title>
<path fill="none" stroke="#ff00cc" stroke-width="1.5" d="M177.5,-94.7C177.5,-86.98 177.5,-77.71 177.5,-69.11"/>
<polygon fill="#ff00cc" stroke="#ff00cc" stroke-width="1.5" points="181,-69.1 177.5,-59.1 174,-69.1 181,-69.1"/>
</g>
</g>
</svg>
