<?xml version="1.0" encoding="UTF-8" standalone="no"?>
<!DOCTYPE svg PUBLIC "-//W3C//DTD SVG 1.1//EN"
 "http://www.w3.org/Graphics/SVG/1.1/DTD/svg11.dtd">
<!-- Generated by graphviz version 2.43.0 (0)
 -->
<!-- Title: G Pages: 1 -->
<svg width="570pt" height="316pt"
 viewBox="0.00 0.00 569.60 315.60" xmlns="http://www.w3.org/2000/svg" xmlns:xlink="http://www.w3.org/1999/xlink">
<g id="graph0" class="graph" transform="scale(1 1) rotate(0) translate(28.8 286.8)">
<title>G</title>
<polygon fill="#0d0e15" stroke="transparent" points="-28.8,28.8 -28.8,-286.8 540.8,-286.8 540.8,28.8 -28.8,28.8"/>
<text text-anchor="middle" x="256" y="-7.8" font-family="Courier New" font-size="14.00" fill="#00ffcc">19. FSTAB MOUNT OPTION IMPACT ON PLATTER SPIN</text>
<g id="clust1" class="cluster">
<title>cluster_defaults</title>
<polygon fill="#0d0e15" stroke="#ff5252" points="8,-31 8,-250 240,-250 240,-31 8,-31"/>
<text text-anchor="middle" x="124" y="-234.8" font-family="Courier New" font-size="14.00" fill="#ff5252">defaults (Read&#45;Write)</text>
</g>
<g id="clust2" class="cluster">
<title>cluster_ro_noatime</title>
<polygon fill="#0d0e15" stroke="#00ff88" points="248,-31 248,-250 504,-250 504,-31 248,-31"/>
<text text-anchor="middle" x="376" y="-234.8" font-family="Courier New" font-size="14.00" fill="#00ff88">ro,noatime,nofail (Read&#45;Only)</text>
</g>
<!-- d_mount -->
<g id="node1" class="node">
<title>d_mount</title>
<polygon fill="#161925" stroke="#00d2ff" stroke-width="2" points="179.5,-219 68.5,-219 68.5,-183 179.5,-183 179.5,-219"/>
<text text-anchor="middle" x="124" y="-198.8" font-family="Courier New" font-size="9.00" fill="#ffffff">Mounted read&#45;write</text>
</g>
<!-- d_atime -->
<g id="node2" class="node">
<title>d_atime</title>
<polygon fill="#161925" stroke="#00d2ff" stroke-width="2" points="221.5,-147 26.5,-147 26.5,-111 221.5,-111 221.5,-147"/>
<text text-anchor="middle" x="124" y="-126.8" font-family="Courier New" font-size="9.00" fill="#ffffff">Writes access time (atime) updates</text>
</g>
<!-- d_mount&#45;&gt;d_atime -->
<g id="edge1" class="edge">
<title>d_mount&#45;&gt;d_atime</title>
<path fill="none" stroke="#ff00cc" stroke-width="1.5" d="M124,-182.7C124,-174.98 124,-165.71 124,-157.11"/>
<polygon fill="#ff00cc" stroke="#ff00cc" stroke-width="1.5" points="127.5,-157.1 124,-147.1 120.5,-157.1 127.5,-157.1"/>
</g>
<!-- d_shutdown -->
<g id="node3" class="node">
<title>d_shutdown</title>
<polygon fill="#161925" stroke="#00d2ff" stroke-width="2" points="232,-75 16,-75 16,-39 232,-39 232,-75"/>
<text text-anchor="middle" x="124" y="-54.8" font-family="Courier New" font-size="9.00" fill="#ffffff">Forces spin&#45;up during shutdown unmount</text>
</g>
<!-- d_atime&#45;&gt;d_shutdown -->
<g id="edge2" class="edge">
<title>d_atime&#45;&gt;d_shutdown</title>
<path fill="none" stroke="#ff00cc" stroke-width="1.5" d="M124,-110.7C124,-102.98 124,-93.71 124,-85.11"/>
<polygon fill="#ff00cc" stroke="#ff00cc" stroke-width="1.5" points="127.5,-85.1 124,-75.1 120.5,-85.1 127.5,-85.1"/>
</g>
<!-- r_mount -->
<g id="node4" class="node">
<title>r_mount</title>
<polygon fill="#161925" stroke="#00d2ff" stroke-width="2" points="429,-219 323,-219 323,-183 429,-183 429,-219"/>
<text text-anchor="middle" x="376" y="-198.8" font-family="Courier New" font-size="9.00" fill="#ffffff">Mounted read&#45;only</text>
</g>
<!-- r_atime -->
<g id="node5" class="node">
<title>r_atime</title>
<polygon fill="#161925" stroke="#00d2ff" stroke-width="2" points="460.5,-147 291.5,-147 291.5,-111 460.5,-111 460.5,-147"/>
<text text-anchor="middle" x="376" y="-126.8" font-family="Courier New" font-size="9.00" fill="#ffffff">No access time updates logged</text>
</g>
<!-- r_mount&#45;&gt;r_atime -->
<g id="edge3" class="edge">
<title>r_mount&#45;&gt;r_atime</title>
<path fill="none" stroke="#ff00cc" stroke-width="1.5" d="M376,-182.7C376,-174.98 376,-165.71 376,-157.11"/>
<polygon fill="#ff00cc" stroke="#ff00cc" stroke-width="1.5" points="379.5,-157.1 376,-147.1 372.5,-157.1 379.5,-157.1"/>
</g>
<!-- r_shutdown -->
<g id="node6" class="node">
<title>r_shutdown</title>
<polygon fill="#161925" stroke="#00d2ff" stroke-width="2" points="489.5,-75 262.5,-75 262.5,-39 489.5,-39 489.5,-75"/>
<text text-anchor="middle" x="376" y="-54.8" font-family="Courier New" font-size="9.00" fill="#ffffff">Bypasses spin&#45;up during shutdown unmount</text>
</g>
<!-- r_atime&#45;&gt;r_shutdown -->
<g id="edge4" class="edge">
<title>r_atime&#45;&gt;r_shutdown</title>
<path fill="none" stroke="#ff00cc" stroke-width="1.5" d="M376,-110.7C376,-102.98 376,-93.71 376,-85.11"/>
<polygon fill="#ff00cc" stroke="#ff00cc" stroke-width="1.5" points="379.5,-85.1 376,-75.1 372.5,-85.1 379.5,-85.1"/>
</g>
</g>
</svg>
