<?xml version="1.0" encoding="UTF-8" standalone="no"?>
<!DOCTYPE svg PUBLIC "-//W3C//DTD SVG 1.1//EN"
 "http://www.w3.org/Graphics/SVG/1.1/DTD/svg11.dtd">
<!-- Generated by graphviz version 2.43.0 (0)
 -->
<!-- Title: G Pages: 1 -->
<svg width="355pt" height="352pt"
 viewBox="0.00 0.00 354.60 351.60" xmlns="http://www.w3.org/2000/svg" xmlns:xlink="http://www.w3.org/1999/xlink">
<g id="graph0" class="graph" transform="scale(1 1) rotate(0) translate(28.8 322.8)">
<title>G</title>
<polygon fill="#0d0e15" stroke="transparent" points="-28.8,28.8 -28.8,-322.8 325.8,-322.8 325.8,28.8 -28.8,28.8"/>
<text text-anchor="middle" x="148.5" y="-7.8" font-family="Courier New" font-size="14.00" fill="#00ffcc">20. MOUNT CONTROL SOCKET INTERFACE</text>
<!-- client -->
<g id="node1" class="node">
<title>client</title>
<polygon fill="#242411" stroke="#ffff00" stroke-width="2" points="216.5,-294 79.5,-294 79.5,-258 216.5,-258 216.5,-294"/>
<text text-anchor="middle" x="148" y="-273.8" font-family="Courier New" font-size="9.00" fill="#ffffff">Client / Script Command</text>
</g>
<!-- socket -->
<g id="node2" class="node">
<title>socket</title>
<polygon fill="#11241a" stroke="#00ff88" stroke-width="2" points="224.5,-213 71.5,-213 71.5,-177 224.5,-177 224.5,-213"/>
<text text-anchor="middle" x="148" y="-197.8" font-family="Courier New" font-size="9.00" fill="#ffffff">Unix Socket File</text>
<text text-anchor="middle" x="148" y="-187.8" font-family="Courier New" font-size="9.00" fill="#ffffff">/run/quiescent_mountd.sock</text>
</g>
<!-- client&#45;&gt;socket -->
<g id="edge1" class="edge">
<title>client&#45;&gt;socket</title>
<path fill="none" stroke="#ff00cc" stroke-width="1.5" d="M148,-257.86C148,-247.71 148,-234.63 148,-223.12"/>
<polygon fill="#ff00cc" stroke="#ff00cc" stroke-width="1.5" points="151.5,-223.11 148,-213.11 144.5,-223.11 151.5,-223.11"/>
<text text-anchor="middle" x="173" y="-233.6" font-family="Courier New" font-size="8.00" fill="#ff00cc">Write bytes</text>
</g>
<!-- daemon -->
<g id="node3" class="node">
<title>daemon</title>
<polygon fill="#161925" stroke="#00d2ff" stroke-width="2" points="240.5,-132 55.5,-132 55.5,-96 240.5,-96 240.5,-132"/>
<text text-anchor="middle" x="148" y="-111.8" font-family="Courier New" font-size="9.00" fill="#ffffff">quiescent_mountd listener daemon</text>
</g>
<!-- socket&#45;&gt;daemon -->
<g id="edge2" class="edge">
<title>socket&#45;&gt;daemon</title>
<path fill="none" stroke="#ff00cc" stroke-width="1.5" d="M148,-176.86C148,-166.71 148,-153.63 148,-142.12"/>
<polygon fill="#ff00cc" stroke="#ff00cc" stroke-width="1.5" points="151.5,-142.11 148,-132.11 144.5,-142.11 151.5,-142.11"/>
<text text-anchor="middle" x="168.5" y="-152.6" font-family="Courier New" font-size="8.00" fill="#ff00cc">Read line</text>
</g>
<!-- cmd_rw -->
<g id="node4" class="node">
<title>cmd_rw</title>
<polygon fill="#161925" stroke="#00d2ff" stroke-width="2" points="139.5,-59 2.5,-59 2.5,-23 139.5,-23 139.5,-59"/>
<text text-anchor="middle" x="71" y="-43.8" font-family="Courier New" font-size="9.00" fill="#ffffff">Command: &#39;rw /mnt/sda1&#39;</text>
<text text-anchor="middle" x="71" y="-33.8" font-family="Courier New" font-size="9.00" fill="#ffffff">&#45;&gt; Remount RW</text>
</g>
<!-- daemon&#45;&gt;cmd_rw -->
<g id="edge3" class="edge">
<title>daemon&#45;&gt;cmd_rw</title>
<path fill="none" stroke="#ff00cc" stroke-width="1.5" d="M129.36,-95.81C119.62,-86.83 107.54,-75.69 96.9,-65.89"/>
<polygon fill="#ff00cc" stroke="#ff00cc" stroke-width="1.5" points="99.19,-63.23 89.47,-59.03 94.45,-68.38 99.19,-63.23"/>
</g>
<!-- cmd_ro -->
<g id="node5" class="node">
<title>cmd_ro</title>
<polygon fill="#161925" stroke="#00d2ff" stroke-width="2" points="294.5,-59 157.5,-59 157.5,-23 294.5,-23 294.5,-59"/>
<text text-anchor="middle" x="226" y="-43.8" font-family="Courier New" font-size="9.00" fill="#ffffff">Command: &#39;ro /mnt/sda1&#39;</text>
<text text-anchor="middle" x="226" y="-33.8" font-family="Courier New" font-size="9.00" fill="#ffffff">&#45;&gt; Sync &amp; Remount RO</text>
</g>
<!-- daemon&#45;&gt;cmd_ro -->
<g id="edge4" class="edge">
<title>daemon&#45;&gt;cmd_ro</title>
<path fill="none" stroke="#ff00cc" stroke-width="1.5" d="M166.88,-95.81C176.75,-86.83 188.98,-75.69 199.76,-65.89"/>
<polygon fill="#ff00cc" stroke="#ff00cc" stroke-width="1.5" points="202.25,-68.35 207.29,-59.03 197.54,-63.17 202.25,-68.35"/>
</g>
</g>
</svg>
