<?xml version="1.0" encoding="UTF-8" standalone="no"?>
<!DOCTYPE svg PUBLIC "-//W3C//DTD SVG 1.1//EN"
 "http://www.w3.org/Graphics/SVG/1.1/DTD/svg11.dtd">
<!-- Generated by graphviz version 2.43.0 (0)
 -->
<!-- Title: G Pages: 1 -->
<svg width="446pt" height="407pt"
 viewBox="0.00 0.00 445.60 406.60" xmlns="http://www.w3.org/2000/svg" xmlns:xlink="http://www.w3.org/1999/xlink">
<g id="graph0" class="graph" transform="scale(1 1) rotate(0) translate(28.8 377.8)">
<title>G</title>
<polygon fill="#0d0e15" stroke="transparent" points="-28.8,28.8 -28.8,-377.8 416.8,-377.8 416.8,28.8 -28.8,28.8"/>
<text text-anchor="middle" x="194" y="-7.8" font-family="Courier New" font-size="14.00" fill="#00ffcc">24. SYSTEMD TRANSACTION DESTRUCTIVE CONFLICTS</text>
<!-- sys_shutdown -->
<g id="node1" class="node">
<title>sys_shutdown</title>
<polygon fill="#2d161a" stroke="#ff5252" stroke-width="2" points="312.5,-349 75.5,-349 75.5,-313 312.5,-313 312.5,-349"/>
<text text-anchor="middle" x="194" y="-328.8" font-family="Courier New" font-size="9.00" fill="#ffffff">systemd initiates shutdown.target stop job</text>
</g>
<!-- dbus_request -->
<g id="node2" class="node">
<title>dbus_request</title>
<polygon fill="#161925" stroke="#00d2ff" stroke-width="2" points="325.5,-277 62.5,-277 62.5,-241 325.5,-241 325.5,-277"/>
<text text-anchor="middle" x="194" y="-261.8" font-family="Courier New" font-size="9.00" fill="#ffffff">D&#45;Bus daemon receives client activation request</text>
<text text-anchor="middle" x="194" y="-251.8" font-family="Courier New" font-size="9.00" fill="#ffffff">for systemd&#45;resolved.service</text>
</g>
<!-- sys_shutdown&#45;&gt;dbus_request -->
<g id="edge1" class="edge">
<title>sys_shutdown&#45;&gt;dbus_request</title>
<path fill="none" stroke="#ff00cc" stroke-width="1.5" d="M194,-312.7C194,-304.98 194,-295.71 194,-287.11"/>
<polygon fill="#ff00cc" stroke="#ff00cc" stroke-width="1.5" points="197.5,-287.1 194,-277.1 190.5,-287.1 197.5,-287.1"/>
</g>
<!-- trans_eval -->
<g id="node3" class="node">
<title>trans_eval</title>
<polygon fill="#161925" stroke="#00d2ff" stroke-width="2" points="336,-205 52,-205 52,-169 336,-169 336,-205"/>
<text text-anchor="middle" x="194" y="-184.8" font-family="Courier New" font-size="9.00" fill="#ffffff">systemd transaction evaluator resolves dependencies</text>
</g>
<!-- dbus_request&#45;&gt;trans_eval -->
<g id="edge2" class="edge">
<title>dbus_request&#45;&gt;trans_eval</title>
<path fill="none" stroke="#ff00cc" stroke-width="1.5" d="M194,-240.7C194,-232.98 194,-223.71 194,-215.11"/>
<polygon fill="#ff00cc" stroke="#ff00cc" stroke-width="1.5" points="197.5,-215.1 194,-205.1 190.5,-215.1 197.5,-215.1"/>
</g>
<!-- conflict_detected -->
<g id="node4" class="node">
<title>conflict_detected</title>
<polygon fill="#2d161a" stroke="#ff5252" stroke-width="2" points="304.5,-133 83.5,-133 83.5,-95 304.5,-95 304.5,-133"/>
<text text-anchor="middle" x="194" y="-121.8" font-family="Courier New" font-size="9.00" fill="#ffffff">Conflict Identified:</text>
<text text-anchor="middle" x="194" y="-111.8" font-family="Courier New" font-size="9.00" fill="#ffffff">Resolved.service requires &#39;start&#39; job</text>
<text text-anchor="middle" x="194" y="-101.8" font-family="Courier New" font-size="9.00" fill="#ffffff">But shutdown.target requires &#39;stop&#39; job</text>
</g>
<!-- trans_eval&#45;&gt;conflict_detected -->
<g id="edge3" class="edge">
<title>trans_eval&#45;&gt;conflict_detected</title>
<path fill="none" stroke="#ff00cc" stroke-width="1.5" d="M194,-168.81C194,-161.11 194,-151.82 194,-143.15"/>
<polygon fill="#ff00cc" stroke="#ff00cc" stroke-width="1.5" points="197.5,-143.02 194,-133.02 190.5,-143.02 197.5,-143.02"/>
</g>
<!-- reject_start -->
<g id="node5" class="node">
<title>reject_start</title>
<polygon fill="#2d161a" stroke="#ff5252" stroke-width="2" points="294,-59 94,-59 94,-23 294,-23 294,-59"/>
<text text-anchor="middle" x="194" y="-43.8" font-family="Courier New" font-size="9.00" fill="#ffffff">Transaction rejected as destructive</text>
<text text-anchor="middle" x="194" y="-33.8" font-family="Courier New" font-size="9.00" fill="#ffffff">D&#45;Bus activation fails</text>
</g>
<!-- conflict_detected&#45;&gt;reject_start -->
<g id="edge4" class="edge">
<title>conflict_detected&#45;&gt;reject_start</title>
<path fill="none" stroke="#ff00cc" stroke-width="1.5" d="M194,-94.72C194,-86.97 194,-77.79 194,-69.27"/>
<polygon fill="#ff00cc" stroke="#ff00cc" stroke-width="1.5" points="197.5,-69 194,-59 190.5,-69 197.5,-69"/>
</g>
</g>
</svg>
